<?xml version="1.0" encoding="utf-8" ?><svg xmlns="http://www.w3.org/2000/svg" xmlns:xlink="http://www.w3.org/1999/xlink" width="534" height="536" viewBox="0 0 534 536"><metadata><c2pa:manifest xmlns:c2pa="http://c2pa.org/manifest">AAAlRGp1bWIAAAAeanVtZGMycGEAEQAQgAAAqgA4m3EDYzJwYQAAAA6CanVtYgAAAEdqdW1kYzJtYQARABCAAACqADibcQN1cm46YzJwYTo0ZGI5YzU2OC04NjEyLTQxMDgtYTRhZS04MmU1OTM5MWNmOGIAAAADs2p1bWIAAAApanVtZGMyYXMAEQAQgAAAqgA4m3EDYzJwYS5hc3NlcnRpb25zAAAAAMlqdW1iAAAARGp1bWRjYm9yABEAEIAAAKoAOJtxE2MycGEuaW5ncmVkaWVudC52MwAAAAAYYzJzaI1NEkx5BUJ8IUd1juBFgqYAAAB9Y2JvcqRscmVsYXRpb25zaGlwaHBhcmVudE9maGRjOnRpdGxlZnNvdXJjZWlkYzpmb3JtYXRqaW1hZ2Uvd2VicGppbnN0YW5jZUlEeCx4bXA6aWlkOmM4NTIxZGUwLWI1MDUtNDYyNi04YjBhLWE1NmNiYjg5NjhiNAAAAfVqdW1iAAAAQWp1bWRjYm9yABEAEIAAAKoAOJtxE2MycGEuYWN0aW9ucy52MgAAAAAYYzJzaO10xuwRvmxNjIwx73ho9rIAAAGsY2JvcqFnYWN0aW9uc4KiZmFjdGlvbmtjMnBhLm9wZW5lZGpwYXJhbWV0ZXJzoWtpbmdyZWRpZW50c4GiY3VybHgtc2VsZiNqdW1iZj1jMnBhLmFzc2VydGlvbnMvYzJwYS5pbmdyZWRpZW50LnYzZGhhc2hYIOeyH9Nk55FS9BzVyGRSjJvatONgZs0g8MvMwCmQD88cpGZhY3Rpb25rYzJwYS5lZGl0ZWRqcGFyYW1ldGVyc6FraW5ncmVkaWVudHOBomN1cmx4LXNlbGYjanVtYmY9YzJwYS5hc3NlcnRpb25zL2MycGEuaW5ncmVkaWVudC52M2RoYXNoWCDnsh/TZOeRUvQc1chkUoyb2rTjYGbNIPDLzMApkA/PHHFkaWdpdGFsU291cmNlVHlwZXhTaHR0cDovL2N2LmlwdGMub3JnL25ld3Njb2Rlcy9kaWdpdGFsc291cmNldHlwZS9jb21wb3NpdGVXaXRoVHJhaW5lZEFsZ29yaXRobWljTWVkaWFrZGVzY3JpcHRpb252Q3JlYXRlZCBieSBSZWNyYWZ0IEFJLgAAAMRqdW1iAAAAQGp1bWRjYm9yABEAEIAAAKoAOJtxE2MycGEuaGFzaC5kYXRhAAAAABhjMnNouyuFdQeKENaH6otRjlJ9eQAAAHxjYm9ypWpleGNsdXNpb25zgaJlc3RhcnQY2WZsZW5ndGgZE4xkbmFtZW5qdW1iZiBtYW5pZmVzdGNhbGdmc2hhMjU2ZGhhc2hYIGJEx5d+NA+D2cweCOBz1zbuvLAeY358zE02v9SDaw/jY3BhZEkAAAAAAAAAAAAAAAKkanVtYgAAACdqdW1kYzJjbAARABCAAACqADibcQNjMnBhLmNsYWltLnYyAAAAAnVjYm9yp2ppbnN0YW5jZUlEeCx4bXA6aWlkOmY4MTVmMDkxLWQ3NGEtNDhiZS1iNWFkLTA2YWE5ZGVhMDQ5YnRjbGFpbV9nZW5lcmF0b3JfaW5mb6NkbmFtZWpyZWNyYWZ0LmFpZ3ZlcnNpb254KDgxY2U4MmUyYzVjM2NiZmJlOGM2ZmJlMTc5ZDVmOGQ5MWM0MDljZTF3b3JnLmNvbnRlbnRhdXRoLmMycGFfcnNmMC45MC43aXNpZ25hdHVyZXhNc2VsZiNqdW1iZj0vYzJwYS91cm46YzJwYTo0ZGI5YzU2OC04NjEyLTQxMDgtYTRhZS04MmU1OTM5MWNmOGIvYzJwYS5zaWduYXR1cmVyY3JlYXRlZF9hc3NlcnRpb25zgqJjdXJseCpzZWxmI2p1bWJmPWMycGEuYXNzZXJ0aW9ucy9jMnBhLmFjdGlvbnMudjJkaGFzaFggr+l/wHxWxPl0vxnCcYMrPcy3ttvOvo37SiFHTxtpvO+iY3VybHgpc2VsZiNqdW1iZj1jMnBhLmFzc2VydGlvbnMvYzJwYS5oYXNoLmRhdGFkaGFzaFggPmGdHsPkNXppprm4BHMOgCSDFsHoOom6OEqmtl4n/VxzZ2F0aGVyZWRfYXNzZXJ0aW9uc4GiY3VybHgtc2VsZiNqdW1iZj1jMnBhLmFzc2VydGlvbnMvYzJwYS5pbmdyZWRpZW50LnYzZGhhc2hYIOeyH9Nk55FS9BzVyGRSjJvatONgZs0g8MvMwCmQD88caGRjOnRpdGxleBpSZWNyYWZ0IEFJIEdlbmVyYXRlZCBJbWFnZWNhbGdmc2hhMjU2AAAH3Gp1bWIAAAAoanVtZGMyY3MAEQAQgAAAqgA4m3EDYzJwYS5zaWduYXR1cmUAAAAHrGNib3LShFkDsKIBJhghglkB5zCCAeMwggGJoAMCAQICCQC33lpjQ1FuejAKBggqhkjOPQQDAjBAMR8wHQYDVQQDDBZSZWNyYWZ0IFN0YWdpbmcgRGV2IENBMRAwDgYDVQQKDAdSZWNyYWZ0MQswCQYDVQQGEwJVUzAeFw0yNjA2MTIxOTQzNTBaFw0yNzA2MTIxOTQzNTBaMDcxCzAJBgNVBAYTAlVTMRMwEQYDVQQKEwpSZWNyYWZ0IEFJMRMwEQYDVQQDEwpyZWNyYWZ0LmFpMFkwEwYHKoZIzj0CAQYIKoZIzj0DAQcDQgAESmk1WwArIPw3hty3jsWHSA/1QOhBRu9xOjpJ2/iiIghScoEVM+Lnjds/7dqmG+giFL0vEb4DoogpX6KrGLcPNaN1MHMwDAYDVR0TAQH/BAIwADAOBgNVHQ8BAf8EBAMCBsAwEwYDVR0lBAwwCgYIKwYBBQUHAwQwHQYDVR0OBBYEFC8x6QXp/eki9cuCDx2vDJDLIV39MB8GA1UdIwQYMBaAFAILKjgayqqXSv/5v5MWaO2UeHm3MAoGCCqGSM49BAMCA0gAMEUCIFPISltGl775PEkIFRTZGsevWJvWnvBrE9kWU0MPgedQAiEAtA+AZBKEQ+DdK9mUZDctB2Wlt1iAsv0GRjfeYpReMsxZAb0wggG5MIIBX6ADAgECAgkAnPloO0+gE28wCgYIKoZIzj0EAwIwQDEfMB0GA1UEAwwWUmVjcmFmdCBTdGFnaW5nIERldiBDQTEQMA4GA1UECgwHUmVjcmFmdDELMAkGA1UEBhMCVVMwHhcNMjYwNjEyMTk0MDE2WhcNMjgwNjExMTk0MDE2WjBAMR8wHQYDVQQDDBZSZWNyYWZ0IFN0YWdpbmcgRGV2IENBMRAwDgYDVQQKDAdSZWNyYWZ0MQswCQYDVQQGEwJVUzBZMBMGByqGSM49AgEGCCqGSM49AwEHA0IABEPSEAZXFWymij2K0EnzoS/9NLO8VAwu0YpyLizvyNZPfcvcoeqFhfZD8Wj/rcdb9T3ji98q1arie99B9GRog8qjQjBAMA8GA1UdEwEB/wQFMAMBAf8wDgYDVR0PAQH/BAQDAgGGMB0GA1UdDgQWBBQCCyo4Gsqql0r/+b+TFmjtlHh5tzAKBggqhkjOPQQDAgNIADBFAiBUMDSJi5WA3kIY4BfmYqk24HLs0qpjicN0NpUP4bvNxQIhAPTvHC5v8X6FS6geI7XW7h84t1i/qdkTfg0RpMKWLMFboWNwYWRZA6QAAAAAAAAAAAAAAAAAAAAAAAAAAAAAAAAAAAAAAAAAAAAAAAAAAAAAAAAAAAAAAAAAAAAAAAAAAAAAAAAAAAAAAAAAAAAAAAAAAAAAAAAAAAAAAAAAAAAAAAAAAAAAAAAAAAAAAAAAAAAAAAAAAAAAAAAAAAAAAAAAAAAAAAAAAAAAAAAAAAAAAAAAAAAAAAAAAAAAAAAAAAAAAAAAAAAAAAAAAAAAAAAAAAAAAAAAAAAAAAAAAAAAAAAAAAAAAAAAAAAAAAAAAAAAAAAAAAAAAAAAAAAAAAAAAAAAAAAAAAAAAAAAAAAAAAAAAAAAAAAAAAAAAAAAAAAAAAAAAAAAAAAAAAAAAAAAAAAAAAAAAAAAAAAAAAAAAAAAAAAAAAAAAAAAAAAAAAAAAAAAAAAAAAAAAAAAAAAAAAAAAAAAAAAAAAAAAAAAAAAAAAAAAAAAAAAAAAAAAAAAAAAAAAAAAAAAAAAAAAAAAAAAAAAAAAAAAAAAAAAAAAAAAAAAAAAAAAAAAAAAAAAAAAAAAAAAAAAAAAAAAAAAAAAAAAAAAAAAAAAAAAAAAAAAAAAAAAAAAAAAAAAAAAAAAAAAAAAAAAAAAAAAAAAAAAAAAAAAAAAAAAAAAAAAAAAAAAAAAAAAAAAAAAAAAAAAAAAAAAAAAAAAAAAAAAAAAAAAAAAAAAAAAAAAAAAAAAAAAAAAAAAAAAAAAAAAAAAAAAAAAAAAAAAAAAAAAAAAAAAAAAAAAAAAAAAAAAAAAAAAAAAAAAAAAAAAAAAAAAAAAAAAAAAAAAAAAAAAAAAAAAAAAAAAAAAAAAAAAAAAAAAAAAAAAAAAAAAAAAAAAAAAAAAAAAAAAAAAAAAAAAAAAAAAAAAAAAAAAAAAAAAAAAAAAAAAAAAAAAAAAAAAAAAAAAAAAAAAAAAAAAAAAAAAAAAAAAAAAAAAAAAAAAAAAAAAAAAAAAAAAAAAAAAAAAAAAAAAAAAAAAAAAAAAAAAAAAAAAAAAAAAAAAAAAAAAAAAAAAAAAAAAAAAAAAAAAAAAAAAAAAAAAAAAAAAAAAAAAAAAAAAAAAAAAAAAAAAAAAAAAAAAAAAAAAAAAAAAAAAAAAAAAAAAAAAAAAAAAAAAAAAAAAAAAAAAAAAAAAAAAAAAAAAAAAAAAAAAAAAAAAAAAAAAAAAAAAAAAAAAAAAAAAAAAAAAAAAAAAAAAAAAAAAAAAAAAAAAAAAAAAAAAAAAAAAAAAAAAAAAAPZYQPtbUTImdNl2wCVoZjsq51nMxe3vmIon962iTs2fWWkR5uk50m5NPIPuDNY6XbtALATMHzyr94mdDpNjljlqCycAABacanVtYgAAAEdqdW1kYzJtYQARABCAAACqADibcQN1cm46YzJwYTozM2M3MmVhMy00OTQ3LTQxMzgtYmRiNi02MmRmM2M2ZTRiODIAAAAL22p1bWIAAAApanVtZGMyYXMAEQAQgAAAqgA4m3EDYzJwYS5hc3NlcnRpb25zAAAACJVqdW1iAAAARGp1bWRjYm9yABEAEIAAAKoAOJtxE2MycGEuaW5ncmVkaWVudC52MwAAAAAYYzJzaLiH0b3LVCv1U8zo5/pSfPcAAAhJY2JvcqdscmVsYXRpb25zaGlwaHBhcmVudE9maGRjOnRpdGxlZnNvdXJjZWlkYzpmb3JtYXRtaW1hZ2Uvc3ZnK3htbHF2YWxpZGF0aW9uUmVzdWx0c6JuYWN0aXZlTWFuaWZlc3SjZ3N1Y2Nlc3OGo2Rjb2RleB1jbGFpbVNpZ25hdHVyZS5pbnNpZGVWYWxpZGl0eWN1cmx4TXNlbGYjanVtYmY9L2MycGEvdXJuOmMycGE6NGRiOWM1NjgtODYxMi00MTA4LWE0YWUtODJlNTkzOTFjZjhiL2MycGEuc2lnbmF0dXJla2V4cGxhbmF0aW9udWNsYWltIHNpZ25hdHVyZSB2YWxpZKNkY29kZXgYY2xhaW1TaWduYXR1cmUudmFsaWRhdGVkY3VybHhNc2VsZiNqdW1iZj0vYzJwYS91cm46YzJwYTo0ZGI5YzU2OC04NjEyLTQxMDgtYTRhZS04MmU1OTM5MWNmOGIvYzJwYS5zaWduYXR1cmVrZXhwbGFuYXRpb251Y2xhaW0gc2lnbmF0dXJlIHZhbGlko2Rjb2RleBlhc3NlcnRpb24uaGFzaGVkVVJJLm1hdGNoY3VybHhec2VsZiNqdW1iZj0vYzJwYS91cm46YzJwYTo0ZGI5YzU2OC04NjEyLTQxMDgtYTRhZS04MmU1OTM5MWNmOGIvYzJwYS5hc3NlcnRpb25zL2MycGEuYWN0aW9ucy52MmtleHBsYW5hdGlvbng+aGFzaGVkIHVyaSBtYXRjaGVkOiBzZWxmI2p1bWJmPWMycGEuYXNzZXJ0aW9ucy9jMnBhLmFjdGlvbnMudjKjZGNvZGV4GWFzc2VydGlvbi5oYXNoZWRVUkkubWF0Y2hjdXJseF1zZWxmI2p1bWJmPS9jMnBhL3VybjpjMnBhOjRkYjljNTY4LTg2MTItNDEwOC1hNGFlLTgyZTU5MzkxY2Y4Yi9jMnBhLmFzc2VydGlvbnMvYzJwYS5oYXNoLmRhdGFrZXhwbGFuYXRpb254PWhhc2hlZCB1cmkgbWF0Y2hlZDogc2VsZiNqdW1iZj1jMnBhLmFzc2VydGlvbnMvYzJwYS5oYXNoLmRhdGGjZGNvZGV4GWFzc2VydGlvbi5oYXNoZWRVUkkubWF0Y2hjdXJseGFzZWxmI2p1bWJmPS9jMnBhL3VybjpjMnBhOjRkYjljNTY4LTg2MTItNDEwOC1hNGFlLTgyZTU5MzkxY2Y4Yi9jMnBhLmFzc2VydGlvbnMvYzJwYS5pbmdyZWRpZW50LnYza2V4cGxhbmF0aW9ueEFoYXNoZWQgdXJpIG1hdGNoZWQ6IHNlbGYjanVtYmY9YzJwYS5hc3NlcnRpb25zL2MycGEuaW5ncmVkaWVudC52M6NkY29kZXgYYXNzZXJ0aW9uLmRhdGFIYXNoLm1hdGNoY3VybHhdc2VsZiNqdW1iZj0vYzJwYS91cm46YzJwYTo0ZGI5YzU2OC04NjEyLTQxMDgtYTRhZS04MmU1OTM5MWNmOGIvYzJwYS5hc3NlcnRpb25zL2MycGEuaGFzaC5kYXRha2V4cGxhbmF0aW9ub2RhdGEgaGFzaCB2YWxpZG1pbmZvcm1hdGlvbmFsgGdmYWlsdXJlgaNkY29kZXgbc2lnbmluZ0NyZWRlbnRpYWwudW50cnVzdGVkY3VybHhNc2VsZiNqdW1iZj0vYzJwYS91cm46YzJwYTo0ZGI5YzU2OC04NjEyLTQxMDgtYTRhZS04MmU1OTM5MWNmOGIvYzJwYS5zaWduYXR1cmVrZXhwbGFuYXRpb254HXNpZ25pbmcgY2VydGlmaWNhdGUgdW50cnVzdGVkcGluZ3JlZGllbnREZWx0YXOBonZpbmdyZWRpZW50QXNzZXJ0aW9uVVJJeGFzZWxmI2p1bWJmPS9jMnBhL3VybjpjMnBhOjRkYjljNTY4LTg2MTItNDEwOC1hNGFlLTgyZTU5MzkxY2Y4Yi9jMnBhLmFzc2VydGlvbnMvYzJwYS5pbmdyZWRpZW50LnYzcHZhbGlkYXRpb25EZWx0YXOjZ3N1Y2Nlc3OAbWluZm9ybWF0aW9uYWyBo2Rjb2RleBxpbmdyZWRpZW50LnVua25vd25Qcm92ZW5hbmNlY3VybHhhc2VsZiNqdW1iZj0vYzJwYS91cm46YzJwYTo0ZGI5YzU2OC04NjEyLTQxMDgtYTRhZS04MmU1OTM5MWNmOGIvYzJwYS5hc3NlcnRpb25zL2MycGEuaW5ncmVkaWVudC52M2tleHBsYW5hdGlvbngrc291cmNlOiBpbmdyZWRpZW50IGRvZXMgbm90IGhhdmUgcHJvdmVuYW5jZWdmYWlsdXJlgGppbnN0YW5jZUlEeCx4bXA6aWlkOjBhOGFlYjNiLTNkODItNDIzMS05MzYyLWQ3ODU1ODZlMDU2Y25hY3RpdmVNYW5pZmVzdKNjdXJseD5zZWxmI2p1bWJmPS9jMnBhL3VybjpjMnBhOjRkYjljNTY4LTg2MTItNDEwOC1hNGFlLTgyZTU5MzkxY2Y4YmNhbGdmc2hhMjU2ZGhhc2hYIOhJt4yxN92MhRSjoTvfg2zWCHwVr40Wq/r1xEz7uc+2bmNsYWltU2lnbmF0dXJlo2N1cmx4TXNlbGYjanVtYmY9L2MycGEvdXJuOmMycGE6NGRiOWM1NjgtODYxMi00MTA4LWE0YWUtODJlNTkzOTFjZjhiL2MycGEuc2lnbmF0dXJlY2FsZ2ZzaGEyNTZkaGFzaFgg7XmeeDMKKehDtdcq83bfurpyn7TJBp/s9EBPRjIE8scAAAHuanVtYgAAAEFqdW1kY2JvcgARABCAAACqADibcRNjMnBhLmFjdGlvbnMudjIAAAAAGGMyc2grezSJUvE4FeJlC162s2qaAAABpWNib3KhZ2FjdGlvbnOComZhY3Rpb25rYzJwYS5vcGVuZWRqcGFyYW1ldGVyc6FraW5ncmVkaWVudHOBomN1cmx4LXNlbGYjanVtYmY9YzJwYS5hc3NlcnRpb25zL2MycGEuaW5ncmVkaWVudC52M2RoYXNoWCCbrrnFVdXgSkn4KHqt1tIYP5yRtLZ4Z6Yi6bmRdWxG4KRmYWN0aW9ubGMycGEuY3JlYXRlZGpwYXJhbWV0ZXJzoWtpbmdyZWRpZW50c4GiY3VybHgtc2VsZiNqdW1iZj1jMnBhLmFzc2VydGlvbnMvYzJwYS5pbmdyZWRpZW50LnYzZGhhc2hYIJuuucVV1eBKSfgoeq3W0hg/nJG0tnhnpiLpuZF1bEbgcWRpZ2l0YWxTb3VyY2VUeXBleEFodHRwOi8vY3YuaXB0Yy5vcmcvbmV3c2NvZGVzL2RpZ2l0YWxzb3VyY2V0eXBlL2NvbXBvc2l0ZVN5bnRoZXRpY2tkZXNjcmlwdGlvbngfQ29tcG9zZWQgaW4gdGhlIFJlY3JhZnQgZWRpdG9yLgAAASdqdW1iAAAAQGp1bWRjYm9yABEAEIAAAKoAOJtxE2MycGEuaGFzaC5kYXRhAAAAABhjMnNoLfjPjTeHl9yE6NfnfDGUwgAAAN9jYm9ypWpleGNsdXNpb25zgaJlc3RhcnQYqWZsZW5ndGgZMgpkbmFtZW5qdW1iZiBtYW5pZmVzdGNhbGdmc2hhMjU2ZGhhc2hYIH9ZXsFG9a+bH4U6oaEKUgo1GCoZt0Em3EHsVkXShF+7Y3BhZFhrAAAAAAAAAAAAAAAAAAAAAAAAAAAAAAAAAAAAAAAAAAAAAAAAAAAAAAAAAAAAAAAAAAAAAAAAAAAAAAAAAAAAAAAAAAAAAAAAAAAAAAAAAAAAAAAAAAAAAAAAAAAAAAAAAAAAAAAAAAAAAAAAAAKWanVtYgAAACdqdW1kYzJjbAARABCAAACqADibcQNjMnBhLmNsYWltLnYyAAAAAmdjYm9yp2ppbnN0YW5jZUlEeCx4bXA6aWlkOjUyMTZjZWRhLTVhM2EtNGQ4ZS04MWFjLTMzOTQ4MWFhMDIwM3RjbGFpbV9nZW5lcmF0b3JfaW5mb6NkbmFtZWpyZWNyYWZ0LmFpZ3ZlcnNpb254KDgxY2U4MmUyYzVjM2NiZmJlOGM2ZmJlMTc5ZDVmOGQ5MWM0MDljZTF3b3JnLmNvbnRlbnRhdXRoLmMycGFfcnNmMC45MC43aXNpZ25hdHVyZXhNc2VsZiNqdW1iZj0vYzJwYS91cm46YzJwYTozM2M3MmVhMy00OTQ3LTQxMzgtYmRiNi02MmRmM2M2ZTRiODIvYzJwYS5zaWduYXR1cmVyY3JlYXRlZF9hc3NlcnRpb25zgqJjdXJseCpzZWxmI2p1bWJmPWMycGEuYXNzZXJ0aW9ucy9jMnBhLmFjdGlvbnMudjJkaGFzaFggPY4u3UzYVuPxxmZ4qkt8ADg4Z2gB92GkZluRv+7CHfeiY3VybHgpc2VsZiNqdW1iZj1jMnBhLmFzc2VydGlvbnMvYzJwYS5oYXNoLmRhdGFkaGFzaFggJBwQidAbvZgbBVuM2s49gBVDRdP3ZCzSHPQpfg92UflzZ2F0aGVyZWRfYXNzZXJ0aW9uc4GiY3VybHgtc2VsZiNqdW1iZj1jMnBhLmFzc2VydGlvbnMvYzJwYS5pbmdyZWRpZW50LnYzZGhhc2hYIJuuucVV1eBKSfgoeq3W0hg/nJG0tnhnpiLpuZF1bEbgaGRjOnRpdGxlbVJlY3JhZnQgSW1hZ2VjYWxnZnNoYTI1NgAAB9xqdW1iAAAAKGp1bWRjMmNzABEAEIAAAKoAOJtxA2MycGEuc2lnbmF0dXJlAAAAB6xjYm9y0oRZA7CiASYYIYJZAecwggHjMIIBiaADAgECAgkAt95aY0NRbnowCgYIKoZIzj0EAwIwQDEfMB0GA1UEAwwWUmVjcmFmdCBTdGFnaW5nIERldiBDQTEQMA4GA1UECgwHUmVjcmFmdDELMAkGA1UEBhMCVVMwHhcNMjYwNjEyMTk0MzUwWhcNMjcwNjEyMTk0MzUwWjA3MQswCQYDVQQGEwJVUzETMBEGA1UEChMKUmVjcmFmdCBBSTETMBEGA1UEAxMKcmVjcmFmdC5haTBZMBMGByqGSM49AgEGCCqGSM49AwEHA0IABEppNVsAKyD8N4bct47Fh0gP9UDoQUbvcTo6Sdv4oiIIUnKBFTPi543bP+3aphvoIhS9LxG+A6KIKV+iqxi3DzWjdTBzMAwGA1UdEwEB/wQCMAAwDgYDVR0PAQH/BAQDAgbAMBMGA1UdJQQMMAoGCCsGAQUFBwMEMB0GA1UdDgQWBBQvMekF6f3pIvXLgg8drwyQyyFd/TAfBgNVHSMEGDAWgBQCCyo4Gsqql0r/+b+TFmjtlHh5tzAKBggqhkjOPQQDAgNIADBFAiBTyEpbRpe++TxJCBUU2RrHr1ib1p7waxPZFlNDD4HnUAIhALQPgGQShEPg3SvZlGQ3LQdlpbdYgLL9BkY33mKUXjLMWQG9MIIBuTCCAV+gAwIBAgIJAJz5aDtPoBNvMAoGCCqGSM49BAMCMEAxHzAdBgNVBAMMFlJlY3JhZnQgU3RhZ2luZyBEZXYgQ0ExEDAOBgNVBAoMB1JlY3JhZnQxCzAJBgNVBAYTAlVTMB4XDTI2MDYxMjE5NDAxNloXDTI4MDYxMTE5NDAxNlowQDEfMB0GA1UEAwwWUmVjcmFmdCBTdGFnaW5nIERldiBDQTEQMA4GA1UECgwHUmVjcmFmdDELMAkGA1UEBhMCVVMwWTATBgcqhkjOPQIBBggqhkjOPQMBBwNCAARD0hAGVxVspoo9itBJ86Ev/TSzvFQMLtGKci4s78jWT33L3KHqhYX2Q/Fo/63HW/U944vfKtWq4nvfQfRkaIPKo0IwQDAPBgNVHRMBAf8EBTADAQH/MA4GA1UdDwEB/wQEAwIBhjAdBgNVHQ4EFgQUAgsqOBrKqpdK//m/kxZo7ZR4ebcwCgYIKoZIzj0EAwIDSAAwRQIgVDA0iYuVgN5CGOAX5mKpNuBy7NKqY4nDdDaVD+G7zcUCIQD07xwub/F+hUuoHiO11u4fOLdYv6nZE34NEaTClizBW6FjcGFkWQOkAAAAAAAAAAAAAAAAAAAAAAAAAAAAAAAAAAAAAAAAAAAAAAAAAAAAAAAAAAAAAAAAAAAAAAAAAAAAAAAAAAAAAAAAAAAAAAAAAAAAAAAAAAAAAAAAAAAAAAAAAAAAAAAAAAAAAAAAAAAAAAAAAAAAAAAAAAAAAAAAAAAAAAAAAAAAAAAAAAAAAAAAAAAAAAAAAAAAAAAAAAAAAAAAAAAAAAAAAAAAAAAAAAAAAAAAAAAAAAAAAAAAAAAAAAAAAAAAAAAAAAAAAAAAAAAAAAAAAAAAAAAAAAAAAAAAAAAAAAAAAAAAAAAAAAAAAAAAAAAAAAAAAAAAAAAAAAAAAAAAAAAAAAAAAAAAAAAAAAAAAAAAAAAAAAAAAAAAAAAAAAAAAAAAAAAAAAAAAAAAAAAAAAAAAAAAAAAAAAAAAAAAAAAAAAAAAAAAAAAAAAAAAAAAAAAAAAAAAAAAAAAAAAAAAAAAAAAAAAAAAAAAAAAAAAAAAAAAAAAAAAAAAAAAAAAAAAAAAAAAAAAAAAAAAAAAAAAAAAAAAAAAAAAAAAAAAAAAAAAAAAAAAAAAAAAAAAAAAAAAAAAAAAAAAAAAAAAAAAAAAAAAAAAAAAAAAAAAAAAAAAAAAAAAAAAAAAAAAAAAAAAAAAAAAAAAAAAAAAAAAAAAAAAAAAAAAAAAAAAAAAAAAAAAAAAAAAAAAAAAAAAAAAAAAAAAAAAAAAAAAAAAAAAAAAAAAAAAAAAAAAAAAAAAAAAAAAAAAAAAAAAAAAAAAAAAAAAAAAAAAAAAAAAAAAAAAAAAAAAAAAAAAAAAAAAAAAAAAAAAAAAAAAAAAAAAAAAAAAAAAAAAAAAAAAAAAAAAAAAAAAAAAAAAAAAAAAAAAAAAAAAAAAAAAAAAAAAAAAAAAAAAAAAAAAAAAAAAAAAAAAAAAAAAAAAAAAAAAAAAAAAAAAAAAAAAAAAAAAAAAAAAAAAAAAAAAAAAAAAAAAAAAAAAAAAAAAAAAAAAAAAAAAAAAAAAAAAAAAAAAAAAAAAAAAAAAAAAAAAAAAAAAAAAAAAAAAAAAAAAAAAAAAAAAAAAAAAAAAAAAAAAAAAAAAAAAAAAAAAAAAAAAAAAAAAAAAAAAAAAAAAAAAAAAAAAAAAAAAAAAAAAAAAAAAAAAAAAAAAAAAAAAAAAAAAAAAAAAAAAAAAAAAAAAAAAAAAAAAAAAAAAAAAAAAAAAAAAAAAAAAAAAAAAAAAAAAAAAAAAAAD2WEAf58sZF9E3oOnOA9xsrnoiQeyKlqC2di9f9vAgXFXxoK5DkYn0t9J5KY02tYSLAmFCs3kxpNVUZOKGW2VIa5Wo</c2pa:manifest></metadata><path fill="#000001" d="M313.487 16.3452C322.2 16.7341 331.034 16.9563 339.698 17.3865C349.517 17.6489 358.993 19.8079 368.545 21.2081C380.38 22.9432 387.633 25.6424 398.608 30.0231C418.38 37.9154 433.163 49.6528 437.198 71.6739C439.861 86.2101 441.501 100.345 443.675 114.917C444.844 122.531 446.449 129.814 447.298 137.527C447.931 143.28 449.271 148.921 449.611 154.798C449.817 158.377 451.068 162.511 451.211 166.189C452.184 172.201 449.41 178.491 449.31 183.859C449.266 186.219 453.603 192.199 454.044 195.391C454.596 199.384 455.24 203.302 455.606 207.341C456.483 213.948 457.884 220.662 458.888 227.185L467.103 283.371C468.844 295.151 471.188 306.715 472.248 318.604C472.5 321.43 471.703 326.05 472.38 328.62C473.49 332.835 477.822 336.617 478.896 341.081C480.742 348.26 481.519 355.887 482.557 363.255C484.612 377.965 489.601 395.692 485.743 410.204C483.238 419.625 477.713 428.12 471.631 435.589C450.261 461.831 420.111 480.711 389.065 493.482C380.166 497.142 371.877 501.265 362.668 504.169C356.021 506.264 349.611 508.465 342.822 509.994C340.101 510.604 337.081 511.983 334.386 512.51C317.754 515.76 301.05 519.94 284.153 521.464C281.735 521.664 278.709 522.666 276.337 522.702C267.563 522.836 258.935 524.132 250.256 524.769C243.631 525.255 236.671 524.844 230.017 524.986C225.932 525.073 221.73 524.9 217.644 524.861C211.87 524.35 206.275 523.579 200.417 523.107C194.926 522.793 188.407 521.786 182.965 520.788C173.049 518.97 163.383 516.262 153.732 513.426C144.782 510.796 137.89 506.983 129.751 502.48C124.692 499.699 118.134 497.411 113.65 493.669C109.333 489.644 103.529 484.508 100.145 479.708C95.1412 472.611 92.6677 459.92 90.8406 451.554L86.2898 430.283C84.953 423.805 83.1315 416.816 82.5612 410.282C82.105 405.057 83.6465 401.594 84.5773 396.628C83.1959 392.995 81.5825 389.978 80.2769 386.106C78.9448 382.155 79.0113 378.346 78.039 374.901C75.3748 365.462 73.6447 355.906 71.3253 346.369C70.7914 344.174 70.6538 341.507 70.1157 339.289C68.3762 332.119 66.8297 324.948 65.0664 317.787C63.9279 313.162 63.1465 308.145 62.0644 303.474C61.5588 300.27 60.0587 297.028 59.4324 293.901C58.1974 287.736 55.9896 281.501 54.8622 275.373C53.8623 269.938 54.7091 263.891 54.6889 258.368C52.4653 255.174 49.147 251.166 47.849 247.636C45.4352 241.072 43.9238 233.901 42.2977 227.103L34.2935 192.343C33.3878 188.327 31.8607 183.839 31.0451 180.021C29.0776 170.809 26.463 160.203 25.6655 150.918C24.9394 142.465 27.7841 128.812 31.3398 120.982C32.7104 117.964 37.1584 112.504 39.3671 109.909C41.4707 107.253 44.3491 104.951 46.5674 102.479C57.8497 89.9059 71.2836 80.9454 86.1781 73.2147C91.6047 70.3981 96.9136 66.6087 102.553 63.9368C111.054 59.9086 119.619 55.8212 128.401 52.3809C130.912 51.3877 133.614 50.6643 136.169 49.7009C145.927 45.9406 155.811 42.5178 165.804 39.4387C168.729 38.5657 171.772 38.0919 174.723 37.236C180.105 35.6748 185.482 34.0899 190.87 32.5458C192.075 32.2002 193.913 31.5727 195.095 31.3922C209.644 29.17 224.024 24.8912 238.6 22.8928C255.011 20.6426 271.461 18.5988 287.976 17.266C296.363 16.6161 305.041 16.9202 313.487 16.3452Z"/><defs><linearGradient id="gradient_0" gradientUnits="userSpaceOnUse" x1="442.12885" y1="372.58524" x2="202.68399" y2="198.97513"><stop offset="0" stop-color="#03B560"/><stop offset="1" stop-color="#01E173"/></linearGradient></defs><path fill="url(#gradient_0)" d="M178.608 52.822C182.056 51.936 185.486 50.7466 188.97 49.856C212.386 43.8711 236.267 38.9941 260.259 36.0802C270.86 34.7926 281.263 34.1606 291.879 33.5215C301.461 32.8843 311.067 32.7151 320.665 33.0146C323.725 33.0976 328.228 33.1325 331.176 33.4787C337.703 33.5322 345.338 34.2518 351.882 35.3213C373.824 38.9073 400.513 43.4126 415.525 61.403C417.35 63.5894 419.163 67.0667 419.98 69.8578C423.559 90.7709 426.6 112.121 429.608 133.104L433.696 159.934C434.188 163.361 435.077 169.455 435.214 172.672C435.379 176.564 429.335 186.318 426.835 189.467C423.94 193.27 420.693 196.87 417.56 200.491C417.136 201.465 417.021 201.472 417.554 202.725C418.493 204.929 418.133 215.96 419.442 217.166C420.181 216.267 420.373 216.029 421.253 215.291C422.544 213.571 426.274 209.683 427.872 207.92C428.386 209.714 428.881 211.76 429.471 213.491C431.063 219.853 430.957 224.95 433.008 231.953C433.283 233.21 433.764 235.161 433.917 236.37C434.734 242.769 435.185 246.828 436.88 253.148L437.167 254.828C437.548 257.246 437.569 260.545 437.853 263.208C438.199 266.462 439.014 269.968 439.341 273.069C439.73 274.323 440.052 276.826 440.19 278.176C441.688 279.336 448.943 285.134 450.629 282.714C451.764 288.245 457.172 321.571 456.608 324.527C455.755 328.992 452.578 333.629 450.342 337.558C448.655 340.153 446.916 342.517 445.093 345.013C444.623 345.643 443.708 346.952 443.219 347.482C442.711 350.341 439.809 352.85 437.261 353.993C436.121 354.511 425.243 363.015 423.994 364.594C423.766 364.882 423.714 367.184 423.69 367.834C423.95 369.508 424.947 377.304 425.686 378.113C427.006 376.921 432.878 372.387 434.293 371.466C437.459 368.934 444.097 363.02 446.616 359.875C448.462 358.528 451.042 355.812 452.739 354.127C454.962 351.933 457.934 348.089 458.599 345.031C458.741 344.376 458.671 342.321 458.661 341.552C461.387 344.212 462.372 346.133 463.232 349.797L469.393 388.24C469.945 391.715 471.91 399.35 471.507 402.261C470.614 408.708 465.865 416.759 462.149 421.982C458.247 427.402 453.789 432.399 448.846 436.89C446.951 438.527 441.277 443.23 439.839 444.787C437.899 446.744 430.079 452.511 427.461 453.995C423.76 456.887 416.872 460.83 412.737 463.193C381.443 481.076 348.078 492.111 312.88 499.294C310.757 499.727 298.064 502.198 296.419 502.213C291.466 503.396 285.745 503.704 280.621 504.392C248.579 508.93 216.037 508.644 184.079 503.543C183.96 503.38 183.014 502.133 182.943 502.124C180.964 501.872 177.486 501.793 175.649 501.376C168.036 499.647 160.022 498.04 152.648 495.562C144.573 493.387 126.822 485.049 120.933 479.282C118.048 477.289 112.927 471.694 111.489 468.433C109.975 464.999 109.535 459.246 108.564 455.44C106.388 446.556 104.202 437.523 102.403 428.555C101.219 422.652 98.174 413.312 100.377 407.694C101.747 409.098 102.778 410.212 104.339 411.407C113.836 418.107 129.043 423.674 140.1 427.782C145.058 429.623 154.733 431.162 160.056 432.051C176.376 433.861 192.484 436.015 208.938 435.744C210.643 435.716 212.637 435.732 214.341 435.816C214.492 435.402 214.727 434.774 214.614 434.359C213.575 430.528 212.27 427.001 211.465 423.098C209.343 423.013 207.214 422.963 205.107 422.7C204.194 422.812 200.131 422.741 199.082 422.703C195.239 422.566 189.912 422.893 186.157 422.371C176.128 420.978 165.907 419.439 155.978 417.476C151.539 416.598 146.534 415.939 142.405 414.219L136.792 412.456C132.958 411.29 129.732 410.247 125.927 408.902C122.416 407.417 117.317 405.398 114.412 403.224C113.086 402.43 111.783 401.599 110.504 400.732C106.086 397.763 99.9585 392.592 97.3383 387.741C96.5854 386.347 95.4209 380.185 94.9975 378.323L91.0883 361.172L83.5401 327.784C81.7979 320.242 79.8321 312.539 78.3262 304.957C77.5832 302.486 76.7667 298.268 76.1362 295.619L71.2725 274.751C74.3012 274.917 76.0136 277.108 78.3078 279.066C80.7051 280.301 85.4395 283.734 87.2525 285.798L87.2191 284.612L87.017 280.651C88.141 280.062 88.8893 279.942 89.0954 278.656C88.614 277.644 88.5305 277.595 87.7272 276.78C93.5709 278.79 98.8163 281.847 104.104 283.592C114.246 286.94 127.228 288.602 137.869 289.849C140.237 290.127 144.759 290.701 147.003 290.779C148.538 290.641 152.559 291.01 153.441 290.173C153.971 288.711 152.754 282.224 151.787 280.798C150.098 278.307 146.462 275.811 143.574 275.057C141.872 274.745 140.101 274.549 138.375 274.426C128.884 273.754 119.807 272.313 110.579 269.886C108.127 269.165 105.35 268.603 102.836 268.038C99.4311 267.252 93.0409 265.701 90.2461 263.745C87.4334 262.533 82.9205 259.834 79.8871 258.28C73.5258 255.248 65.2372 249.667 63.4277 242.501C60.6096 231.34 58.1389 219.942 55.4793 208.728L47.6617 176.533C46.7065 172.563 43.5006 160.971 43.7708 157.671C42.2314 153.799 40.6364 149.292 40.8569 145.069C41.2325 137.876 44.2716 131.091 48.5039 125.395C50.2675 122.573 58.4184 113.245 60.9938 111.188C62.4627 109.419 65.6778 106.825 67.5161 105.371C74.4988 99.035 83.6876 93.7728 91.7266 88.9444C118.602 72.8026 148.502 61.3794 178.608 52.822Z"/><path fill="#F7F9F9" d="M178.608 52.822C182.056 51.936 185.486 50.7466 188.97 49.856C212.386 43.8711 236.267 38.9941 260.259 36.0802C270.86 34.7926 281.263 34.1606 291.879 33.5215C301.461 32.8843 311.067 32.7151 320.665 33.0146C323.725 33.0976 328.228 33.1325 331.176 33.4787C337.703 33.5322 345.338 34.2518 351.882 35.3213C373.824 38.9073 400.513 43.4126 415.525 61.403C417.35 63.5894 419.163 67.0667 419.98 69.8578C423.559 90.7709 426.6 112.121 429.608 133.104L433.696 159.934C434.188 163.361 435.077 169.455 435.214 172.672C435.379 176.564 429.335 186.318 426.835 189.467C423.94 193.27 420.693 196.87 417.56 200.491L416.815 200.852C415.775 200.632 416.083 200.681 415.188 199.841C414.934 200.008 413.842 201.114 413.295 201.516C408.936 204.722 405.468 208.467 401.567 212.065C399.022 214.413 393.896 217.867 390.895 219.791C391.845 217.48 392.747 215.472 392.477 212.911C392.119 209.515 390.035 206.218 389.329 202.836C388.213 197.489 386.956 192.053 386.009 186.685C385.171 181.941 384.62 177.125 383.647 172.407C382.648 167.567 381.112 162.834 379.967 158.025C379.001 153.971 378.289 149.925 377.089 145.921C376.511 143.994 373.302 132.904 371.76 132.332C371.026 132.06 370.585 132.508 369.972 132.853L369.626 132.309L369.202 132.505C367.229 133.432 363.841 135.6 361.737 136.794C358.059 138.861 354.302 140.786 350.476 142.563C331.794 151.32 312.772 158.236 293.179 164.577C286.793 166.644 280.45 168.496 273.946 170.161C260.406 173.588 246.784 176.68 233.091 179.433C230.076 180.041 221.85 180.74 219.621 181.549C216.063 182.078 212.446 182.627 208.872 183.027C181.439 186.091 153.389 188.654 125.832 186.199C112.523 184.904 102.327 183.857 89.0707 180.904C87.6793 180.418 85.915 179.929 84.4849 179.54C75.5118 177.103 67.4671 173.953 58.9879 170.216C58.475 169.692 55.6851 168.083 54.9058 167.555C50.7316 164.727 47.31 161.21 43.7708 157.671C42.2314 153.799 40.6364 149.292 40.8569 145.069C41.2325 137.876 44.2716 131.091 48.5039 125.395C50.2675 122.573 58.4184 113.245 60.9938 111.188C62.4627 109.419 65.6778 106.825 67.5161 105.371C74.4988 99.035 83.6876 93.7728 91.7266 88.9444C118.602 72.8026 148.502 61.3794 178.608 52.822Z"/><defs><linearGradient id="gradient_1" gradientUnits="userSpaceOnUse" x1="220.3183" y1="64.709755" x2="240.0473" y2="143.30557"><stop offset="0" stop-color="#000A07"/><stop offset="1" stop-color="#011E14"/></linearGradient></defs><path fill="url(#gradient_1)" d="M245.122 60.0617C272.707 55.2704 337.057 50.0884 360.73 66.6568C363.752 68.7719 365.979 71.6607 367.68 74.9027C368.482 78.0253 368.557 79.5917 367.624 82.7901C364.899 90.3612 357.447 97.4504 350.837 101.675C344.868 105.417 339.747 108.389 333.724 111.865C328.155 114.686 322.495 117.321 316.752 119.768C307.691 123.312 298.046 127.384 288.899 130.487C269.122 137.005 248.928 142.185 228.455 145.992C218.059 147.962 206.059 149.984 195.548 151.04C182.518 152.265 169.434 152.83 156.346 152.733C138.735 152.631 109.881 150.899 96.0615 139.148L95.9175 138.967C93.0411 135.272 92.1756 132.587 92.7701 127.988C97.0872 117.757 103.006 111.238 112.305 105.242C151.064 80.2503 200.145 67.6082 245.122 60.0617Z"/><path fill="#04391D" d="M279.635 121.398L280.103 121.469C279.125 122.31 275.368 123.029 273.956 123.44C254.073 129.292 233.81 133.769 213.311 136.837C211.973 137.036 206.33 137.98 205.324 137.743C207.465 137.369 209.613 137.037 211.768 136.748C216.406 136.018 221.021 135.267 225.674 134.504C228.087 134.108 228.921 133.209 231.152 133.328C232.339 133.197 236.222 128.99 237.089 128.697C242.361 126.918 245.345 123.77 250.849 126.608C252.305 127.359 255.168 124.384 257.853 127.38C258.997 127.359 259.468 126.704 260.47 126.496C266.538 125.235 273.873 123.599 279.635 121.398Z"/><path fill="#06E58E" d="M316.752 119.768C319.32 122.217 323.225 124.636 326.218 126.864C330.489 130.044 334.779 134.664 339.405 137.083C340.535 137.675 340.894 137.532 341.614 138.604C325.417 146.93 302.187 155.11 284.698 160.01C233.478 174.36 179.726 182.822 126.445 179.459C119.421 179.011 112.284 177.605 105.345 176.518C86.3557 173.541 60.2846 167.131 49.8879 149.44C52.6837 148.114 56.2149 147.146 59.2202 146.174C68.0177 143.328 77.4454 140.684 86.5792 139.23C89.5151 138.763 93.0968 138.982 96.0615 139.148C109.881 150.899 138.735 152.631 156.346 152.733C169.434 152.83 182.518 152.265 195.548 151.04C206.059 149.984 218.059 147.962 228.455 145.992C248.928 142.185 269.122 137.005 288.899 130.487C298.046 127.384 307.691 123.312 316.752 119.768Z"/><path fill="#1AE9B4" d="M233.89 43.9875C240.691 44.4693 246.727 42.0598 253.298 41.0656C254.589 40.8703 257.445 43.194 259.023 42.9823C261.002 42.7082 265.546 41.3126 267.387 42.3861L267.658 42.9149C267.296 43.0526 266.99 43.1601 266.621 43.2772C266.331 46.0441 265.921 47.0914 267.284 49.5103C266.172 53.7269 265.587 52.815 268.124 56.3519C269.039 55.7379 244.777 59.6416 243.854 59.7267C244.295 59.86 244.673 59.9545 245.122 60.0617C200.145 67.6082 151.064 80.2503 112.305 105.242C103.006 111.238 97.0872 117.757 92.7701 127.988L92.2775 127.93C91.4516 128.675 88.6812 131.033 87.632 131.216C78.3575 132.834 69.1943 134.888 59.9526 136.691C55.9775 137.467 52.0732 138.943 47.9914 139.093C48.7862 135.681 49.2665 134.231 50.5895 131.02C50.6822 129.24 53.2461 124.737 54.559 123.427L54.4642 123.045C53.2481 122.591 53.0178 122.365 52.755 121.137C50.8455 122.385 50.7045 124.714 48.5039 125.395C50.2675 122.573 58.4184 113.245 60.9938 111.188C62.4627 109.419 65.6778 106.825 67.5161 105.371C74.4988 99.035 83.6876 93.7728 91.7266 88.9444C118.602 72.8026 148.502 61.3794 178.608 52.822C179.086 53.7516 179.605 54.5735 180.15 55.4598C186.038 54.6886 190.795 53.3129 196.52 51.8167C205.156 49.5595 213.682 47.6243 222.502 46.2429C226.329 45.6434 229.916 44.4389 233.89 43.9875Z"/><path fill="#9DF6F3" d="M60.9938 111.188C62.3077 110.664 63.2386 109.824 64.6985 110.421C64.5975 111.352 63.0257 113.135 62.3528 114.632C59.5409 117.904 56.9577 120.836 54.4852 124.396C53.619 125.642 51.2125 130.531 50.5895 131.02C50.6822 129.24 53.2461 124.737 54.559 123.427L54.4642 123.045C53.2481 122.591 53.0178 122.365 52.755 121.137C50.8455 122.385 50.7045 124.714 48.5039 125.395C50.2675 122.573 58.4184 113.245 60.9938 111.188Z"/><path fill="#3AC5B9" d="M60.9938 111.188C62.4627 109.419 65.6778 106.825 67.5161 105.371C67.6697 106.39 67.8041 107.269 68.023 108.275C66.441 110.372 64.3159 112.891 62.3528 114.632C63.0257 113.135 64.5975 111.352 64.6985 110.421C63.2386 109.824 62.3077 110.664 60.9938 111.188Z"/><defs><linearGradient id="gradient_2" gradientUnits="userSpaceOnUse" x1="377.8519" y1="162.29417" x2="423.16119" y2="153.67216"><stop offset="0" stop-color="#008D3A"/><stop offset="1" stop-color="#043850"/></linearGradient></defs><path fill="url(#gradient_2)" d="M369.626 132.309C379.681 125.868 389.173 119.759 397.872 111.522C400.221 109.297 402.563 107.075 404.847 104.784C407.99 101.869 410.231 98.0207 413.255 95.1222C413.284 101.019 415.284 110.343 416.28 116.462C418.936 132.701 421.486 148.958 423.931 165.231C424.852 171.694 425.961 178.686 426.465 185.199C426.539 186.166 426.31 186.956 425.833 187.801C426.195 188.472 426.362 188.864 426.835 189.467C423.94 193.27 420.693 196.87 417.56 200.491L416.815 200.852C415.775 200.632 416.083 200.681 415.188 199.841C414.934 200.008 413.842 201.114 413.295 201.516C408.936 204.722 405.468 208.467 401.567 212.065C399.022 214.413 393.896 217.867 390.895 219.791C391.845 217.48 392.747 215.472 392.477 212.911C392.119 209.515 390.035 206.218 389.329 202.836C388.213 197.489 386.956 192.053 386.009 186.685C385.171 181.941 384.62 177.125 383.647 172.407C382.648 167.567 381.112 162.834 379.967 158.025C379.001 153.971 378.289 149.925 377.089 145.921C376.511 143.994 373.302 132.904 371.76 132.332C371.026 132.06 370.585 132.508 369.972 132.853L369.626 132.309Z"/><path fill="#9DF6F3" d="M415.188 199.841C416.867 198.131 418.693 195.548 420.289 193.657C422.142 191.46 423.796 189.81 425.833 187.801C426.195 188.472 426.362 188.864 426.835 189.467C423.94 193.27 420.693 196.87 417.56 200.491L416.815 200.852C415.775 200.632 416.083 200.681 415.188 199.841Z"/><path fill="#55FAE6" d="M178.608 52.822C182.056 51.936 185.486 50.7466 188.97 49.856C212.386 43.8711 236.267 38.9941 260.259 36.0802C270.86 34.7926 281.263 34.1606 291.879 33.5215C301.461 32.8843 311.067 32.7151 320.665 33.0146C323.725 33.0976 328.228 33.1325 331.176 33.4787C327.837 34.4364 319.262 33.406 315.061 33.6067C321.418 37.6314 325.088 37.8717 332.274 37.8294C334.119 37.8185 337.114 39.7321 339.047 39.9061C341.309 40.3052 345.377 39.9205 347.407 40.2926C367.891 40.8493 390.165 46.7847 405.227 61.597C406.676 63.0223 409.495 66.3131 409.043 68.4014C408.388 68.9105 405.862 69.285 405.015 69.3484C395.284 70.0769 385.792 72.7565 376.215 74.1654C373.385 74.5616 370.536 74.8077 367.68 74.9027C365.979 71.6607 363.752 68.7719 360.73 66.6568C337.057 50.0884 272.707 55.2704 245.122 60.0617C244.673 59.9545 244.295 59.86 243.854 59.7267C244.777 59.6416 269.039 55.7379 268.124 56.3519C265.587 52.815 266.172 53.7269 267.284 49.5103C265.921 47.0914 266.331 46.0441 266.621 43.2772C266.99 43.1601 267.296 43.0526 267.658 42.9149L267.387 42.3861C265.546 41.3126 261.002 42.7082 259.023 42.9823C257.445 43.194 254.589 40.8703 253.298 41.0656C246.727 42.0598 240.691 44.4693 233.89 43.9875C229.916 44.4389 226.329 45.6434 222.502 46.2429C213.682 47.6243 205.156 49.5595 196.52 51.8167C190.795 53.3129 186.038 54.6886 180.15 55.4598C179.605 54.5735 179.086 53.7516 178.608 52.822Z"/><path fill="#9DF6F3" d="M178.608 52.822C182.056 51.936 185.486 50.7466 188.97 49.856C212.386 43.8711 236.267 38.9941 260.259 36.0802C270.86 34.7926 281.263 34.1606 291.879 33.5215C301.461 32.8843 311.067 32.7151 320.665 33.0146C323.725 33.0976 328.228 33.1325 331.176 33.4787C327.837 34.4364 319.262 33.406 315.061 33.6067C321.418 37.6314 325.088 37.8717 332.274 37.8294C334.119 37.8185 337.114 39.7321 339.047 39.9061C341.309 40.3052 345.377 39.9205 347.407 40.2926C344.092 40.4183 340.31 40.5473 336.842 41.2611C331.681 42.3234 322.4 50.7314 317.485 47.3011C316.012 46.2724 312.4 38.9772 311.138 38.4908C309.41 38.9357 308.171 37.9356 306.328 37.7304C297.418 36.6618 288.34 38.8292 279.5 39.3541C274.583 39.6461 268.905 40.0679 264.073 40.0343C256.1 39.9787 249.671 40.74 241.928 42.7236C239.495 43.3469 236.374 43.2942 233.89 43.9875C229.916 44.4389 226.329 45.6434 222.502 46.2429C213.682 47.6243 205.156 49.5595 196.52 51.8167C190.795 53.3129 186.038 54.6886 180.15 55.4598C179.605 54.5735 179.086 53.7516 178.608 52.822Z"/><path fill="#9DF6F3" d="M367.624 82.7901C370.688 84.9143 381.526 83.0224 385.383 82.8245C389.938 82.5908 395.278 81.7954 399.841 81.636C402.002 81.5606 408.654 79.683 408.959 82.5063C409.364 86.247 405.156 90.8549 403.249 93.9652C398.231 101.405 391.369 107.157 384.343 112.586C383.65 113.121 380.621 115.63 380.087 115.856C380.154 115.44 380.119 115.502 380.053 115.068C375.581 114.341 353.763 104.835 350.837 101.675C357.447 97.4504 364.899 90.3612 367.624 82.7901Z"/><path fill="#1AE9B4" d="M350.837 101.675C353.763 104.835 375.581 114.341 380.053 115.068C380.119 115.502 380.154 115.44 380.087 115.856C372.566 121.324 368.95 123.782 360.736 128.242C358.399 129.729 343.424 138.134 341.614 138.604C340.894 137.532 340.535 137.675 339.405 137.083C334.779 134.664 330.489 130.044 326.218 126.864C323.225 124.636 319.32 122.217 316.752 119.768C322.495 117.321 328.155 114.686 333.724 111.865C339.747 108.389 344.868 105.417 350.837 101.675Z"/><path fill="#55FAE6" d="M333.724 111.865C335.882 111.763 336.878 110.937 338.693 109.81C339.449 110.569 340.367 111.324 340.532 112.411C340.801 114.17 341.34 115.769 340.607 117.484C339.696 117.894 337.091 115.651 336.539 115.007C337.177 118.132 348.04 121.209 351.033 122.757C353.62 124.095 356.732 126.58 359.244 127.552C359.755 127.752 360.253 127.983 360.736 128.242C358.399 129.729 343.424 138.134 341.614 138.604C340.894 137.532 340.535 137.675 339.405 137.083C334.779 134.664 330.489 130.044 326.218 126.864C323.225 124.636 319.32 122.217 316.752 119.768C322.495 117.321 328.155 114.686 333.724 111.865Z"/><defs><linearGradient id="gradient_3" gradientUnits="userSpaceOnUse" x1="104.30485" y1="354.57935" x2="248.04195" y2="319.03094"><stop offset="0" stop-color="#031210"/><stop offset="1" stop-color="#02AC56"/></linearGradient></defs><path fill="url(#gradient_3)" d="M43.7708 157.671C47.31 161.21 50.7316 164.727 54.9058 167.555C55.6851 168.083 58.475 169.692 58.9879 170.216C67.4671 173.953 75.5118 177.103 84.4849 179.54C85.915 179.929 87.6793 180.418 89.0707 180.904C102.327 183.857 112.523 184.904 125.832 186.199C153.389 188.654 181.439 186.091 208.872 183.027C212.446 182.627 216.063 182.078 219.621 181.549C219.641 181.705 219.686 181.859 219.68 182.017C219.665 182.475 219.437 183.017 219.3 183.447C218.925 184.621 219.915 187.706 220.174 188.996C221.105 193.619 221.878 198.282 223.084 202.845C224.719 209.03 226.867 215.061 228.464 221.266C230.088 227.575 231.216 234.004 232.785 240.329C234.403 246.856 236.481 253.284 238.207 259.789C239.416 264.348 240.428 275.21 242.074 278.399C242.278 278.794 242.217 278.634 242.228 279.123L241.959 279.168C240.111 277.084 239.293 266.245 238.452 262.796C236.558 255.008 233.844 247.273 232.051 239.474C229.387 227.883 226.964 216.245 223.08 204.969C221.72 201.02 219.106 183.593 217.318 182.276C213.259 182.049 214.428 186.071 214.763 188.652C214.989 190.401 215.19 192.069 215.319 193.833L215.86 192.959L216.225 192.954C216.935 194.635 216.096 195.501 217.275 197.582C220.872 203.644 220.306 209.903 219.17 216.591C218.766 218.968 218.119 221.04 218.225 223.562C218.708 235.113 227.283 245.751 223.926 257.489C223.651 258.451 223.959 259.36 223.813 260.331C222.699 267.727 226.081 273.352 229.207 279.707C229.901 281.118 230.353 284.052 231.7 284.792C234.501 284.446 240.845 279.569 243.73 279.688C242.702 280.382 241.594 280.922 240.483 281.467C234.291 284.506 228.103 287.549 221.62 289.929C217.616 291.373 213.589 292.753 209.541 294.07C204.346 295.778 195.329 297.926 191.464 301.798C188.231 305.037 188.05 309.743 186.476 312.962C185.546 313.983 185.473 315.712 185.113 316.949C181.928 320.173 172.956 319.242 172.492 321.499C175.837 324.193 195.574 323.332 200.293 322.929C200.074 336.774 204.488 349.387 213.887 359.825C216.458 362.68 220.71 365.493 223.879 367.786C220.322 368.859 219.156 370.224 217.031 371.02L216.053 371.533C213.89 372.56 213.72 372.744 211.977 374.501C214.726 374.284 215.88 374.077 218.534 373.602C217.93 374.81 217.918 374.398 218.096 375.534C219.947 378.27 232.713 378.371 235.814 377.663L235.785 377.862L235.018 378.204C234.914 379.467 236.04 380.633 236.481 381.806C237.778 385.26 238.309 389.038 239.702 392.424C240.079 393.342 240.689 394.072 241.328 394.819C242.976 396.745 245.002 398.519 246.298 400.7C247.59 402.876 253.533 412.803 253.181 414.692C253.098 415.141 252.851 415.637 252.679 416.063C253.213 418.18 253.294 420.665 253.712 422.323C254.253 424.466 256.149 424.156 256.589 427.254C258.277 429.024 262.366 432.561 264.903 432.331C265.526 432.275 266.116 432.657 266.647 432.946L267.33 432.89C267.903 430.394 274.637 418.251 276.573 417.628C271.555 425.702 263.816 434.666 269.68 444.28C272.911 441.99 274.043 440.415 276.581 437.32C276.447 441.108 269.245 444.633 268.653 445.671C270.627 447.415 279.302 448.841 279.176 446.205C278.542 445.539 277.892 444.887 277.229 444.25L277.349 443.788C278.138 444.009 279.139 444.79 279.514 445.527C280.038 446.558 279.939 447.875 279.478 448.901C278.028 452.128 273.943 453.569 272.694 456.628C271.352 459.918 276.993 486.606 278.492 491.271C279.453 494.265 284.784 496.293 286.168 499.386C286.47 500.063 286.536 501.12 286.653 501.868L286.262 502.671C287.8 504.063 294.25 501.26 296.419 502.213C291.466 503.396 285.745 503.704 280.621 504.392C248.579 508.93 216.037 508.644 184.079 503.543C183.96 503.38 183.014 502.133 182.943 502.124C180.964 501.872 177.486 501.793 175.649 501.376C168.036 499.647 160.022 498.04 152.648 495.562C144.573 493.387 126.822 485.049 120.933 479.282C118.048 477.289 112.927 471.694 111.489 468.433C109.975 464.999 109.535 459.246 108.564 455.44C106.388 446.556 104.202 437.523 102.403 428.555C101.219 422.652 98.174 413.312 100.377 407.694C101.747 409.098 102.778 410.212 104.339 411.407C113.836 418.107 129.043 423.674 140.1 427.782C145.058 429.623 154.733 431.162 160.056 432.051C176.376 433.861 192.484 436.015 208.938 435.744C210.643 435.716 212.637 435.732 214.341 435.816C214.492 435.402 214.727 434.774 214.614 434.359C213.575 430.528 212.27 427.001 211.465 423.098C209.343 423.013 207.214 422.963 205.107 422.7C204.194 422.812 200.131 422.741 199.082 422.703C195.239 422.566 189.912 422.893 186.157 422.371C176.128 420.978 165.907 419.439 155.978 417.476C151.539 416.598 146.534 415.939 142.405 414.219L136.792 412.456C132.958 411.29 129.732 410.247 125.927 408.902C122.416 407.417 117.317 405.398 114.412 403.224C113.086 402.43 111.783 401.599 110.504 400.732C106.086 397.763 99.9585 392.592 97.3383 387.741C96.5854 386.347 95.4209 380.185 94.9975 378.323L91.0883 361.172L83.5401 327.784C81.7979 320.242 79.8321 312.539 78.3262 304.957C77.5832 302.486 76.7667 298.268 76.1362 295.619L71.2725 274.751C74.3012 274.917 76.0136 277.108 78.3078 279.066C80.7051 280.301 85.4395 283.734 87.2525 285.798L87.2191 284.612L87.017 280.651C88.141 280.062 88.8893 279.942 89.0954 278.656C88.614 277.644 88.5305 277.595 87.7272 276.78C93.5709 278.79 98.8163 281.847 104.104 283.592C114.246 286.94 127.228 288.602 137.869 289.849C140.237 290.127 144.759 290.701 147.003 290.779C148.538 290.641 152.559 291.01 153.441 290.173C153.971 288.711 152.754 282.224 151.787 280.798C150.098 278.307 146.462 275.811 143.574 275.057C141.872 274.745 140.101 274.549 138.375 274.426C128.884 273.754 119.807 272.313 110.579 269.886C108.127 269.165 105.35 268.603 102.836 268.038C99.4311 267.252 93.0409 265.701 90.2461 263.745C87.4334 262.533 82.9205 259.834 79.8871 258.28C73.5258 255.248 65.2372 249.667 63.4277 242.501C60.6096 231.34 58.1389 219.942 55.4793 208.728L47.6617 176.533C46.7065 172.563 43.5006 160.971 43.7708 157.671Z"/><path fill="#000001" d="M71.2725 274.751C74.3012 274.917 76.0136 277.108 78.3078 279.066C80.7051 280.301 85.4395 283.734 87.2525 285.798L87.2191 284.612C87.2797 283.8 87.2781 282.422 87.6074 281.775C89.1019 281.986 92.9853 283.882 94.7517 284.557C103.911 287.712 113.267 290.261 122.761 292.188L122.895 292.533C122.379 293.625 122.267 296.383 119.706 296.123C119.565 295.917 119.344 295.612 119.221 295.404C119.218 297.193 119.301 304.151 120.306 305.385C121.548 305.956 122.147 305.881 123.506 306.046C123.374 306.93 120.54 308.42 119.684 309.597C119.651 311.731 124.199 313.51 124.894 314.942C124.216 316.341 122.685 315.471 121.391 316.6C120.849 317.573 126.1 339.023 126.075 342.761C126.059 345.14 128.483 351.062 128.046 354.474C129.765 361.875 131.725 369.21 133.437 376.581C134.914 382.942 135.295 389.919 137.046 396.31C138.204 400.952 138.751 406.754 140.637 411.041L140.309 411.629C139.25 411.211 138.184 410.809 137.113 410.425C138.059 411.507 139.475 411.812 139.84 412.492C138.338 412.888 138.722 411.861 136.792 412.456C132.958 411.29 129.732 410.247 125.927 408.902C122.416 407.417 117.317 405.398 114.412 403.224C113.086 402.43 111.783 401.599 110.504 400.732C106.086 397.763 99.9585 392.592 97.3383 387.741C96.5854 386.347 95.4209 380.185 94.9975 378.323L91.0883 361.172L83.5401 327.784C81.7979 320.242 79.8321 312.539 78.3262 304.957C77.5832 302.486 76.7667 298.268 76.1362 295.619L71.2725 274.751Z"/><path fill="#E23AEF" d="M71.2725 274.751C74.3012 274.917 76.0136 277.108 78.3078 279.066C80.7051 280.301 85.4395 283.734 87.2525 285.798C88.248 291.824 89.6875 296.117 90.9837 301.877C93.4186 312.696 96.2082 323.585 97.7683 334.543C101.981 348.341 103.973 361.156 107.203 375.188C108.331 380.087 109.021 385.494 110.446 390.292C111.592 394.292 112.358 398.289 115.627 401.098C115.505 402.099 115.397 402.705 114.412 403.224C113.086 402.43 111.783 401.599 110.504 400.732C106.086 397.763 99.9585 392.592 97.3383 387.741C96.5854 386.347 95.4209 380.185 94.9975 378.323L91.0883 361.172L83.5401 327.784C81.7979 320.242 79.8321 312.539 78.3262 304.957C77.5832 302.486 76.7667 298.268 76.1362 295.619L71.2725 274.751Z"/><defs><linearGradient id="gradient_4" gradientUnits="userSpaceOnUse" x1="92.42672" y1="307.93289" x2="88.224861" y2="309.10522"><stop offset="0" stop-color="#67BADB"/><stop offset="1" stop-color="#7CAFE5"/></linearGradient></defs><path fill="url(#gradient_4)" d="M78.3078 279.066C80.7051 280.301 85.4395 283.734 87.2525 285.798C88.248 291.824 89.6875 296.117 90.9837 301.877C93.4186 312.696 96.2082 323.585 97.7683 334.543C95.5829 330.336 94.0541 327.584 92.0142 323.155C92.0075 322.251 91.2877 319.617 91.0502 318.627C89.0461 310.282 86.132 302.21 83.2435 294.143C82.1755 291.16 83.5044 288.24 82.4229 285.16C81.5631 282.712 79.8681 281.464 78.5753 279.484L78.3078 279.066Z"/><path fill="#9684F0" d="M71.2725 274.751C74.3012 274.917 76.0136 277.108 78.3078 279.066L78.5753 279.484C79.8681 281.464 81.5631 282.712 82.4229 285.16C83.5044 288.24 82.1755 291.16 83.2435 294.143C86.132 302.21 89.0461 310.282 91.0502 318.627C91.2877 319.617 92.0075 322.251 92.0142 323.155C90.9861 322.011 87.5348 314.904 87.1582 313.252C86.1007 307.928 85.5313 304.37 83.0103 299.512C81.2205 296.063 79.8356 289.627 80.504 285.797C80.8691 283.705 76.3031 277.949 73.8522 277.726C70.789 279.617 80.0847 301.683 78.3262 304.957C77.5832 302.486 76.7667 298.268 76.1362 295.619L71.2725 274.751Z"/><path fill="#024132" d="M87.2191 284.612C87.2797 283.8 87.2781 282.422 87.6074 281.775C89.1019 281.986 92.9853 283.882 94.7517 284.557C93.6654 287.72 96.324 288.339 97.4144 290.904C99.8263 296.578 101.083 302.783 103.039 308.575L103.952 311.456C104.275 312.291 104.611 312.809 104.349 313.632C103.708 314.436 102.479 314.67 101.45 315.004C102.637 315.66 105.211 316.535 105.747 317.803C106 318.402 105.922 319.129 105.749 319.737C105.281 321.385 108.451 332.125 109.248 334.285C109.876 336.018 110.654 337.693 111.572 339.292C112.162 340.32 113.452 342.256 113.743 343.282C113.322 343.802 113.278 343.757 112.648 344.028C111.09 351.215 116.428 365.032 118.127 372.981C118.718 373.977 123.481 393.86 123.558 396.276C123.601 397.626 123.291 399.755 122.893 401.137C122.718 401.744 122.607 402.425 121.95 402.622C121.584 402.732 121.32 402.762 120.948 402.825C120.702 403.316 120.696 403.172 120.664 403.675C118.895 402.956 117.298 402.021 115.627 401.098C112.358 398.289 111.592 394.292 110.446 390.292C109.021 385.494 108.331 380.087 107.203 375.188C103.973 361.156 101.981 348.341 97.7683 334.543C96.2082 323.585 93.4186 312.696 90.9837 301.877C89.6875 296.117 88.248 291.824 87.2525 285.798L87.2191 284.612Z"/><path fill="#031614" d="M118.127 372.981C118.718 373.977 123.481 393.86 123.558 396.276C123.601 397.626 123.291 399.755 122.893 401.137C122.718 401.744 122.607 402.425 121.95 402.622C121.584 402.732 121.32 402.762 120.948 402.825C120.702 403.316 120.696 403.172 120.664 403.675C118.895 402.956 117.298 402.021 115.627 401.098C112.358 398.289 111.592 394.292 110.446 390.292C110.458 389.669 110.372 388.973 110.644 388.498C110.853 390.669 113.679 400.535 116.267 400.553C116.457 399.891 116.33 399.708 116.107 399.065L115.651 397.746C116.026 396.569 119.305 395.081 118.894 392.941C118.771 392.297 120.72 385.827 120.829 386.738C120.309 382.39 118.131 377.498 118.127 372.981Z"/><path fill="#04391D" d="M103.039 308.575L103.952 311.456C102.625 311.465 100.798 311.683 99.8417 310.793L99.9013 310.278C101.045 309.12 101.457 309.095 103.039 308.575Z"/><path fill="#031614" d="M118.701 309.311C119.625 308.667 121.017 307.847 121.57 306.938C121.042 305.899 120.652 306.625 119.271 305.584C118.746 303.859 118.682 295.612 118.753 293.535C119.101 294.268 119.083 294.594 119.221 295.404C119.218 297.193 119.301 304.151 120.306 305.385C121.548 305.956 122.147 305.881 123.506 306.046C123.374 306.93 120.54 308.42 119.684 309.597C119.651 311.731 124.199 313.51 124.894 314.942C124.216 316.341 122.685 315.471 121.391 316.6C120.849 317.573 126.1 339.023 126.075 342.761C126.059 345.14 128.483 351.062 128.046 354.474C126.152 349.065 125.286 340.452 124.259 334.858C122.948 327.713 121.401 322.322 120.518 314.981C121.592 315.013 122.182 315.071 123.23 314.888C123.158 314.309 120.782 312.847 120.216 312.05C119.574 311.147 119.179 310.287 118.701 309.311Z"/><path fill="#388EB5" d="M115.627 401.098C117.298 402.021 118.895 402.956 120.664 403.675C123.105 404.73 125.54 405.8 127.967 406.885C127.456 407.125 127.394 407.161 126.824 407.253L126.345 408.064L126.592 408.653L126.68 408.448L127.175 408.622C126.751 408.724 126.356 408.827 125.927 408.902C122.416 407.417 117.317 405.398 114.412 403.224C115.397 402.705 115.505 402.099 115.627 401.098Z"/><path fill="#26897F" d="M127.967 406.885C131.05 408.204 133.889 409.483 137.113 410.425C138.059 411.507 139.475 411.812 139.84 412.492C138.338 412.888 138.722 411.861 136.792 412.456C132.958 411.29 129.732 410.247 125.927 408.902C126.356 408.827 126.751 408.724 127.175 408.622L126.68 408.448L126.592 408.653L126.345 408.064L126.824 407.253C127.394 407.161 127.456 407.125 127.967 406.885Z"/><path fill="#002007" d="M116.349 345.205C117.407 345.262 119.152 345.524 119.818 346.405C119.505 347.153 119.745 346.813 118.785 347.255C117.531 347.628 115.726 348.134 115.124 346.564C115.501 345.642 115.434 345.901 116.349 345.205Z"/><defs><linearGradient id="gradient_5" gradientUnits="userSpaceOnUse" x1="152.90224" y1="457.54208" x2="119.62948" y2="461.23245"><stop offset="0" stop-color="black"/><stop offset="1" stop-color="#002920"/></linearGradient></defs><path fill="url(#gradient_5)" d="M100.377 407.694C101.747 409.098 102.778 410.212 104.339 411.407C102.912 417.727 112.721 420.084 114.811 424.647L114.95 423.464L115.358 423.185C117.738 423.693 121.802 426.014 124.504 426.969C131.374 429.399 138.213 431.583 145.216 433.598L145.514 433.772C147.058 434.659 150.027 435.415 150.471 436.07C150.266 438.089 147.916 440.134 146.92 441.975L146.425 441.918C146.183 442.317 146.058 442.538 145.847 442.94C145.723 441.743 145.964 437.967 145.677 437.322C145.073 441.793 145.718 447.75 146.29 452.243C146.988 457.733 148.886 463.053 150.056 468.445C151.103 473.797 151.987 479.196 153.213 484.526C153.576 485.925 153.715 488.424 153.962 489.967C154.213 491.529 155.521 493.744 155.229 495.08C154.47 495.431 154.77 495.282 153.643 494.981L152.648 495.562C144.573 493.387 126.822 485.049 120.933 479.282C118.048 477.289 112.927 471.694 111.489 468.433C109.975 464.999 109.535 459.246 108.564 455.44C106.388 446.556 104.202 437.523 102.403 428.555C101.219 422.652 98.174 413.312 100.377 407.694Z"/><path fill="#9684F0" d="M100.377 407.694C101.747 409.098 102.778 410.212 104.339 411.407C102.912 417.727 112.721 420.084 114.811 424.647C115.196 425.998 115.45 426.926 115.7 428.331C118.476 443.054 123.32 458.863 125.852 473.637C125.815 477.122 125.439 477.535 123.18 480.384C122.255 479.698 122.055 479.493 120.933 479.282C118.048 477.289 112.927 471.694 111.489 468.433C109.975 464.999 109.535 459.246 108.564 455.44C106.388 446.556 104.202 437.523 102.403 428.555C101.219 422.652 98.174 413.312 100.377 407.694Z"/><path fill="#024132" d="M115.7 428.331C117.006 429.574 117.63 434.758 118.165 436.796C119.963 443.648 121.527 450.634 122.909 457.578L123.104 456.984C123.74 456.984 123.61 456.969 124.195 457.074C126.515 455.304 131.029 458.888 132.796 458.361C133.041 456.995 131.079 454.397 130.928 452.211C132.098 454.922 133.079 457.216 133.776 460.117C134.897 464.791 134.806 466.89 136.866 471.348C135.53 471.751 133.957 472.275 132.612 472.559C133.367 474.367 134.447 477.022 134.539 478.961C133.633 481.001 132.429 478.744 130.398 481.153C127.499 478.489 127.046 477.238 125.852 473.637C123.32 458.863 118.476 443.054 115.7 428.331Z"/><path fill="#7C62DA" d="M125.852 473.637C127.046 477.238 127.499 478.489 130.398 481.153C134.352 484.301 139.569 487.423 144.036 489.808C147.4 491.604 150.374 492.906 153.643 494.981L152.648 495.562C144.573 493.387 126.822 485.049 120.933 479.282C122.055 479.493 122.255 479.698 123.18 480.384C125.439 477.535 125.815 477.122 125.852 473.637Z"/><path fill="#E23AEF" d="M43.7708 157.671C47.31 161.21 50.7316 164.727 54.9058 167.555C55.6851 168.083 58.475 169.692 58.9879 170.216C58.7792 170.777 58.8037 170.441 58.9789 171.008C60.1883 174.918 60.8989 181.234 61.9161 184.994C63.2184 189.808 65.5406 199.113 66.7894 203.319C68.8796 210.361 77.8539 251.124 80.7079 255.039C80.6113 256.45 80.7025 257.144 79.8871 258.28C73.5258 255.248 65.2372 249.667 63.4277 242.501C60.6096 231.34 58.1389 219.942 55.4793 208.728L47.6617 176.533C46.7065 172.563 43.5006 160.971 43.7708 157.671Z"/><path fill="#06E58E" d="M104.339 411.407C113.836 418.107 129.043 423.674 140.1 427.782C145.058 429.623 154.733 431.162 160.056 432.051C176.376 433.861 192.484 436.015 208.938 435.744C210.643 435.716 212.637 435.732 214.341 435.816C216.969 436.251 229.805 435.613 232.816 435.459C234.116 435.451 235.452 435.463 236.748 435.402C236.85 436.981 236.925 438.777 237.13 440.323C211.779 443.538 187.391 441.302 162.342 437.422C155.985 436.425 151.375 434.986 145.216 433.598C138.213 431.583 131.374 429.399 124.504 426.969C121.802 426.014 117.738 423.693 115.358 423.185L114.95 423.464L114.811 424.647C112.721 420.084 102.912 417.727 104.339 411.407Z"/><path fill="#19AC74" d="M104.339 411.407C113.836 418.107 129.043 423.674 140.1 427.782C145.058 429.623 154.733 431.162 160.056 432.051C159.976 432.073 159.898 432.097 159.818 432.116C157.174 432.777 143.371 429.404 140.21 428.477C137.692 427.738 135.218 426.757 132.791 425.759C133.344 426.492 135.461 428.166 136.341 428.447L136.291 429.024C135.159 429.416 135.417 428.448 134.382 428.899C134.568 430.225 138.707 430.984 139.864 431.337C146.786 433.45 153.73 435.268 160.849 436.596C161.479 436.713 161.839 437.078 162.342 437.422C155.985 436.425 151.375 434.986 145.216 433.598C138.213 431.583 131.374 429.399 124.504 426.969C121.802 426.014 117.738 423.693 115.358 423.185L114.95 423.464L114.811 424.647C112.721 420.084 102.912 417.727 104.339 411.407Z"/><defs><linearGradient id="gradient_6" gradientUnits="userSpaceOnUse" x1="126.10822" y1="308.7684" x2="158.61171" y2="264.59845"><stop offset="0" stop-color="#23BB5B"/><stop offset="1" stop-color="#09E08A"/></linearGradient></defs><path fill="url(#gradient_6)" d="M87.7272 276.78C93.5709 278.79 98.8163 281.847 104.104 283.592C114.246 286.94 127.228 288.602 137.869 289.849C140.237 290.127 144.759 290.701 147.003 290.779C148.469 291.044 150.755 291.298 152.258 291.325C154.952 291.77 157.799 291.788 160.529 291.772C167.899 291.731 175.26 291.945 182.627 292.001C187.919 292.041 193.205 291.786 198.501 291.946C187.926 299.395 158.374 296.074 145.232 295.879C138.39 295.778 129.915 292.972 122.761 292.188C113.267 290.261 103.911 287.712 94.7517 284.557C92.9853 283.882 89.1019 281.986 87.6074 281.775C87.2781 282.422 87.2797 283.8 87.2191 284.612L87.017 280.651C88.141 280.062 88.8893 279.942 89.0954 278.656C88.614 277.644 88.5305 277.595 87.7272 276.78Z"/><defs><linearGradient id="gradient_7" gradientUnits="userSpaceOnUse" x1="139.63036" y1="257.75613" x2="121.35001" y2="278.5932"><stop offset="0" stop-color="#023F1E"/><stop offset="1" stop-color="#17613A"/></linearGradient></defs><path fill="url(#gradient_7)" d="M112.871 267.85C116.584 268.237 124.482 270.835 127.811 269.91C128.887 269.015 133.319 264.168 133.46 262.864C131.624 260.819 127.41 258.604 126.35 256.527C126.443 255.542 127.356 254.667 128.392 254.983C130.145 255.518 130.901 257.539 132.831 256.785C133.395 256.147 133.461 256.193 133.547 255.371C133.141 254.539 130.984 253.733 129.464 252.208L129.658 252.06C131.803 253.042 133.773 255.135 135.686 256.069C139.445 257.905 141.281 257.782 143.232 261.893C143.486 262.427 144.883 262.086 145.996 263.691C146.191 266.27 144.539 270.329 146.247 272.195C146.808 272.26 146.649 272.294 147.177 272.182C145.259 274.409 147.055 275.385 143.574 275.057C141.872 274.745 140.101 274.549 138.375 274.426C128.884 273.754 119.807 272.313 110.579 269.886C111.106 269.807 111.337 269.878 111.606 269.619C110.807 269.004 110.563 269.065 110.463 268.343L111.122 267.929C111.731 267.946 112.267 267.895 112.871 267.85Z"/><path fill="#04391D" d="M132.565 267.68C133.368 267.835 139.168 270.699 139.696 271.11L139.403 271.425L138.146 271.357C136.265 271.024 132.076 270.123 130.546 269.198L130.491 268.748C131.129 268.033 131.647 267.973 132.565 267.68Z"/><path fill="#04391D" d="M136.928 263.9C137.599 263.537 138.437 263.763 138.835 264.414C139.233 265.065 139.052 265.914 138.423 266.345C137.985 266.646 137.417 266.681 136.947 266.435C136.476 266.189 136.179 265.704 136.175 265.173C136.171 264.642 136.461 264.152 136.928 263.9Z"/><path fill="#036235" d="M205.107 422.7C206.655 422.551 208.207 422.566 209.761 422.57C217.892 422.594 225.983 421.419 234.117 421.616C234.092 426.365 235.781 430.557 235.93 434.856L235.331 435.336C234.207 435.152 233.915 435.158 232.816 435.459C229.805 435.613 216.969 436.251 214.341 435.816C214.492 435.402 214.727 434.774 214.614 434.359C213.575 430.528 212.27 427.001 211.465 423.098C209.343 423.013 207.214 422.963 205.107 422.7Z"/><path fill="#031614" d="M89.0707 180.904C102.327 183.857 112.523 184.904 125.832 186.199L125.757 186.519C124.083 187.056 110.405 184.745 107.37 184.855C107.698 185.099 107.986 185.194 108.362 185.343L108.227 185.937C108.508 186.54 108.456 186.311 108.452 187.002C106.823 188.417 100.978 189.9 98.9784 188.498L98.5854 188.854C97.6434 188.413 95.032 187.243 94.6425 186.421C94.954 185.468 94.6766 185.885 95.6917 185.271C94.8448 184.863 93.9761 184.534 93.3369 183.861C94.8442 182.98 94.9118 183.355 96.4418 183.04C95.1156 182.814 89.5597 182.053 89.0707 180.904Z"/><path fill="#04391D" d="M147.177 272.182C149.66 273.735 151.515 275.682 154.507 275.532C155.812 275.467 155.886 275.576 156.165 276.511C155.878 277.311 154.098 278.545 153.036 280.184C154.431 282.851 154.649 287.932 154.936 291.055C153.93 291.401 153.342 291.322 152.258 291.325C150.755 291.298 148.469 291.044 147.003 290.779C148.538 290.641 152.559 291.01 153.441 290.173C153.971 288.711 152.754 282.224 151.787 280.798C150.098 278.307 146.462 275.811 143.574 275.057C147.055 275.385 145.259 274.409 147.177 272.182Z"/><path fill="#3AC5B9" d="M91.1089 260.291C93.7856 261.583 99.5863 264.35 102.289 264.992C103.461 265.933 105.507 266.47 106.09 267.141L105.737 267.85C104.064 268.154 104.643 267.327 102.836 268.038C99.4311 267.252 93.0409 265.701 90.2461 263.745L90.7146 263.543L90.7568 263.299L89.5558 262.84C89.4015 261.812 89.3224 262.272 89.666 261.396C90.2243 261.049 90.5319 261.084 91.1872 261.031L91.4384 261.013L91.1089 260.291Z"/><path fill="#70BDD4" d="M80.7079 255.039C83.9993 257.525 87.3935 258.53 91.1089 260.291L91.4384 261.013L91.1872 261.031C90.5319 261.084 90.2243 261.049 89.666 261.396C89.3224 262.272 89.4015 261.812 89.5558 262.84L90.7568 263.299L90.7146 263.543L90.2461 263.745C87.4334 262.533 82.9205 259.834 79.8871 258.28C80.7025 257.144 80.6113 256.45 80.7079 255.039Z"/><path fill="#06E58E" d="M216.053 371.533C213.481 372.148 207.493 371.053 205.885 369.175L205.967 368.661C208.392 366.95 215.63 368.974 217.031 371.02L216.053 371.533Z"/><path fill="#0A8F4A" d="M102.289 264.992C105.706 265.938 109.447 267.048 112.871 267.85C112.267 267.895 111.731 267.946 111.122 267.929L110.463 268.343C110.563 269.065 110.807 269.004 111.606 269.619C111.337 269.878 111.106 269.807 110.579 269.886C108.127 269.165 105.35 268.603 102.836 268.038C104.643 267.327 104.064 268.154 105.737 267.85L106.09 267.141C105.507 266.47 103.461 265.933 102.289 264.992Z"/><path fill="#036235" d="M137.113 410.425C138.184 410.809 139.25 411.211 140.309 411.629C141.749 412.064 143.034 412.387 144.235 413.296L144.339 413.686C143.765 414.196 143.208 414.205 142.405 414.219L136.792 412.456C138.722 411.861 138.338 412.888 139.84 412.492C139.475 411.812 138.059 411.507 137.113 410.425Z"/><path fill="#034822" d="M267.15 446.221C268.41 446.364 269.854 447.003 270.988 447.626C273.314 448.902 276.814 448.03 279.557 447.638C277.459 450.984 275.921 452.6 272.733 454.927C270.232 456.148 267.682 457.157 264.987 455.731C262.752 454.549 261.14 451.663 262.594 449.292C263.546 447.741 265.446 446.72 267.15 446.221Z"/><path fill="#04391D" d="M121.707 221.349L121.511 220.639C122.793 218.593 126.182 217.395 126.35 215.211C125.79 214.128 124.97 212.531 123.593 213.081C122.192 215.042 122.662 217.694 120.839 218.749C116.956 218.13 120.25 213.227 120.958 211.446C121.319 210.538 120.756 209.147 121.6 208.06L122.079 208.084C122.147 209.845 120.76 210.041 122.426 211.633C123.013 212.193 124.612 212.611 125.449 212.865C126.042 213.818 126.688 214.788 127.17 215.797C125.872 217.158 122.21 220.156 121.939 221.338L121.707 221.349Z"/><path fill="#034822" d="M139.394 240.259C140.415 240.147 139.958 240.049 140.825 240.499C141.537 241.55 141.655 242.727 141.918 243.995L142.155 244.203C142.992 244.926 145.053 246.164 145.367 246.565C144.856 247.554 144.023 248.463 142.936 248.798C141.328 247.109 143.272 245.672 139.028 245.748C137.493 244.786 138.339 243.468 137.889 241.802C138.516 240.973 138.674 240.879 139.61 240.417L139.394 240.259Z"/><path fill="#034822" d="M142.908 223.099C145.479 223.601 146.963 226.352 147.913 228.628C148.15 229.198 147.51 230.163 147.215 230.692C146.732 230.473 146.258 230.236 145.794 229.98C142.586 228.216 140.467 226.742 142.908 223.099Z"/><path fill="#036235" d="M144.514 194.62C143.851 193.596 143.653 193.259 144.13 192.047C144.858 191.42 144.443 191.583 145.432 191.572C146.435 192.262 146.139 192.1 146.731 193.37L146.939 193.631C148.206 195.206 150.417 196.978 150.582 198.983C149.91 200.134 148.932 200.415 147.737 199.84C145.907 197.619 147.171 195.807 144.684 195.118C144.574 195.088 144.313 194.808 144.211 194.703L144.514 194.62Z"/><path fill="#034822" d="M144.514 194.62C143.851 193.596 143.653 193.259 144.13 192.047C144.858 191.42 144.443 191.583 145.432 191.572C146.435 192.262 146.139 192.1 146.731 193.37C146.062 194.182 145.676 194.7 144.514 194.62Z"/><path fill="#002007" d="M121.707 221.349L121.939 221.338C124.374 224.351 128.718 225.749 130.331 229.233C130.959 230.59 130.203 232.271 128.72 232.749C126.188 232.136 127.32 229.736 125.756 228.051C124.829 227.852 125.304 227.829 124.309 228.348C123.78 229.046 123.793 230.728 123.941 231.579C124.422 234.356 122.974 234.397 125.572 235.373L125.432 235.711C124.674 236.023 125.051 235.998 124.264 235.797C123.054 234.492 123.196 228.693 124.654 227.246C126.225 227.047 125.817 228.145 127.136 228.91C127.422 227.821 127.243 228.206 128.247 227.38C127.515 225.355 122.995 224.486 121.707 221.349Z"/><path fill="#04391D" d="M136.575 248.1C138.129 248.118 138.922 248.323 139.606 249.82C139.724 251.802 138.585 252.194 136.963 252.63C135.694 252.761 135.201 252.964 134.298 251.983C133.91 250.062 135.144 249.068 136.575 248.1Z"/><path fill="#04391D" d="M127.443 205.873C130.874 206.044 131.525 209.086 129.304 211.355C126.782 211.288 125.141 208.152 127.443 205.873Z"/><path fill="#04391D" d="M128.671 217.922C131.671 218.427 131.933 221.613 129.532 223.289C125.628 221.916 126.689 220.257 128.671 217.922Z"/><path fill="#034822" d="M138.38 229.777C142.38 229.676 142.215 232.622 139.444 234.314C136.853 233.501 135.403 231.557 138.38 229.777Z"/><path fill="#04391D" d="M133.079 212.186C134.293 211.975 135.451 212.776 135.681 213.986C135.911 215.196 135.127 216.366 133.921 216.615C133.124 216.779 132.3 216.501 131.766 215.888C131.231 215.274 131.069 214.42 131.341 213.653C131.613 212.886 132.277 212.326 133.079 212.186Z"/><path fill="#034822" d="M149.88 264.74C152.78 265.394 152.701 268.897 151.057 270.549C147.938 269.379 147.425 266.918 149.88 264.74Z"/><path fill="#04391D" d="M122.468 201.141C124.272 201.126 125.663 201.082 126.109 203.221C125.883 204.226 125.848 204.178 125.122 204.848L123.94 205.525C121.439 205.478 121.007 202.919 122.468 201.141Z"/><path fill="#034822" d="M133.985 199.364C134.963 199.393 134.575 199.221 135.255 199.709C135.557 200.534 135.422 201.344 135 202.097C133.964 203.946 134.053 203.886 132.324 204.445L131.237 203.946C129.909 201.968 132.474 200.367 133.985 199.364Z"/><path fill="#034822" d="M138.253 218.247C141.182 218.324 141.877 221.102 139.09 222.519C137.742 222.481 137.462 222.498 136.564 221.677C135.868 219.806 136.812 219.204 138.253 218.247Z"/><path fill="#034822" d="M142.25 200.69C145.18 201.062 146.448 203.135 144.146 205.531C141.92 204.651 139.266 202.646 142.25 200.69Z"/><path fill="#034822" d="M143.901 213.253C145.125 213.578 145.538 213.584 145.813 214.889C145.375 216.242 144.374 217.062 143.365 218.119C141.576 218.079 141.404 216.307 141.864 215.02C142.281 213.857 142.89 213.749 143.901 213.253Z"/><path fill="#036235" d="M154.852 224.659C156.072 224.928 158.121 226.313 158.481 227.618C158.706 228.436 158.312 228.733 157.898 229.348C157.241 229.599 157.264 229.571 156.552 229.576C154.466 228.491 153.872 226.866 154.852 224.659Z"/><path fill="#04391D" d="M128.351 261.145C128.935 261.122 129.945 261.563 130.166 262.062C131.137 264.255 129.73 265.302 128.27 266.072C127.221 266.089 126.993 266.014 126.566 265.151C126.634 263.803 127.637 262.301 128.351 261.145Z"/><path fill="#034822" d="M154.485 259.721C156.164 259.91 157.402 260.94 157.601 262.642C157.214 263.533 157.41 263.231 156.38 263.787C154.809 263.81 153.823 263.872 153.306 262.205C153.438 261.009 153.758 260.748 154.485 259.721Z"/><path fill="#034822" d="M148.806 207.929C149.896 207.895 150.817 208.73 150.889 209.818C150.96 210.906 150.156 211.855 149.071 211.963C148.336 212.037 147.619 211.703 147.201 211.094C146.784 210.484 146.732 209.695 147.066 209.036C147.4 208.377 148.067 207.953 148.806 207.929Z"/><path fill="#034822" d="M138.637 194.039C141.053 194.892 142.588 196.801 140.021 198.806C137.282 198.71 137.104 195.887 138.637 194.039Z"/><path fill="#04391D" d="M132.759 223.357C135.904 223.464 136.085 225.874 134.131 227.82C131.7 227.052 130.493 225.405 132.759 223.357Z"/><path fill="#036235" d="M154.86 214.217C158.261 214.636 157.412 216.705 155.764 218.632C155.038 218.967 154.94 218.803 154.333 218.493C153.312 216.905 153.916 215.6 154.86 214.217Z"/><path fill="#034822" d="M148.784 247.96C150.233 248.365 150.901 249.509 150.886 250.968C150.418 251.911 150.557 251.618 149.469 252.236C148.121 251.976 147.412 252.026 147.018 250.639C147.25 249.604 148.086 248.8 148.784 247.96Z"/><path fill="#034822" d="M139.276 208.555C140.646 208.952 141.263 209.733 141.163 211.112C140.502 212.049 140.613 211.789 139.431 212.357C138.33 212.271 138.243 212.304 137.361 211.707C136.545 210.074 138.023 209.319 139.276 208.555Z"/><path fill="#034822" d="M150.978 230.686C152.457 230.961 153.483 231.984 153.764 233.473C153.424 234.262 153.7 233.95 152.798 234.336C151.279 234.442 149.874 234.803 149.555 233.015C149.905 231.831 150.152 231.664 150.978 230.686Z"/><path fill="#034822" d="M137.889 241.802C136.86 239.669 134.684 240.904 133.202 238.534C133.63 238.769 134.06 239.001 134.492 239.229C135.733 239.871 135.78 240.042 136.836 239.711L137.089 239.201C136.361 235.305 131.799 236.921 129.215 236.368C130.29 235.933 131.501 236.214 132.548 236.085C136.974 235.541 136.881 238.474 139.394 240.259L139.61 240.417C138.674 240.879 138.516 240.973 137.889 241.802Z"/><path fill="#031614" d="M91.8561 245.678C93.1511 247.067 92.5294 248.505 93.5755 250.013L93.4667 249.937L93.7233 250.183C93.8946 249.146 93.9449 249.174 94.5548 248.368C94.914 249.063 95.5384 252.579 95.2141 253.21L94.6995 253.086C94.5933 253.038 94.4871 252.99 94.3808 252.941C94.6736 253.797 95.014 254.487 94.9861 255.36C93.9838 254.365 92.0344 247.397 91.8561 245.678Z"/><path fill="#034822" d="M153.132 241.528C154.393 241.592 155.847 241.826 156.503 243.013C156.402 244.097 156.574 243.577 155.735 244.536C154.386 244.402 153.066 244.174 152.376 242.884C152.494 241.864 152.298 242.324 153.132 241.528Z"/><path fill="#036235" d="M158.117 252.594C160.352 253.166 159.806 255.233 159.252 256.916C157.397 255.921 157.4 254.321 158.117 252.594Z"/><path fill="#036235" d="M157.737 197.456C158.697 197.699 158.713 197.647 159.474 198.344C159.699 199.32 159.719 198.83 159.253 199.849C158.418 199.721 158.015 199.732 157.315 199.251C157.134 198.333 157.261 198.51 157.737 197.456Z"/><defs><linearGradient id="gradient_8" gradientUnits="userSpaceOnUse" x1="420.78296" y1="472.75208" x2="284.51697" y2="410.53326"><stop offset="0" stop-color="#007C40"/><stop offset="1" stop-color="#02D76C"/></linearGradient></defs><path fill="url(#gradient_8)" d="M458.661 341.552C461.387 344.212 462.372 346.133 463.232 349.797L469.393 388.24C469.945 391.715 471.91 399.35 471.507 402.261C470.614 408.708 465.865 416.759 462.149 421.982C458.247 427.402 453.789 432.399 448.846 436.89C446.951 438.527 441.277 443.23 439.839 444.787C437.899 446.744 430.079 452.511 427.461 453.995C423.76 456.887 416.872 460.83 412.737 463.193C381.443 481.076 348.078 492.111 312.88 499.294C310.757 499.727 298.064 502.198 296.419 502.213C294.25 501.26 287.8 504.063 286.262 502.671L286.653 501.868C286.536 501.12 286.47 500.063 286.168 499.386C284.784 496.293 279.453 494.265 278.492 491.271C276.993 486.606 271.352 459.918 272.694 456.628C273.943 453.569 278.028 452.128 279.478 448.901C279.939 447.875 280.038 446.558 279.514 445.527C279.139 444.79 278.138 444.009 277.349 443.788L277.229 444.25C277.892 444.887 278.542 445.539 279.176 446.205C279.302 448.841 270.627 447.415 268.653 445.671C269.245 444.633 276.447 441.108 276.581 437.32C274.043 440.415 272.911 441.99 269.68 444.28C263.816 434.666 271.555 425.702 276.573 417.628C278.66 414.734 281.384 410.946 283.831 408.447C292.015 400.091 301.49 389.889 313.548 388.038C317.827 387.381 322.928 387.576 326.897 386.808C337.368 384.78 345.474 383.694 356.198 384.75C365.244 385.641 371.261 388.554 380.339 388.145C380.713 381.429 378.343 379.295 382.836 373.467L382.924 372.899L383.29 372.695C384.236 373.148 384.158 373.741 384.279 374.739C384.738 378.524 389.164 381.6 391.27 384.539C394.418 388.933 397.508 393.179 400.844 397.377C403.85 398.091 416.177 387.721 419.881 386.689C422.071 385.354 425.911 383.628 428.549 382.12C429.6 381.473 435.609 377.468 436.193 376.757C439.718 374.558 443.104 371.882 446.357 369.304C449.92 366.279 451.872 364.208 454.938 360.784L454.918 360.596C453.364 357.702 454.093 355.701 452.739 354.127C454.962 351.933 457.934 348.089 458.599 345.031C458.741 344.376 458.671 342.321 458.661 341.552Z"/><defs><linearGradient id="gradient_9" gradientUnits="userSpaceOnUse" x1="436.91101" y1="400.23105" x2="474.34366" y2="388.22702"><stop offset="0" stop-color="#B92ACF"/><stop offset="1" stop-color="#FD58F8"/></linearGradient></defs><path fill="url(#gradient_9)" d="M458.661 341.552C461.387 344.212 462.372 346.133 463.232 349.797L469.393 388.24C469.945 391.715 471.91 399.35 471.507 402.261C470.614 408.708 465.865 416.759 462.149 421.982C458.247 427.402 453.789 432.399 448.846 436.89C446.951 438.527 441.277 443.23 439.839 444.787L438.866 444.804C438.71 444.808 438.414 444.734 438.245 444.701C437.648 443.865 435.474 437.514 435.324 436.289C433.942 424.971 433.332 413.041 431.129 401.857C430.685 396.754 429.519 391.539 429.095 386.401C428.984 385.048 428.833 383.425 428.549 382.12C429.6 381.473 435.609 377.468 436.193 376.757C439.718 374.558 443.104 371.882 446.357 369.304C449.92 366.279 451.872 364.208 454.938 360.784L454.918 360.596C453.364 357.702 454.093 355.701 452.739 354.127C454.962 351.933 457.934 348.089 458.599 345.031C458.741 344.376 458.671 342.321 458.661 341.552Z"/><defs><linearGradient id="gradient_10" gradientUnits="userSpaceOnUse" x1="428.51697" y1="406.52338" x2="449.07114" y2="407.22238"><stop offset="0" stop-color="#004D26"/><stop offset="1" stop-color="#024136"/></linearGradient></defs><path fill="url(#gradient_10)" d="M436.193 376.757C439.718 374.558 443.104 371.882 446.357 369.304C446.29 374.57 445.698 379.854 445.768 385.141C445.618 387.224 446.437 389.795 446.319 391.809C446.173 394.319 445.031 396.086 445.209 398.708C445.78 407.113 448.778 415.098 449.216 423.529C449.342 425.974 449.768 428.624 449.339 431.054C448.643 432.227 447.526 434.243 446.777 435.293C447.233 436.54 447.658 436.606 448.846 436.89C446.951 438.527 441.277 443.23 439.839 444.787L438.866 444.804C438.71 444.808 438.414 444.734 438.245 444.701C437.648 443.865 435.474 437.514 435.324 436.289C433.942 424.971 433.332 413.041 431.129 401.857C430.685 396.754 429.519 391.539 429.095 386.401C428.984 385.048 428.833 383.425 428.549 382.12C429.6 381.473 435.609 377.468 436.193 376.757Z"/><path fill="#9684F0" d="M446.777 435.293C447.233 436.54 447.658 436.606 448.846 436.89C446.951 438.527 441.277 443.23 439.839 444.787L438.866 444.804C440.355 442.49 444.669 438.006 446.777 435.293Z"/><path fill="#2B388C" d="M446.357 369.304C449.92 366.279 451.872 364.208 454.938 360.784C455.368 363.877 455.316 367.018 455.753 370.108C457.05 379.268 462.619 405.862 460.597 412.709C459.325 417.015 455.97 420.886 453.489 424.55C452.047 426.679 450.747 428.902 449.339 431.054C449.768 428.624 449.342 425.974 449.216 423.529C448.778 415.098 445.78 407.113 445.209 398.708C445.031 396.086 446.173 394.319 446.319 391.809C446.437 389.795 445.618 387.224 445.768 385.141C445.698 379.854 446.29 374.57 446.357 369.304Z"/><defs><linearGradient id="gradient_11" gradientUnits="userSpaceOnUse" x1="452.44147" y1="353.05792" x2="462.3425" y2="348.37387"><stop offset="0" stop-color="#F1F3F6"/><stop offset="1" stop-color="#F9EEFB"/></linearGradient></defs><path fill="url(#gradient_11)" d="M458.661 341.552C461.387 344.212 462.372 346.133 463.232 349.797C463.181 351.823 456.716 359.155 454.918 360.596C453.364 357.702 454.093 355.701 452.739 354.127C454.962 351.933 457.934 348.089 458.599 345.031C458.741 344.376 458.671 342.321 458.661 341.552Z"/><path fill="#000001" d="M382.836 373.467C383.225 373.809 383.312 373.708 383.405 374.219C384.25 378.849 387.897 380.993 390.46 384.65C393.183 388.537 398.155 394.027 400.091 398.227C400.659 399.459 400.191 405.216 400.198 406.824C397.635 405.967 394.408 405.127 392.021 404.08C388.187 402.4 385.224 400.599 381.101 399.311C367.489 395.06 354.586 394.315 340.564 396.875C337.32 397.467 333.083 398.862 329.89 399.851C326.626 400.863 321.96 402.125 319.003 403.59C316.665 404.748 313.646 406.742 311.328 408.029C300.128 414.249 285.993 422.307 279.146 433.364C278.628 434.202 276.955 436.542 276.581 437.32C274.043 440.415 272.911 441.99 269.68 444.28C263.816 434.666 271.555 425.702 276.573 417.628C278.66 414.734 281.384 410.946 283.831 408.447C292.015 400.091 301.49 389.889 313.548 388.038C317.827 387.381 322.928 387.576 326.897 386.808C337.368 384.78 345.474 383.694 356.198 384.75C365.244 385.641 371.261 388.554 380.339 388.145C380.713 381.429 378.343 379.295 382.836 373.467Z"/><path fill="#55FAE6" d="M312.152 399.225C313.763 399.031 315.925 398.633 317.243 399.524C318.151 402.44 303.574 406.702 301.142 407.468C299.689 407.866 297.98 408.555 296.538 409.092C300.872 402.759 304.582 401.443 312.152 399.225Z"/><path fill="#036235" d="M431.129 401.857C433.332 413.041 433.942 424.971 435.324 436.289C435.474 437.514 437.648 443.865 438.245 444.701C438.414 444.734 438.71 444.808 438.866 444.804L439.839 444.787C437.899 446.744 430.079 452.511 427.461 453.995L427.609 453.757C428.609 452.13 429.574 452.25 430.907 450.742C430.677 448.793 429.415 446.212 428.916 444.074C428.349 441.644 428.15 439.479 427.629 436.951C427.137 434.564 428.865 429.284 429.871 427.029C430.253 426.296 433.14 422.793 433.146 422.143C433.195 416.534 430.948 409.813 431.001 404.28C431.098 403.798 431.11 402.421 431.129 401.857Z"/><path fill="#036235" d="M419.881 386.689C422.071 385.354 425.911 383.628 428.549 382.12C428.833 383.425 428.984 385.048 429.095 386.401C429.519 391.539 430.685 396.754 431.129 401.857C431.11 402.421 431.098 403.798 431.001 404.28C430.56 403.759 429.695 393.607 428.642 391.859C427.834 390.52 427.25 385.74 426.47 383.963C424.673 384.119 421.949 386.729 419.881 386.689Z"/><path fill="#002007" d="M354.572 406.677C359.255 406.107 361.928 407.631 365.784 410.28C364.536 411.019 360.855 413.269 359.676 413.666C354.076 416.376 348.299 418.201 342.647 421.387C337.621 424.22 328.774 425.91 323.055 426.856C330.339 419.505 343.739 406.775 354.572 406.677Z"/><path fill="#034822" d="M354.572 406.677C359.255 406.107 361.928 407.631 365.784 410.28C364.536 411.019 360.855 413.269 359.676 413.666C358.988 411.874 357.02 409.526 356.518 407.366L357.04 407.159C356.51 406.698 355.419 406.756 354.572 406.677Z"/><path fill="#000001" d="M297.263 228.511C305.011 236.104 307.258 244.807 309.654 254.839C309.893 256.06 309.93 257.136 310.746 257.925C311.377 257.782 311.128 257.94 311.519 257.493C311.848 259.073 313.042 262.904 314.251 263.946L314.618 264.015C313.903 267.726 313.218 268.649 311.912 271.851C310.534 275.23 305.479 282.243 305.466 285.126C306.435 286.301 306.674 287.213 307.218 288.63C306.533 290.451 305.656 289.915 305.244 291.347C305.374 293.889 306.884 297.144 307.605 299.688C308.295 302.12 308.713 303.997 309.151 306.491C310.23 320.778 308.934 330.025 303.837 343.497C302.14 347.982 303.782 350.805 299.636 355.627C297.044 357.423 294.027 363.686 290.919 365.847C290.416 366.197 287.954 367.529 287.465 367.46C287.667 367.175 288.017 366.677 288.062 366.338C288.646 361.873 295.773 358.838 296.8 355.108C295.128 356.753 293.147 358.999 291.403 360.377C292.2 358.101 297.745 354.404 296.894 352.517C295.175 352.242 294.509 353.414 293.263 354.33C291.21 355.839 289.373 357.009 286.899 357.67C266.142 369.782 241.826 369.033 218.534 373.602C215.88 374.077 214.726 374.284 211.977 374.501C213.72 372.744 213.89 372.56 216.053 371.533L217.031 371.02C219.156 370.224 220.322 368.859 223.879 367.786C220.71 365.493 216.458 362.68 213.887 359.825C204.488 349.387 200.074 336.774 200.293 322.929C195.574 323.332 175.837 324.193 172.492 321.499C172.956 319.242 181.928 320.173 185.113 316.949C185.473 315.712 185.546 313.983 186.476 312.962C188.05 309.743 188.231 305.037 191.464 301.798C195.329 297.926 204.346 295.778 209.541 294.07C213.589 292.753 217.616 291.373 221.62 289.929C228.103 287.549 234.291 284.506 240.483 281.467C241.594 280.922 242.702 280.382 243.73 279.688C245.69 278.898 249.984 276.032 251.923 274.752C263.423 267.159 273.983 257.7 282.347 246.719C288.092 239.175 289.635 234.765 297.263 228.511Z"/><path fill="#036235" d="M309.654 254.839C309.893 256.06 309.93 257.136 310.746 257.925C311.377 257.782 311.128 257.94 311.519 257.493C311.848 259.073 313.042 262.904 314.251 263.946L314.618 264.015C313.903 267.726 313.218 268.649 311.912 271.851C310.534 275.23 305.479 282.243 305.466 285.126C300.89 284.805 297.403 280.161 294.941 276.701C300.594 269.58 309.796 264.589 309.654 254.839Z"/><path fill="#034822" d="M186.476 312.962L186.745 313.598C188.503 312.84 188.916 308.43 191.366 307.885C197.37 306.55 205.404 307.198 211.51 306.569C215.468 306.161 227.716 303.946 230.992 304.987L230.903 305.354C227.657 307.274 218.652 308.786 214.704 309.856C209.529 311.259 204.037 312.702 198.818 313.964C195.928 314.663 187.124 315.487 185.113 316.949C185.473 315.712 185.546 313.983 186.476 312.962Z"/><path fill="#0A8F4A" d="M286.899 357.67C289.733 355.522 293.119 353.69 296.047 351.599C296.999 350.919 300.238 347.971 301.1 348.084C300.887 349.715 297.887 353.63 296.8 355.108C295.128 356.753 293.147 358.999 291.403 360.377C292.2 358.101 297.745 354.404 296.894 352.517C295.175 352.242 294.509 353.414 293.263 354.33C291.21 355.839 289.373 357.009 286.899 357.67Z"/><path fill="#F7F9F9" d="M235.047 313.717C237.554 313.026 240.127 312.628 242.643 311.981C261.199 307.212 279.643 301.212 297.415 293.984C298.666 297.052 300.116 299.914 301.197 303.086C303.91 312.938 303.993 322.394 300.819 332.265C299.448 336.531 297.714 342.811 294.162 346.07C289.508 349.383 283.43 353.433 278.28 355.784C275.088 357.227 271.786 358.416 268.406 359.338C265.96 360.011 262.892 360.68 260.385 361.148C251.667 362.777 242.361 365.229 233.562 365.85C228.336 366.218 219.202 357.073 215.845 353.578C220.375 354.863 223.779 356.403 228.24 353.77C239.282 347.251 240.694 337.616 239.373 325.888C236.963 327.232 232.956 330.832 230.974 327.874C230.773 324.884 235.9 322.594 238.277 321.592C238.068 319.296 236.141 315.868 235.047 313.717Z"/><path fill="#A8A6B1" d="M235.047 313.717C237.554 313.026 240.127 312.628 242.643 311.981C261.199 307.212 279.643 301.212 297.415 293.984C298.666 297.052 300.116 299.914 301.197 303.086C299.929 302.58 294.422 304.475 292.779 304.914C283.446 307.316 274.179 309.972 264.99 312.877C260.042 314.472 255.007 316.436 250.054 318.07C248.445 318.6 238.886 321.029 238.277 321.592C238.068 319.296 236.141 315.868 235.047 313.717Z"/><path fill="#036235" d="M291.987 279.622C293.154 281.456 295.622 283.65 297.273 285.146C292.798 286.766 288.329 287.682 283.858 289.115C278.958 290.685 274.313 292.716 269.309 294.125L268.722 293.887L268.536 293.236C277.722 288.779 283.889 285.968 291.987 279.622Z"/><path fill="#04391D" d="M260.454 297.099C263.438 295.338 265.29 294.428 268.536 293.236L268.722 293.887L269.309 294.125C267.004 295.067 262.813 296.477 260.454 297.099Z"/><path fill="#8F978C" d="M211.878 328.614C212.662 328.756 212.292 328.607 212.962 329.206L212.968 329.9C212.464 330.969 212.416 330.988 211.432 331.697C210.471 331.746 210.142 331.883 209.855 330.968C210.287 329.929 211.038 329.394 211.878 328.614Z"/><path fill="#000001" d="M349.465 248.366C350.157 248.664 350.853 248.952 351.554 249.23C364.47 254.441 382.096 255.184 395.804 252.634C401.857 251.508 410.724 247.722 416.43 245.296C417.57 247.264 418.899 248.865 419.796 250.976C420.384 252.358 420.196 253.879 420.916 254.682L421.625 254.81L424.871 253.837C426.874 253.36 435.482 251.798 436.88 253.148L437.167 254.828C437.151 256.25 437.15 257.672 437.164 259.095C434.693 259.114 431.377 260.348 429.177 261.471C429.337 262.939 429.899 267.181 430.3 268.665C431.07 280.953 429.609 294.633 423.168 305.411C425.257 305.359 426.846 305.314 428.918 305.48C425.772 306.868 427.857 309.538 424.619 309.792C419.52 313.412 413.832 315.941 408.427 319.146C401.398 322.466 394.602 325.871 387.373 328.784C384.162 330.077 373.077 334.452 371.7 337.097L371.938 337.758C372.72 338.35 373.486 338.803 373.921 339.664L373.862 340.259L373.307 340.71C357.082 335.828 346.851 314.687 344.087 299.059C343.001 292.919 343.054 286.28 341.855 280.089L341.781 279.712C341.498 277.846 341.992 275.695 341.355 273.302C342.464 272.14 342.923 271.441 343.815 270.142C344.495 267.515 344.809 264.527 345.431 261.78C346.363 258.992 350.469 251.052 349.465 248.366Z"/><path fill="#F7F9F9" d="M373.158 281.907C384.063 281.09 396.336 277.907 407.169 275.817C413.19 274.656 417.423 272.987 423.92 272.569C424.314 276.828 423.909 282.606 424.309 285.878C423.856 289.671 423.386 291.813 422.186 295.477C420.857 299.535 418.474 304.7 418.18 308.864C417.973 309.677 418.146 309.286 417.224 309.93C411.855 311.547 403.958 315.546 398.738 317.871C394.664 319.684 388.599 321.942 384.859 323.866C377.302 327.753 375.388 329.807 366.909 332.09C363.036 329.346 359.135 324.09 356.065 320.268C364.636 321.923 368.298 320.405 372.957 312.786C377.286 305.706 376.972 295.024 374.934 287.283C373.241 289.365 371.668 290.073 369.349 291.356C368.973 289.78 368.155 287.14 368.609 285.641C369.364 283.149 371.779 284.778 373.37 283.906C373.62 282.887 373.487 283.073 373.158 281.907Z"/><path fill="#034822" d="M349.465 248.366C350.157 248.664 350.853 248.952 351.554 249.23C364.47 254.441 382.096 255.184 395.804 252.634C401.857 251.508 410.724 247.722 416.43 245.296C417.57 247.264 418.899 248.865 419.796 250.976C420.384 252.358 420.196 253.879 420.916 254.682L421.625 254.81C419.315 255.604 412.529 257.035 409.854 257.626C405.828 258.515 397.66 260.93 393.864 261.251C385.083 263.428 374.908 264.992 365.926 266.776C358.911 268.169 354.199 268.643 347.063 270.796C346.708 270.418 346.688 270.069 346.615 269.557L346.552 269.091L346.14 268.992L345.252 270.011C344.733 269.452 344.959 269.708 344.771 268.785L344.252 269.34L344.645 269.173L344.645 269.331L344.171 269.444L343.815 270.142C344.495 267.515 344.809 264.527 345.431 261.78C346.363 258.992 350.469 251.052 349.465 248.366Z"/><path fill="#0A8F4A" d="M347.063 270.796C347.091 269.468 348.53 267.171 349.385 266.164C351.699 263.443 352.762 262.156 356.424 261.871C362.645 261.387 368.782 261.046 374.974 260.442L387.039 259.232C390.275 258.904 392.597 258.033 395.345 260.184L395.196 260.529C394.489 260.661 394.405 260.777 393.864 261.251C385.083 263.428 374.908 264.992 365.926 266.776C358.911 268.169 354.199 268.643 347.063 270.796Z"/><path fill="#A8A6B1" d="M370.819 275.981C379.376 274.394 387.306 273.148 395.796 271.11C404.753 268.961 413.711 265.713 422.522 263.624C424.117 268.431 425.497 281.253 424.309 285.878C423.909 282.606 424.314 276.828 423.92 272.569C417.423 272.987 413.19 274.656 407.169 275.817C396.336 277.907 384.063 281.09 373.158 281.907L370.819 275.981Z"/><path fill="#26897F" d="M423.168 305.411C425.257 305.359 426.846 305.314 428.918 305.48C425.772 306.868 427.857 309.538 424.619 309.792C425.312 309.127 425.693 309.033 425.734 308.326C422.812 308.531 422.355 309.912 417.224 309.93C418.146 309.286 417.973 309.677 418.18 308.864C419.517 308.444 421.937 306.382 423.168 305.411Z"/><path fill="#F7F9F9" d="M352.75 288.616L353.136 289.208C353.315 291.657 351.706 292.333 349.616 292.494C348.861 290.592 351.284 289.572 352.75 288.616Z"/><path fill="#000001" d="M427.872 207.92C428.386 209.714 428.881 211.76 429.471 213.491C431.063 219.853 430.957 224.95 433.008 231.953C433.283 233.21 433.764 235.161 433.917 236.37C434.734 242.769 435.185 246.828 436.88 253.148C435.482 251.798 426.874 253.36 424.871 253.837L421.625 254.81L420.916 254.682C420.196 253.879 420.384 252.358 419.796 250.976C418.899 248.865 417.57 247.264 416.43 245.296C410.724 247.722 401.857 251.508 395.804 252.634C382.096 255.184 364.47 254.441 351.554 249.23C350.853 248.952 350.157 248.664 349.465 248.366C344.101 247.183 342.631 248.233 337.956 244.059C335.426 238.705 335.316 226.415 335.793 220.223C336.996 204.577 349.548 216.898 355.241 219.586C370.329 226.711 392.415 232.842 408.908 229.695L408.083 229.331C408.007 228.693 407.966 228.332 408.509 227.729C411.24 224.694 417.444 220.534 419.442 217.166C420.181 216.267 420.373 216.029 421.253 215.291C422.544 213.571 426.274 209.683 427.872 207.92Z"/><path fill="#095E6F" d="M427.872 207.92C428.386 209.714 428.881 211.76 429.471 213.491C431.063 219.853 430.957 224.95 433.008 231.953C431.805 232.815 431.753 232.97 430.295 232.775C429.628 232.134 428.33 231.687 427.476 231.408L424.06 229.454C421.341 228.322 414.585 228.893 411.148 229.005L408.908 229.695L408.083 229.331C408.007 228.693 407.966 228.332 408.509 227.729C411.24 224.694 417.444 220.534 419.442 217.166C420.181 216.267 420.373 216.029 421.253 215.291C422.544 213.571 426.274 209.683 427.872 207.92Z"/><path fill="#1AE9B4" d="M427.872 207.92C428.386 209.714 428.881 211.76 429.471 213.491C427.98 215.38 428.237 216.393 426.251 218.401C424.451 220.572 413.954 227.442 411.148 229.005L408.908 229.695L408.083 229.331C408.007 228.693 407.966 228.332 408.509 227.729C411.24 224.694 417.444 220.534 419.442 217.166C420.181 216.267 420.373 216.029 421.253 215.291C422.544 213.571 426.274 209.683 427.872 207.92Z"/><path fill="#55FAE6" d="M427.872 207.92C428.386 209.714 428.881 211.76 429.471 213.491C427.98 215.38 428.237 216.393 426.251 218.401L426.149 218.234C426.194 217.468 426.152 217.825 426.806 217.04L426.78 216.763C424.606 216.458 424.264 215.966 423.631 213.824L423.378 213.737C422.681 214.714 422.706 214.699 421.756 215.423L421.253 215.291C422.544 213.571 426.274 209.683 427.872 207.92Z"/><defs><linearGradient id="gradient_12" gradientUnits="userSpaceOnUse" x1="419.2261" y1="246.26135" x2="435.01862" y2="244.83099"><stop offset="0" stop-color="#01626C"/><stop offset="1" stop-color="#1A5088"/></linearGradient></defs><path fill="url(#gradient_12)" d="M433.917 236.37C434.734 242.769 435.185 246.828 436.88 253.148C435.482 251.798 426.874 253.36 424.871 253.837L421.625 254.81L420.916 254.682C420.196 253.879 420.384 252.358 419.796 250.976C418.899 248.865 417.57 247.264 416.43 245.296L417.242 244.831C420.055 244.16 426.329 240.937 428.726 239.519L430.084 238.73L432.176 237.395C433.561 236.997 433.372 237.295 433.917 236.37Z"/><path fill="#26897F" d="M417.242 244.831C417.587 244.906 417.933 244.981 418.278 245.056C420.401 247.149 422.414 249.942 424.174 252.343C424.443 252.71 424.786 253.598 424.871 253.837L421.625 254.81L420.916 254.682C420.196 253.879 420.384 252.358 419.796 250.976C418.899 248.865 417.57 247.264 416.43 245.296L417.242 244.831Z"/><path fill="#001F53" d="M427.476 231.408C428.33 231.687 429.628 232.134 430.295 232.775C431.753 232.97 431.805 232.815 433.008 231.953C433.283 233.21 433.764 235.161 433.917 236.37C433.372 237.295 433.561 236.997 432.176 237.395L430.084 238.73C429.292 236.274 426.385 237.502 427.476 231.408Z"/><path fill="#2B388C" d="M433.008 231.953C433.283 233.21 433.764 235.161 433.917 236.37C433.372 237.295 433.561 236.997 432.176 237.395C431.731 235.188 431.787 234.384 430.295 232.775C431.753 232.97 431.805 232.815 433.008 231.953Z"/><path fill="#031614" d="M424.06 229.454L427.476 231.408C426.385 237.502 429.292 236.274 430.084 238.73L428.726 239.519C426.623 235.903 424.292 234.208 424.06 229.454Z"/><defs><linearGradient id="gradient_13" gradientUnits="userSpaceOnUse" x1="404.57867" y1="340.49338" x2="450.68039" y2="302.75558"><stop offset="0" stop-color="#00742B"/><stop offset="1" stop-color="#192E71"/></linearGradient></defs><path fill="url(#gradient_13)" d="M437.167 254.828C437.548 257.246 437.569 260.545 437.853 263.208C438.199 266.462 439.014 269.968 439.341 273.069C439.73 274.323 440.052 276.826 440.19 278.176C441.688 279.336 448.943 285.134 450.629 282.714C451.764 288.245 457.172 321.571 456.608 324.527C455.755 328.992 452.578 333.629 450.342 337.558C448.655 340.153 446.916 342.517 445.093 345.013C444.623 345.643 443.708 346.952 443.219 347.482C442.711 350.341 439.809 352.85 437.261 353.993C436.121 354.511 425.243 363.015 423.994 364.594C423.766 364.882 423.714 367.184 423.69 367.834C422.661 362.578 420.892 359.033 419.797 354.887C418.626 350.454 417.272 335.485 417.64 330.946C420.792 327.506 426.149 327.853 426.779 323.263C428.957 319.969 434.775 312.241 432.848 308.088C432.183 306.654 430.361 305.944 428.918 305.48C426.846 305.314 425.257 305.359 423.168 305.411C429.609 294.633 431.07 280.953 430.3 268.665C429.899 267.181 429.337 262.939 429.177 261.471C431.377 260.348 434.693 259.114 437.164 259.095C437.15 257.672 437.151 256.25 437.167 254.828Z"/><defs><linearGradient id="gradient_14" gradientUnits="userSpaceOnUse" x1="427.59464" y1="303.06622" x2="457.10999" y2="313.28073"><stop offset="0" stop-color="#4A44B6"/><stop offset="1" stop-color="#AF12D6"/></linearGradient></defs><path fill="url(#gradient_14)" d="M434.784 289.858C434.898 286.872 436.895 274.189 438.68 272.349L439.013 273.374L439.341 273.069C439.73 274.323 440.052 276.826 440.19 278.176C441.688 279.336 448.943 285.134 450.629 282.714C451.764 288.245 457.172 321.571 456.608 324.527C455.755 328.992 452.578 333.629 450.342 337.558C448.655 340.153 446.916 342.517 445.093 345.013L444.077 345.252C443.049 344.945 442.891 344.639 442.113 343.826C442.287 342.07 441.628 339.171 441.085 337.462C437.82 327.184 438.403 316.255 436.373 305.826C435.243 300.022 434.842 295.774 434.784 289.858Z"/><path fill="#F691F2" d="M440.19 278.176C441.688 279.336 448.943 285.134 450.629 282.714C451.764 288.245 457.172 321.571 456.608 324.527C455.755 328.992 452.578 333.629 450.342 337.558C449.929 337.182 449.462 336.757 449.364 336.162C446.192 316.875 443.205 297.483 440.19 278.176Z"/><path fill="#2B388C" d="M437.167 254.828C437.548 257.246 437.569 260.545 437.853 263.208C438.199 266.462 439.014 269.968 439.341 273.069L439.013 273.374L438.68 272.349C436.895 274.189 434.898 286.872 434.784 289.858C433.296 281.729 433.253 276.455 430.3 268.665C429.899 267.181 429.337 262.939 429.177 261.471C431.377 260.348 434.693 259.114 437.164 259.095C437.15 257.672 437.151 256.25 437.167 254.828Z"/><path fill="#388EB5" d="M442.113 343.826C442.891 344.639 443.049 344.945 444.077 345.252L445.093 345.013C444.623 345.643 443.708 346.952 443.219 347.482C442.181 348.721 439.183 352.732 437.606 352.588C437.38 351.17 441.15 345.476 442.113 343.826Z"/><defs><linearGradient id="gradient_15" gradientUnits="userSpaceOnUse" x1="428.29932" y1="353.47153" x2="394.63553" y2="347.81677"><stop offset="0" stop-color="#007B40"/><stop offset="1" stop-color="#029A4E"/></linearGradient></defs><path fill="url(#gradient_15)" d="M425.686 378.113C424.106 379.992 414.377 387.65 412.36 387.773L412.662 386.976C410.754 384.594 400.841 382.849 401.56 377.419C403.071 366.015 405.13 353.296 400.546 342.316C398.701 339.156 396.451 336.053 397.28 332.138C397.84 329.496 403.171 327.676 405.603 327.471C406.805 327.369 409.923 327.506 410.839 326.976C415.965 324.014 420.04 319.062 425.818 317.291C426.732 317.011 426.903 315.63 427.082 314.896L427.298 315.009C426.901 317.213 426.434 319.992 426.21 322.248C426.154 322.81 426.429 322.925 426.779 323.263C426.149 327.853 420.792 327.506 417.64 330.946C417.272 335.485 418.626 350.454 419.797 354.887C420.892 359.033 422.661 362.578 423.69 367.834C423.95 369.508 424.947 377.304 425.686 378.113Z"/><defs><linearGradient id="gradient_16" gradientUnits="userSpaceOnUse" x1="317.23471" y1="237.65532" x2="305.26923" y2="243.21898"><stop offset="0" stop-color="black"/><stop offset="1" stop-color="#003304"/></linearGradient></defs><path fill="url(#gradient_16)" d="M303.644 219.278C320.534 225.649 317.965 249.996 314.618 264.015L314.251 263.946C313.042 262.904 311.848 259.073 311.519 257.493C311.422 254.154 312.848 250.353 313.183 246.986C314.184 236.927 310.667 226.549 303.644 219.278Z"/><path fill="#1AE9B4" d="M446.616 359.875C448.462 358.528 451.042 355.812 452.739 354.127C454.093 355.701 453.364 357.702 454.918 360.596L454.938 360.784C451.872 364.208 449.92 366.279 446.357 369.304C443.104 371.882 439.718 374.558 436.193 376.757L436.04 376.318C438.091 374.891 442.183 372.203 443.908 370.312C444.224 369.967 442.667 368.969 442.187 368.384C441.044 366.993 442.224 367.613 441.654 366C439.125 367.936 437.174 370.099 434.363 372.065L434.293 371.466C437.459 368.934 444.097 363.02 446.616 359.875Z"/><defs><linearGradient id="gradient_17" gradientUnits="userSpaceOnUse" x1="278.77573" y1="376.35782" x2="273.18954" y2="369.95343"><stop offset="0" stop-color="#003F01"/><stop offset="1" stop-color="#006B20"/></linearGradient></defs><path fill="url(#gradient_17)" d="M291.403 360.377C293.147 358.999 295.128 356.753 296.8 355.108C295.773 358.838 288.646 361.873 288.062 366.338C288.017 366.677 287.667 367.175 287.465 367.46C287.954 367.529 290.416 366.197 290.919 365.847C294.027 363.686 297.044 357.423 299.636 355.627C292.743 367.375 281.403 375.846 268.182 379.125C267.374 379.327 266.579 379.52 265.774 379.738C264.041 379.593 264.093 379.56 262.427 379.919C270.277 373.864 280.159 372.928 287.897 363.842C289.11 362.722 290.245 361.552 291.403 360.377Z"/><path fill="#0A8F4A" d="M337.956 244.059C342.631 248.233 344.101 247.183 349.465 248.366C350.469 251.052 346.363 258.992 345.431 261.78C344.615 257.361 336.548 251.508 337.956 244.059Z"/><path fill="#0A8F4A" d="M265.774 379.738C263.389 380.518 256.257 382.383 255.126 379.265C255.355 378.466 255.123 378.75 255.662 378.252C256.225 378.939 256.503 379.48 256.938 380.241C257.358 380.341 257.616 380.383 257.765 379.844C260.145 371.249 269.572 373.607 276.611 371.315C280.924 369.91 284.236 365.392 287.897 363.842C280.159 372.928 270.277 373.864 262.427 379.919C264.093 379.56 264.041 379.593 265.774 379.738Z"/><path fill="#0A8F4A" d="M371.938 337.758L371.7 337.097C373.077 334.452 384.162 330.077 387.373 328.784C394.602 325.871 401.398 322.466 408.427 319.146C406.445 322.47 379.849 332.006 375.027 335.089C374.387 335.498 374.159 335.985 373.946 336.705C374.374 337.385 375.061 337.861 375.848 338.023C378.87 338.619 385.177 337.705 387.116 338.492L387.37 338.945C386.597 340.523 383.831 340.893 382.158 341.288L382.274 341.329C379.238 341.841 378.073 342.142 375.207 341.02L373.307 340.71L373.862 340.259L373.921 339.664C373.486 338.803 372.72 338.35 371.938 337.758Z"/><path fill="#034822" d="M371.938 337.758C376.332 339.301 382.308 339.088 386.877 338.569C383.475 340.899 379.238 341.49 375.207 341.02L373.307 340.71L373.862 340.259L373.921 339.664C373.486 338.803 372.72 338.35 371.938 337.758Z"/><path fill="#0A8F4A" d="M307.218 288.63C308.73 290.391 313.082 296.379 312.955 298.319C312.787 300.889 309.359 302.171 309.151 306.491C308.713 303.997 308.295 302.12 307.605 299.688C306.884 297.144 305.374 293.889 305.244 291.347C305.656 289.915 306.533 290.451 307.218 288.63Z"/><path fill="#04391D" d="M341.781 279.712C340.842 279.871 339.171 279.686 338.308 279.162C336.986 277.164 340.002 274.644 341.355 273.302C341.992 275.695 341.498 277.846 341.781 279.712Z"/><path fill="#F7F9F9" d="M432.045 193.574C433.016 194.407 433.815 195.336 434.677 196.281C439.535 202.567 439.013 207.014 440.142 214.505L443.224 234.631C445.549 250.594 448.398 266.735 450.629 282.714C448.943 285.134 441.688 279.336 440.19 278.176C440.052 276.826 439.73 274.323 439.341 273.069C439.014 269.968 438.199 266.462 437.853 263.208C437.569 260.545 437.548 257.246 437.167 254.828L436.88 253.148C435.185 246.828 434.734 242.769 433.917 236.37C433.764 235.161 433.283 233.21 433.008 231.953C430.957 224.95 431.063 219.853 429.471 213.491C428.881 211.76 428.386 209.714 427.872 207.92C428.428 207.272 429.072 206.378 429.604 205.683C429.551 205.308 429.514 204.911 429.441 204.538C429.03 202.45 431.569 196.291 432.045 193.574Z"/><path fill="#036235" d="M432.045 193.574C433.016 194.407 433.815 195.336 434.677 196.281L434.469 196.687C432.874 199.831 431.84 202.646 429.604 205.683C429.551 205.308 429.514 204.911 429.441 204.538C429.03 202.45 431.569 196.291 432.045 193.574Z"/><path fill="#3AC5B9" d="M72.625 266.46C76.3184 270.689 82.3231 275.16 87.7272 276.78C88.5305 277.595 88.614 277.644 89.0954 278.656C88.8893 279.942 88.141 280.062 87.017 280.651L87.2191 284.612L87.2525 285.798C85.4395 283.734 80.7051 280.301 78.3078 279.066C76.0136 277.108 74.3012 274.917 71.2725 274.751C69.8706 271.389 71.0393 269.48 72.625 266.46Z"/><path fill="#3E0A1A" d="M87.3266 265.037C90.739 265.478 97.1235 268.916 93.2289 272.904C92.3369 273.667 92.814 273.502 91.8352 273.671C91.2465 273.176 87.4409 265.952 87.3266 265.037Z"/></svg>