<?xml version="1.0" encoding="utf-8" ?><svg xmlns="http://www.w3.org/2000/svg" xmlns:xlink="http://www.w3.org/1999/xlink" width="514" height="534" viewBox="0 0 514 534"><metadata><c2pa:manifest xmlns:c2pa="http://c2pa.org/manifest">AAAlRGp1bWIAAAAeanVtZGMycGEAEQAQgAAAqgA4m3EDYzJwYQAAAA6CanVtYgAAAEdqdW1kYzJtYQARABCAAACqADibcQN1cm46YzJwYTo0MzQ4ZGJlNS03ODA0LTRhYWItYjBjZC02YTdlMDcxMzBiYTAAAAADs2p1bWIAAAApanVtZGMyYXMAEQAQgAAAqgA4m3EDYzJwYS5hc3NlcnRpb25zAAAAAMlqdW1iAAAARGp1bWRjYm9yABEAEIAAAKoAOJtxE2MycGEuaW5ncmVkaWVudC52MwAAAAAYYzJzaKlMFAq0K+65VyHOcPQzcA0AAAB9Y2JvcqRscmVsYXRpb25zaGlwaHBhcmVudE9maGRjOnRpdGxlZnNvdXJjZWlkYzpmb3JtYXRqaW1hZ2Uvd2VicGppbnN0YW5jZUlEeCx4bXA6aWlkOjY2ZDA2OWI0LTE5ZWQtNDY2YS1hOTNlLTg1Mjc3MWExNjM0ZAAAAfVqdW1iAAAAQWp1bWRjYm9yABEAEIAAAKoAOJtxE2MycGEuYWN0aW9ucy52MgAAAAAYYzJzaE83iBxuye+toGyDAMPUC0IAAAGsY2JvcqFnYWN0aW9uc4KiZmFjdGlvbmtjMnBhLm9wZW5lZGpwYXJhbWV0ZXJzoWtpbmdyZWRpZW50c4GiY3VybHgtc2VsZiNqdW1iZj1jMnBhLmFzc2VydGlvbnMvYzJwYS5pbmdyZWRpZW50LnYzZGhhc2hYIJZHHfCsRzsYn03OUX7FvIDZxuSDezOyhmGbe+FHzE2DpGZhY3Rpb25rYzJwYS5lZGl0ZWRqcGFyYW1ldGVyc6FraW5ncmVkaWVudHOBomN1cmx4LXNlbGYjanVtYmY9YzJwYS5hc3NlcnRpb25zL2MycGEuaW5ncmVkaWVudC52M2RoYXNoWCCWRx3wrEc7GJ9NzlF+xbyA2cbkg3szsoZhm3vhR8xNg3FkaWdpdGFsU291cmNlVHlwZXhTaHR0cDovL2N2LmlwdGMub3JnL25ld3Njb2Rlcy9kaWdpdGFsc291cmNldHlwZS9jb21wb3NpdGVXaXRoVHJhaW5lZEFsZ29yaXRobWljTWVkaWFrZGVzY3JpcHRpb252Q3JlYXRlZCBieSBSZWNyYWZ0IEFJLgAAAMRqdW1iAAAAQGp1bWRjYm9yABEAEIAAAKoAOJtxE2MycGEuaGFzaC5kYXRhAAAAABhjMnNou0sLuDhMLz/EIiACfLtGygAAAHxjYm9ypWpleGNsdXNpb25zgaJlc3RhcnQY2WZsZW5ndGgZE4xkbmFtZW5qdW1iZiBtYW5pZmVzdGNhbGdmc2hhMjU2ZGhhc2hYIAIG2kainpbW+DYxxI5CohlxdX2ji+kp2FrpoS0IHhh2Y3BhZEkAAAAAAAAAAAAAAAKkanVtYgAAACdqdW1kYzJjbAARABCAAACqADibcQNjMnBhLmNsYWltLnYyAAAAAnVjYm9yp2ppbnN0YW5jZUlEeCx4bXA6aWlkOjEwMzNhNWY1LTJiZDctNDJjNS04YWFkLWY5NTM1MmY5ZWRmZHRjbGFpbV9nZW5lcmF0b3JfaW5mb6NkbmFtZWpyZWNyYWZ0LmFpZ3ZlcnNpb254KDgxY2U4MmUyYzVjM2NiZmJlOGM2ZmJlMTc5ZDVmOGQ5MWM0MDljZTF3b3JnLmNvbnRlbnRhdXRoLmMycGFfcnNmMC45MC43aXNpZ25hdHVyZXhNc2VsZiNqdW1iZj0vYzJwYS91cm46YzJwYTo0MzQ4ZGJlNS03ODA0LTRhYWItYjBjZC02YTdlMDcxMzBiYTAvYzJwYS5zaWduYXR1cmVyY3JlYXRlZF9hc3NlcnRpb25zgqJjdXJseCpzZWxmI2p1bWJmPWMycGEuYXNzZXJ0aW9ucy9jMnBhLmFjdGlvbnMudjJkaGFzaFggwubcRXlo4ZBTcuAK9odektstVC2Pg4R//ggF59h+lyeiY3VybHgpc2VsZiNqdW1iZj1jMnBhLmFzc2VydGlvbnMvYzJwYS5oYXNoLmRhdGFkaGFzaFggLJ1UHZzAmJV4kDykr/MYHXfnt16VwvUk6evcgtR6aKhzZ2F0aGVyZWRfYXNzZXJ0aW9uc4GiY3VybHgtc2VsZiNqdW1iZj1jMnBhLmFzc2VydGlvbnMvYzJwYS5pbmdyZWRpZW50LnYzZGhhc2hYIJZHHfCsRzsYn03OUX7FvIDZxuSDezOyhmGbe+FHzE2DaGRjOnRpdGxleBpSZWNyYWZ0IEFJIEdlbmVyYXRlZCBJbWFnZWNhbGdmc2hhMjU2AAAH3Gp1bWIAAAAoanVtZGMyY3MAEQAQgAAAqgA4m3EDYzJwYS5zaWduYXR1cmUAAAAHrGNib3LShFkDsKIBJhghglkB5zCCAeMwggGJoAMCAQICCQC33lpjQ1FuejAKBggqhkjOPQQDAjBAMR8wHQYDVQQDDBZSZWNyYWZ0IFN0YWdpbmcgRGV2IENBMRAwDgYDVQQKDAdSZWNyYWZ0MQswCQYDVQQGEwJVUzAeFw0yNjA2MTIxOTQzNTBaFw0yNzA2MTIxOTQzNTBaMDcxCzAJBgNVBAYTAlVTMRMwEQYDVQQKEwpSZWNyYWZ0IEFJMRMwEQYDVQQDEwpyZWNyYWZ0LmFpMFkwEwYHKoZIzj0CAQYIKoZIzj0DAQcDQgAESmk1WwArIPw3hty3jsWHSA/1QOhBRu9xOjpJ2/iiIghScoEVM+Lnjds/7dqmG+giFL0vEb4DoogpX6KrGLcPNaN1MHMwDAYDVR0TAQH/BAIwADAOBgNVHQ8BAf8EBAMCBsAwEwYDVR0lBAwwCgYIKwYBBQUHAwQwHQYDVR0OBBYEFC8x6QXp/eki9cuCDx2vDJDLIV39MB8GA1UdIwQYMBaAFAILKjgayqqXSv/5v5MWaO2UeHm3MAoGCCqGSM49BAMCA0gAMEUCIFPISltGl775PEkIFRTZGsevWJvWnvBrE9kWU0MPgedQAiEAtA+AZBKEQ+DdK9mUZDctB2Wlt1iAsv0GRjfeYpReMsxZAb0wggG5MIIBX6ADAgECAgkAnPloO0+gE28wCgYIKoZIzj0EAwIwQDEfMB0GA1UEAwwWUmVjcmFmdCBTdGFnaW5nIERldiBDQTEQMA4GA1UECgwHUmVjcmFmdDELMAkGA1UEBhMCVVMwHhcNMjYwNjEyMTk0MDE2WhcNMjgwNjExMTk0MDE2WjBAMR8wHQYDVQQDDBZSZWNyYWZ0IFN0YWdpbmcgRGV2IENBMRAwDgYDVQQKDAdSZWNyYWZ0MQswCQYDVQQGEwJVUzBZMBMGByqGSM49AgEGCCqGSM49AwEHA0IABEPSEAZXFWymij2K0EnzoS/9NLO8VAwu0YpyLizvyNZPfcvcoeqFhfZD8Wj/rcdb9T3ji98q1arie99B9GRog8qjQjBAMA8GA1UdEwEB/wQFMAMBAf8wDgYDVR0PAQH/BAQDAgGGMB0GA1UdDgQWBBQCCyo4Gsqql0r/+b+TFmjtlHh5tzAKBggqhkjOPQQDAgNIADBFAiBUMDSJi5WA3kIY4BfmYqk24HLs0qpjicN0NpUP4bvNxQIhAPTvHC5v8X6FS6geI7XW7h84t1i/qdkTfg0RpMKWLMFboWNwYWRZA6QAAAAAAAAAAAAAAAAAAAAAAAAAAAAAAAAAAAAAAAAAAAAAAAAAAAAAAAAAAAAAAAAAAAAAAAAAAAAAAAAAAAAAAAAAAAAAAAAAAAAAAAAAAAAAAAAAAAAAAAAAAAAAAAAAAAAAAAAAAAAAAAAAAAAAAAAAAAAAAAAAAAAAAAAAAAAAAAAAAAAAAAAAAAAAAAAAAAAAAAAAAAAAAAAAAAAAAAAAAAAAAAAAAAAAAAAAAAAAAAAAAAAAAAAAAAAAAAAAAAAAAAAAAAAAAAAAAAAAAAAAAAAAAAAAAAAAAAAAAAAAAAAAAAAAAAAAAAAAAAAAAAAAAAAAAAAAAAAAAAAAAAAAAAAAAAAAAAAAAAAAAAAAAAAAAAAAAAAAAAAAAAAAAAAAAAAAAAAAAAAAAAAAAAAAAAAAAAAAAAAAAAAAAAAAAAAAAAAAAAAAAAAAAAAAAAAAAAAAAAAAAAAAAAAAAAAAAAAAAAAAAAAAAAAAAAAAAAAAAAAAAAAAAAAAAAAAAAAAAAAAAAAAAAAAAAAAAAAAAAAAAAAAAAAAAAAAAAAAAAAAAAAAAAAAAAAAAAAAAAAAAAAAAAAAAAAAAAAAAAAAAAAAAAAAAAAAAAAAAAAAAAAAAAAAAAAAAAAAAAAAAAAAAAAAAAAAAAAAAAAAAAAAAAAAAAAAAAAAAAAAAAAAAAAAAAAAAAAAAAAAAAAAAAAAAAAAAAAAAAAAAAAAAAAAAAAAAAAAAAAAAAAAAAAAAAAAAAAAAAAAAAAAAAAAAAAAAAAAAAAAAAAAAAAAAAAAAAAAAAAAAAAAAAAAAAAAAAAAAAAAAAAAAAAAAAAAAAAAAAAAAAAAAAAAAAAAAAAAAAAAAAAAAAAAAAAAAAAAAAAAAAAAAAAAAAAAAAAAAAAAAAAAAAAAAAAAAAAAAAAAAAAAAAAAAAAAAAAAAAAAAAAAAAAAAAAAAAAAAAAAAAAAAAAAAAAAAAAAAAAAAAAAAAAAAAAAAAAAAAAAAAAAAAAAAAAAAAAAAAAAAAAAAAAAAAAAAAAAAAAAAAAAAAAAAAAAAAAAAAAAAAAAAAAAAAAAAAAAAAAAAAAAAAAAAAAAAAAAAAAAAAAAAAAAAAAAAAAAAAAAAAAAAAAAAAAAAAAAAAAAAAAAAAAAAAAAAAAAAAAAAAAAAAAAAAAAAAAAAAAAAAAAAAAAAAAAAAAAAAAAAAAAAAAAAAAAAAAAAAAAAAAAAAAAAAAAAAAAAAAAAPZYQPxbXeAp1gQ6B9ZqjK/ib4vZVG8iCQeA9w3HT/XHSNL23eKUGJ2gqo0EfPMiqV0tGqRjy+cbCQ4cxp6qKHoKvacAABacanVtYgAAAEdqdW1kYzJtYQARABCAAACqADibcQN1cm46YzJwYToxN2QwY2VmMi01OGU2LTQyMmMtYWU4Ny04ZjVkNjFhYmE2MjkAAAAL22p1bWIAAAApanVtZGMyYXMAEQAQgAAAqgA4m3EDYzJwYS5hc3NlcnRpb25zAAAACJVqdW1iAAAARGp1bWRjYm9yABEAEIAAAKoAOJtxE2MycGEuaW5ncmVkaWVudC52MwAAAAAYYzJzaAAi0P+tom9abQFDBIvkbqwAAAhJY2JvcqdscmVsYXRpb25zaGlwaHBhcmVudE9maGRjOnRpdGxlZnNvdXJjZWlkYzpmb3JtYXRtaW1hZ2Uvc3ZnK3htbHF2YWxpZGF0aW9uUmVzdWx0c6JuYWN0aXZlTWFuaWZlc3SjZ3N1Y2Nlc3OGo2Rjb2RleB1jbGFpbVNpZ25hdHVyZS5pbnNpZGVWYWxpZGl0eWN1cmx4TXNlbGYjanVtYmY9L2MycGEvdXJuOmMycGE6NDM0OGRiZTUtNzgwNC00YWFiLWIwY2QtNmE3ZTA3MTMwYmEwL2MycGEuc2lnbmF0dXJla2V4cGxhbmF0aW9udWNsYWltIHNpZ25hdHVyZSB2YWxpZKNkY29kZXgYY2xhaW1TaWduYXR1cmUudmFsaWRhdGVkY3VybHhNc2VsZiNqdW1iZj0vYzJwYS91cm46YzJwYTo0MzQ4ZGJlNS03ODA0LTRhYWItYjBjZC02YTdlMDcxMzBiYTAvYzJwYS5zaWduYXR1cmVrZXhwbGFuYXRpb251Y2xhaW0gc2lnbmF0dXJlIHZhbGlko2Rjb2RleBlhc3NlcnRpb24uaGFzaGVkVVJJLm1hdGNoY3VybHhec2VsZiNqdW1iZj0vYzJwYS91cm46YzJwYTo0MzQ4ZGJlNS03ODA0LTRhYWItYjBjZC02YTdlMDcxMzBiYTAvYzJwYS5hc3NlcnRpb25zL2MycGEuYWN0aW9ucy52MmtleHBsYW5hdGlvbng+aGFzaGVkIHVyaSBtYXRjaGVkOiBzZWxmI2p1bWJmPWMycGEuYXNzZXJ0aW9ucy9jMnBhLmFjdGlvbnMudjKjZGNvZGV4GWFzc2VydGlvbi5oYXNoZWRVUkkubWF0Y2hjdXJseF1zZWxmI2p1bWJmPS9jMnBhL3VybjpjMnBhOjQzNDhkYmU1LTc4MDQtNGFhYi1iMGNkLTZhN2UwNzEzMGJhMC9jMnBhLmFzc2VydGlvbnMvYzJwYS5oYXNoLmRhdGFrZXhwbGFuYXRpb254PWhhc2hlZCB1cmkgbWF0Y2hlZDogc2VsZiNqdW1iZj1jMnBhLmFzc2VydGlvbnMvYzJwYS5oYXNoLmRhdGGjZGNvZGV4GWFzc2VydGlvbi5oYXNoZWRVUkkubWF0Y2hjdXJseGFzZWxmI2p1bWJmPS9jMnBhL3VybjpjMnBhOjQzNDhkYmU1LTc4MDQtNGFhYi1iMGNkLTZhN2UwNzEzMGJhMC9jMnBhLmFzc2VydGlvbnMvYzJwYS5pbmdyZWRpZW50LnYza2V4cGxhbmF0aW9ueEFoYXNoZWQgdXJpIG1hdGNoZWQ6IHNlbGYjanVtYmY9YzJwYS5hc3NlcnRpb25zL2MycGEuaW5ncmVkaWVudC52M6NkY29kZXgYYXNzZXJ0aW9uLmRhdGFIYXNoLm1hdGNoY3VybHhdc2VsZiNqdW1iZj0vYzJwYS91cm46YzJwYTo0MzQ4ZGJlNS03ODA0LTRhYWItYjBjZC02YTdlMDcxMzBiYTAvYzJwYS5hc3NlcnRpb25zL2MycGEuaGFzaC5kYXRha2V4cGxhbmF0aW9ub2RhdGEgaGFzaCB2YWxpZG1pbmZvcm1hdGlvbmFsgGdmYWlsdXJlgaNkY29kZXgbc2lnbmluZ0NyZWRlbnRpYWwudW50cnVzdGVkY3VybHhNc2VsZiNqdW1iZj0vYzJwYS91cm46YzJwYTo0MzQ4ZGJlNS03ODA0LTRhYWItYjBjZC02YTdlMDcxMzBiYTAvYzJwYS5zaWduYXR1cmVrZXhwbGFuYXRpb254HXNpZ25pbmcgY2VydGlmaWNhdGUgdW50cnVzdGVkcGluZ3JlZGllbnREZWx0YXOBonZpbmdyZWRpZW50QXNzZXJ0aW9uVVJJeGFzZWxmI2p1bWJmPS9jMnBhL3VybjpjMnBhOjQzNDhkYmU1LTc4MDQtNGFhYi1iMGNkLTZhN2UwNzEzMGJhMC9jMnBhLmFzc2VydGlvbnMvYzJwYS5pbmdyZWRpZW50LnYzcHZhbGlkYXRpb25EZWx0YXOjZ3N1Y2Nlc3OAbWluZm9ybWF0aW9uYWyBo2Rjb2RleBxpbmdyZWRpZW50LnVua25vd25Qcm92ZW5hbmNlY3VybHhhc2VsZiNqdW1iZj0vYzJwYS91cm46YzJwYTo0MzQ4ZGJlNS03ODA0LTRhYWItYjBjZC02YTdlMDcxMzBiYTAvYzJwYS5hc3NlcnRpb25zL2MycGEuaW5ncmVkaWVudC52M2tleHBsYW5hdGlvbngrc291cmNlOiBpbmdyZWRpZW50IGRvZXMgbm90IGhhdmUgcHJvdmVuYW5jZWdmYWlsdXJlgGppbnN0YW5jZUlEeCx4bXA6aWlkOmM4MTIzMDRhLWI2Y2YtNDcxMC1iOTA5LWVmOGY3MDZhYjMwZG5hY3RpdmVNYW5pZmVzdKNjdXJseD5zZWxmI2p1bWJmPS9jMnBhL3VybjpjMnBhOjQzNDhkYmU1LTc4MDQtNGFhYi1iMGNkLTZhN2UwNzEzMGJhMGNhbGdmc2hhMjU2ZGhhc2hYIBDSFDFblm6jcDVpGLJzOdV1EWuLE2zObEldKq8hw0Y2bmNsYWltU2lnbmF0dXJlo2N1cmx4TXNlbGYjanVtYmY9L2MycGEvdXJuOmMycGE6NDM0OGRiZTUtNzgwNC00YWFiLWIwY2QtNmE3ZTA3MTMwYmEwL2MycGEuc2lnbmF0dXJlY2FsZ2ZzaGEyNTZkaGFzaFggjjqzbxdzpeMYonA7+aEht9HIWEBvB0XcSgZtuxMeuoQAAAHuanVtYgAAAEFqdW1kY2JvcgARABCAAACqADibcRNjMnBhLmFjdGlvbnMudjIAAAAAGGMyc2hz7w0Nos13sAv+yQTl+Gx4AAABpWNib3KhZ2FjdGlvbnOComZhY3Rpb25rYzJwYS5vcGVuZWRqcGFyYW1ldGVyc6FraW5ncmVkaWVudHOBomN1cmx4LXNlbGYjanVtYmY9YzJwYS5hc3NlcnRpb25zL2MycGEuaW5ncmVkaWVudC52M2RoYXNoWCAQQvkbm4S2DKul8qC2rP6Xj68L7RVR8kloCP67Qbst1KRmYWN0aW9ubGMycGEuY3JlYXRlZGpwYXJhbWV0ZXJzoWtpbmdyZWRpZW50c4GiY3VybHgtc2VsZiNqdW1iZj1jMnBhLmFzc2VydGlvbnMvYzJwYS5pbmdyZWRpZW50LnYzZGhhc2hYIBBC+RubhLYMq6XyoLas/pePrwvtFVHySWgI/rtBuy3UcWRpZ2l0YWxTb3VyY2VUeXBleEFodHRwOi8vY3YuaXB0Yy5vcmcvbmV3c2NvZGVzL2RpZ2l0YWxzb3VyY2V0eXBlL2NvbXBvc2l0ZVN5bnRoZXRpY2tkZXNjcmlwdGlvbngfQ29tcG9zZWQgaW4gdGhlIFJlY3JhZnQgZWRpdG9yLgAAASdqdW1iAAAAQGp1bWRjYm9yABEAEIAAAKoAOJtxE2MycGEuaGFzaC5kYXRhAAAAABhjMnNo3RdDcDEZxNRUkEcP8RJXuQAAAN9jYm9ypWpleGNsdXNpb25zgaJlc3RhcnQYqWZsZW5ndGgZMgpkbmFtZW5qdW1iZiBtYW5pZmVzdGNhbGdmc2hhMjU2ZGhhc2hYIILGGv5eKfbE3q9OK3PiqPkBVQOfxRinIE6IHcbUQwFBY3BhZFhrAAAAAAAAAAAAAAAAAAAAAAAAAAAAAAAAAAAAAAAAAAAAAAAAAAAAAAAAAAAAAAAAAAAAAAAAAAAAAAAAAAAAAAAAAAAAAAAAAAAAAAAAAAAAAAAAAAAAAAAAAAAAAAAAAAAAAAAAAAAAAAAAAAKWanVtYgAAACdqdW1kYzJjbAARABCAAACqADibcQNjMnBhLmNsYWltLnYyAAAAAmdjYm9yp2ppbnN0YW5jZUlEeCx4bXA6aWlkOmE0NDA0ZDNjLTgxODgtNDZlZC1iM2NjLWNjOGY1YmJjMmVmN3RjbGFpbV9nZW5lcmF0b3JfaW5mb6NkbmFtZWpyZWNyYWZ0LmFpZ3ZlcnNpb254KDgxY2U4MmUyYzVjM2NiZmJlOGM2ZmJlMTc5ZDVmOGQ5MWM0MDljZTF3b3JnLmNvbnRlbnRhdXRoLmMycGFfcnNmMC45MC43aXNpZ25hdHVyZXhNc2VsZiNqdW1iZj0vYzJwYS91cm46YzJwYToxN2QwY2VmMi01OGU2LTQyMmMtYWU4Ny04ZjVkNjFhYmE2MjkvYzJwYS5zaWduYXR1cmVyY3JlYXRlZF9hc3NlcnRpb25zgqJjdXJseCpzZWxmI2p1bWJmPWMycGEuYXNzZXJ0aW9ucy9jMnBhLmFjdGlvbnMudjJkaGFzaFggX42ayH5pR5oZOV5rwJrpkoCZFM7+F5wIxisPDJkH9rOiY3VybHgpc2VsZiNqdW1iZj1jMnBhLmFzc2VydGlvbnMvYzJwYS5oYXNoLmRhdGFkaGFzaFggZEHMWBVaMoU6ldovHSd9W4WI1iExbcZO40b5bMrQ1pxzZ2F0aGVyZWRfYXNzZXJ0aW9uc4GiY3VybHgtc2VsZiNqdW1iZj1jMnBhLmFzc2VydGlvbnMvYzJwYS5pbmdyZWRpZW50LnYzZGhhc2hYIBBC+RubhLYMq6XyoLas/pePrwvtFVHySWgI/rtBuy3UaGRjOnRpdGxlbVJlY3JhZnQgSW1hZ2VjYWxnZnNoYTI1NgAAB9xqdW1iAAAAKGp1bWRjMmNzABEAEIAAAKoAOJtxA2MycGEuc2lnbmF0dXJlAAAAB6xjYm9y0oRZA7CiASYYIYJZAecwggHjMIIBiaADAgECAgkAt95aY0NRbnowCgYIKoZIzj0EAwIwQDEfMB0GA1UEAwwWUmVjcmFmdCBTdGFnaW5nIERldiBDQTEQMA4GA1UECgwHUmVjcmFmdDELMAkGA1UEBhMCVVMwHhcNMjYwNjEyMTk0MzUwWhcNMjcwNjEyMTk0MzUwWjA3MQswCQYDVQQGEwJVUzETMBEGA1UEChMKUmVjcmFmdCBBSTETMBEGA1UEAxMKcmVjcmFmdC5haTBZMBMGByqGSM49AgEGCCqGSM49AwEHA0IABEppNVsAKyD8N4bct47Fh0gP9UDoQUbvcTo6Sdv4oiIIUnKBFTPi543bP+3aphvoIhS9LxG+A6KIKV+iqxi3DzWjdTBzMAwGA1UdEwEB/wQCMAAwDgYDVR0PAQH/BAQDAgbAMBMGA1UdJQQMMAoGCCsGAQUFBwMEMB0GA1UdDgQWBBQvMekF6f3pIvXLgg8drwyQyyFd/TAfBgNVHSMEGDAWgBQCCyo4Gsqql0r/+b+TFmjtlHh5tzAKBggqhkjOPQQDAgNIADBFAiBTyEpbRpe++TxJCBUU2RrHr1ib1p7waxPZFlNDD4HnUAIhALQPgGQShEPg3SvZlGQ3LQdlpbdYgLL9BkY33mKUXjLMWQG9MIIBuTCCAV+gAwIBAgIJAJz5aDtPoBNvMAoGCCqGSM49BAMCMEAxHzAdBgNVBAMMFlJlY3JhZnQgU3RhZ2luZyBEZXYgQ0ExEDAOBgNVBAoMB1JlY3JhZnQxCzAJBgNVBAYTAlVTMB4XDTI2MDYxMjE5NDAxNloXDTI4MDYxMTE5NDAxNlowQDEfMB0GA1UEAwwWUmVjcmFmdCBTdGFnaW5nIERldiBDQTEQMA4GA1UECgwHUmVjcmFmdDELMAkGA1UEBhMCVVMwWTATBgcqhkjOPQIBBggqhkjOPQMBBwNCAARD0hAGVxVspoo9itBJ86Ev/TSzvFQMLtGKci4s78jWT33L3KHqhYX2Q/Fo/63HW/U944vfKtWq4nvfQfRkaIPKo0IwQDAPBgNVHRMBAf8EBTADAQH/MA4GA1UdDwEB/wQEAwIBhjAdBgNVHQ4EFgQUAgsqOBrKqpdK//m/kxZo7ZR4ebcwCgYIKoZIzj0EAwIDSAAwRQIgVDA0iYuVgN5CGOAX5mKpNuBy7NKqY4nDdDaVD+G7zcUCIQD07xwub/F+hUuoHiO11u4fOLdYv6nZE34NEaTClizBW6FjcGFkWQOkAAAAAAAAAAAAAAAAAAAAAAAAAAAAAAAAAAAAAAAAAAAAAAAAAAAAAAAAAAAAAAAAAAAAAAAAAAAAAAAAAAAAAAAAAAAAAAAAAAAAAAAAAAAAAAAAAAAAAAAAAAAAAAAAAAAAAAAAAAAAAAAAAAAAAAAAAAAAAAAAAAAAAAAAAAAAAAAAAAAAAAAAAAAAAAAAAAAAAAAAAAAAAAAAAAAAAAAAAAAAAAAAAAAAAAAAAAAAAAAAAAAAAAAAAAAAAAAAAAAAAAAAAAAAAAAAAAAAAAAAAAAAAAAAAAAAAAAAAAAAAAAAAAAAAAAAAAAAAAAAAAAAAAAAAAAAAAAAAAAAAAAAAAAAAAAAAAAAAAAAAAAAAAAAAAAAAAAAAAAAAAAAAAAAAAAAAAAAAAAAAAAAAAAAAAAAAAAAAAAAAAAAAAAAAAAAAAAAAAAAAAAAAAAAAAAAAAAAAAAAAAAAAAAAAAAAAAAAAAAAAAAAAAAAAAAAAAAAAAAAAAAAAAAAAAAAAAAAAAAAAAAAAAAAAAAAAAAAAAAAAAAAAAAAAAAAAAAAAAAAAAAAAAAAAAAAAAAAAAAAAAAAAAAAAAAAAAAAAAAAAAAAAAAAAAAAAAAAAAAAAAAAAAAAAAAAAAAAAAAAAAAAAAAAAAAAAAAAAAAAAAAAAAAAAAAAAAAAAAAAAAAAAAAAAAAAAAAAAAAAAAAAAAAAAAAAAAAAAAAAAAAAAAAAAAAAAAAAAAAAAAAAAAAAAAAAAAAAAAAAAAAAAAAAAAAAAAAAAAAAAAAAAAAAAAAAAAAAAAAAAAAAAAAAAAAAAAAAAAAAAAAAAAAAAAAAAAAAAAAAAAAAAAAAAAAAAAAAAAAAAAAAAAAAAAAAAAAAAAAAAAAAAAAAAAAAAAAAAAAAAAAAAAAAAAAAAAAAAAAAAAAAAAAAAAAAAAAAAAAAAAAAAAAAAAAAAAAAAAAAAAAAAAAAAAAAAAAAAAAAAAAAAAAAAAAAAAAAAAAAAAAAAAAAAAAAAAAAAAAAAAAAAAAAAAAAAAAAAAAAAAAAAAAAAAAAAAAAAAAAAAAAAAAAAAAAAAAAAAAAAAAAAAAAAAAAAAAAAAAAAAAAAAAAAAAAAAAAAAAAAAAAAAAAAAAAAAAAAAAAAAAAAAAAAAAAAAAAAAAAAAAAAAAAAAAAAAAAAAAAAAAAAAAAAAAAAAAAAAAAAAAAAAAAAAAAAAAAAAAAAAAAAAAAAAAAAAAAAAAAAAD2WEA3ZJReD9CI8Ntui4mnQbW2FTsliIaPfvEgSp3wXKsfr3DDIWTmDEKac3A7+ygpr9khUr+jmZ0k4J9XVJIVwfJQ</c2pa:manifest></metadata><path fill="#010405" d="M40.5978 253.647C39.3932 248.676 36.9984 243.533 35.5452 238.606L19.2682 182.861C18.1278 178.838 16.6637 174.705 15.4627 170.596C10.9724 155.232 10.6314 137.071 19.0351 122.942C23.316 117.301 27.8959 109.937 33.0473 105.082C40.8422 98.4845 48.839 89.9327 57.3697 84.2444C65.1077 79.0847 74.1795 72.8488 82.2618 68.3549C93.3102 62.2117 105.431 56.6374 116.696 50.7971C123.731 47.1497 133.436 44.0131 140.931 41.202C162.779 32.8785 185.105 25.8663 207.789 20.2028C213.891 18.6557 220.169 17.7311 226.357 16.5087C236.852 14.4355 247.545 12.6564 258.157 11.2686C263.48 10.5725 269.653 10.7111 275.072 10.2408C280.836 9.74079 286.62 9.22667 292.397 8.91018C307.768 8.1668 323.163 8.02928 338.545 8.49792C347.149 8.82948 355.839 9.32858 364.371 10.8511C376.504 13.1587 388.626 18.0705 399.368 24.0104C414.108 32.1602 419.766 45.2649 422.786 61.0107C425.317 74.2011 428.066 87.4251 431.739 100.331C433.695 107.203 434.568 114.763 436.294 121.726C437.105 124.908 437.46 128.249 438.358 131.488C439.846 137.237 442.786 149.122 441.479 154.856C439.319 164.329 438.047 162.316 444.465 170.649C445.482 171.969 447.691 178.906 448.059 181.014C449.194 187.51 450.341 194.127 451.723 200.702L464.367 258.047C466.279 266.517 467.635 274.176 469.79 282.772C470.632 286.634 471.542 291.286 471.756 295.242C471.926 298.384 470.532 303.661 471.304 306.7C471.716 308.326 474.741 311.602 475.871 313.159C480.238 319.212 481.832 330.911 483.083 338.351L486.097 356.027C487.34 363.451 488.763 367.258 489.46 375.479C489.8 379.304 489.684 383.156 489.117 386.955C487.227 398.878 474.982 415.987 466.986 425.204C453.772 440.434 436.396 453.098 419.43 463.869C405.683 472.597 391.324 479.763 376.354 486.086C338.423 502.183 298.173 512.146 257.113 515.601C254.042 515.873 250.475 516.584 247.495 516.675C232.125 517.144 216.51 517.854 201.235 515.793C197.1 515.235 192.645 515.519 188.505 514.827C181.66 514.034 175.115 511.942 168.517 510.761C167.199 517.832 167.815 522.692 161.409 527.298C157.58 530.052 150.728 531.753 147.58 534L82.7737 534C80.1425 531.916 67.6787 528.565 63.2644 526.696C51.7951 521.842 42.0119 515.732 32.7487 507.318C29.8023 504.641 27.3436 501.486 24.5067 498.702C19.8124 493.927 15.4917 490.38 12.9659 483.947C8.30153 472.068 8.53527 466.032 14.1945 454.272C15.5285 451.5 16.8051 449.088 18.5744 446.49C19.7725 444.731 24.5268 439.996 24.5764 438.161C24.6379 435.882 23.2478 431.344 22.801 428.813C22.464 425.645 21.126 421.555 20.9739 418.458C20.665 412.168 19.6469 405.442 19.3514 399.225C18.436 382.58 18.8014 365.89 20.4444 349.301C20.7231 346.446 20.9328 341.968 21.4022 339.309C22.6866 332.035 24.9068 324.618 26.5121 317.356C28.0944 310.199 28.7309 303.217 30.4313 296.107C30.9434 293.846 30.95 291.391 31.3968 289.136C32.9801 281.146 34.1405 272.95 36.0781 265.048C37.0296 261.167 39.0473 257.327 40.5978 253.647Z"/><defs><linearGradient id="gradient_0" gradientUnits="userSpaceOnUse" x1="196.99707" y1="56.863148" x2="232.25978" y2="136.43103"><stop offset="0" stop-color="#010C09"/><stop offset="1" stop-color="#011D14"/></linearGradient></defs><path fill="url(#gradient_0)" d="M273.571 25.3599C305.99 21.7941 367.373 20.9148 395.488 41.4136C398.481 43.5959 402.825 48.5679 404.062 52.1254C405.386 55.9316 406.112 61.4001 406.987 65.4742L413.36 94.5155L421.712 132.723C422.892 138.227 424.889 146.661 425.564 152.016C426.398 158.639 417.455 172.351 413.418 177.304C412.041 178.961 410.614 180.576 409.14 182.147C406.757 185.095 401.892 189.574 398.827 191.8C397.213 193.299 395.5 194.604 393.873 196.062C393.307 196.7 391.401 198.563 390.669 198.865C390.655 200.143 391.86 215.001 392.116 215.343L392.535 215.59C389.778 218.087 385.953 220.29 383.172 222.633L379.239 225.582C377.02 227.182 369.466 232.425 368.345 234.376L368.423 234.852L368.687 235.023L368.137 235.453C370.666 238.692 373.366 241.603 374.873 245.472C358.278 245.329 350.328 244.964 337.65 257.448C335.56 259.497 333.553 261.63 331.635 263.842C329.181 265.984 326.991 269.01 324.55 271.38C312.796 282.796 300.569 295.188 285.491 302.113C282.819 303.323 277.106 304.463 274.122 305.164C266.349 307.018 260.599 304.685 255.677 298.49C254.72 297.286 254.012 295.833 253.038 294.554L252.873 294.34C252.505 294.827 252.538 294.931 251.813 294.965C246.107 295.227 240.416 295.756 234.723 296.192C232.272 296.38 230.717 297.817 228.922 298.06C229.333 292.927 228.356 287.179 226.201 282.526C224.821 279.548 220.97 270.124 218.153 268.982L217.873 269.165C218.355 275.445 220.499 280.014 220.717 287.889C210.561 288.725 207.314 288.952 197.455 286.667C192.086 286.519 182.337 282.282 177.246 280.005C187.257 273.292 197.695 264.259 200.469 251.818C201.074 249.105 200.561 245.025 202.281 242.979C201.776 241.757 200.463 236.547 199.964 234.93C197.007 225.346 194.257 223.223 187.73 216.861C183.123 214.119 178.579 211.549 173.157 210.797C170.323 210.412 167.446 210.463 164.627 210.948C158.707 212.003 144.228 217.673 139.39 221.293C127.206 204.439 116.44 197.003 96.0838 208.854C95.0139 209.477 90.3464 212.282 89.3662 212.482L89.3958 212.192C95.2185 208.586 101.161 205.055 107.953 203.3C108.859 203.066 111.916 202.944 112.946 202.89L112.929 202.465C111.408 200.727 112.979 201.384 109.894 199.043C108.252 197.798 104.024 191.624 102.662 189.736C102.336 189.285 100.369 183.784 100.175 183.037L100.794 182.438C98.0673 181.457 88.5116 182.242 85.126 181.322C83.5212 180.887 82.524 181.635 81.4161 180.167C72.4271 178.792 67.7281 177.632 59.0493 175.189C54.5894 173.928 50.207 172.406 45.9248 170.633C44.534 169.652 41.5133 168.297 39.8019 167.197C37.2569 165.562 34.675 163.68 32.0387 162.266C31.4484 161.949 31.0985 162.101 30.3739 162.16C30.279 161.429 29.2495 158.502 28.9631 157.698C26.8262 151.7 26.7527 149.235 27.9338 143.143C29.0157 138.446 31.5802 133.69 34.123 129.646C35.7545 126.277 41.3623 119.993 44.1224 117.19C66.6391 94.3243 95.6868 78.6363 124.407 64.9597C130.408 62.1022 136.925 59.5495 143.156 57.176C148.914 54.9827 155.762 51.897 161.685 50.3842C168.817 47.4746 178.342 44.7828 185.825 42.6098C209.337 35.6395 233.351 30.484 257.653 27.1889C261.985 26.6194 269.37 25.5167 273.571 25.3599Z"/><defs><linearGradient id="gradient_1" gradientUnits="userSpaceOnUse" x1="329.24646" y1="108.76285" x2="197.13356" y2="285.69458"><stop offset="0" stop-color="#02B964"/><stop offset="1" stop-color="#02E578"/></linearGradient></defs><path fill="url(#gradient_1)" d="M368.675 105.866C369.409 107.071 369.634 108.282 370.193 109.601C374.946 120.817 376.014 133.027 378.902 144.839C381.899 157.097 385.706 169.105 388.732 181.333C389.648 185.035 389.39 189.024 390.048 192.766C390.171 193.582 390.659 194.1 391.354 194.517C391.794 194.499 392.145 194.471 392.582 194.433C393.012 195.242 393.096 195.565 393.873 196.062C393.307 196.7 391.401 198.563 390.669 198.865C390.655 200.143 391.86 215.001 392.116 215.343L392.535 215.59C389.778 218.087 385.953 220.29 383.172 222.633L379.239 225.582C377.02 227.182 369.466 232.425 368.345 234.376L368.423 234.852L368.687 235.023L368.137 235.453C370.666 238.692 373.366 241.603 374.873 245.472C358.278 245.329 350.328 244.964 337.65 257.448C335.56 259.497 333.553 261.63 331.635 263.842C329.181 265.984 326.991 269.01 324.55 271.38C312.796 282.796 300.569 295.188 285.491 302.113C282.819 303.323 277.106 304.463 274.122 305.164C266.349 307.018 260.599 304.685 255.677 298.49C254.72 297.286 254.012 295.833 253.038 294.554L252.873 294.34C252.505 294.827 252.538 294.931 251.813 294.965C246.107 295.227 240.416 295.756 234.723 296.192C232.272 296.38 230.717 297.817 228.922 298.06C229.333 292.927 228.356 287.179 226.201 282.526C224.821 279.548 220.97 270.124 218.153 268.982L217.873 269.165C218.355 275.445 220.499 280.014 220.717 287.889C210.561 288.725 207.314 288.952 197.455 286.667C192.086 286.519 182.337 282.282 177.246 280.005C187.257 273.292 197.695 264.259 200.469 251.818C201.074 249.105 200.561 245.025 202.281 242.979C201.776 241.757 200.463 236.547 199.964 234.93C197.007 225.346 194.257 223.223 187.73 216.861C183.123 214.119 178.579 211.549 173.157 210.797C170.323 210.412 167.446 210.463 164.627 210.948C158.707 212.003 144.228 217.673 139.39 221.293C127.206 204.439 116.44 197.003 96.0838 208.854C95.0139 209.477 90.3464 212.282 89.3662 212.482L89.3958 212.192C95.2185 208.586 101.161 205.055 107.953 203.3C108.859 203.066 111.916 202.944 112.946 202.89L112.929 202.465C111.408 200.727 112.979 201.384 109.894 199.043C108.252 197.798 104.024 191.624 102.662 189.736C102.336 189.285 100.369 183.784 100.175 183.037L100.794 182.438C98.0673 181.457 88.5116 182.242 85.126 181.322C83.5212 180.887 82.524 181.635 81.4161 180.167C88.5915 180.866 95.9407 181.797 103.166 182.018C126.428 182.729 151.595 180.655 174.592 177.298C192.734 173.824 210.074 170.889 228.162 166.256C256.82 158.915 284.744 149.656 311.957 138.009C316.219 136.184 320.858 133.646 325.182 131.638C342.177 123.264 353.042 117.135 368.675 105.866Z"/><defs><linearGradient id="gradient_2" gradientUnits="userSpaceOnUse" x1="320.80576" y1="286.97552" x2="299.64767" y2="235.51489"><stop offset="0" stop-color="black"/><stop offset="1" stop-color="#021710"/></linearGradient></defs><path fill="url(#gradient_2)" d="M335.894 220.234C349.949 217.357 359.064 225.858 368.137 235.453C370.666 238.692 373.366 241.603 374.873 245.472C358.278 245.329 350.328 244.964 337.65 257.448C335.56 259.497 333.553 261.63 331.635 263.842C329.181 265.984 326.991 269.01 324.55 271.38C312.796 282.796 300.569 295.188 285.491 302.113C282.819 303.323 277.106 304.463 274.122 305.164C266.349 307.018 260.599 304.685 255.677 298.49C254.72 297.286 254.012 295.833 253.038 294.554L252.873 294.34C248.19 284.94 244.311 270.423 251.955 261.566C251.275 270.543 250.238 275.34 256.101 282.689C279.673 285.68 300.087 254.594 313.666 239.246C320.895 231.076 324.992 224.372 335.894 220.234Z"/><defs><linearGradient id="gradient_3" gradientUnits="userSpaceOnUse" x1="356.52719" y1="169.54529" x2="385.07642" y2="163.32475"><stop offset="0" stop-color="#02934C"/><stop offset="1" stop-color="#025B35"/></linearGradient></defs><path fill="url(#gradient_3)" d="M368.675 105.866C369.409 107.071 369.634 108.282 370.193 109.601C374.946 120.817 376.014 133.027 378.902 144.839C381.899 157.097 385.706 169.105 388.732 181.333C389.648 185.035 389.39 189.024 390.048 192.766C390.171 193.582 390.659 194.1 391.354 194.517C391.794 194.499 392.145 194.471 392.582 194.433C393.012 195.242 393.096 195.565 393.873 196.062C393.307 196.7 391.401 198.563 390.669 198.865C390.655 200.143 391.86 215.001 392.116 215.343L392.535 215.59C389.778 218.087 385.953 220.29 383.172 222.633L379.239 225.582L378.767 225.295L379.044 224.949C378.518 224.934 378.528 224.935 378.026 224.772C377.916 221.414 376.669 222.532 374.406 221.666C372.615 220.981 371.007 217.296 369.605 215.904C368.519 214.826 367.365 213.841 366.201 212.84C366.876 211.573 368.953 211.004 369.313 209.908C368.917 207.971 367.233 205.865 367.091 204.912C366.718 201.363 365.173 197.657 364.781 194.152C364.095 188.034 364.709 181.522 363.876 175.342C363.66 173.741 364.321 169.194 363.972 167.894C363.311 165.198 361.618 162.003 360.96 159.366C357.961 147.348 353.115 136.1 347.307 125.186C346.524 123.715 347.159 122.239 346.279 121.62C344.786 121.84 341.428 124.174 339.685 124.999C335.578 126.944 329.782 130.512 325.596 132.043L325.182 131.638C342.177 123.264 353.042 117.135 368.675 105.866Z"/><path fill="#024A29" d="M373.409 209.636C379.087 206.023 384.884 202.308 390.669 198.865C390.655 200.143 391.86 215.001 392.116 215.343L392.535 215.59C389.778 218.087 385.953 220.29 383.172 222.633C382.747 222.447 381.791 222.051 381.555 221.673C378.987 217.565 376.732 213.214 373.409 209.636Z"/><defs><linearGradient id="gradient_4" gradientUnits="userSpaceOnUse" x1="111.55677" y1="206.12642" x2="142.34216" y2="189.27768"><stop offset="0" stop-color="#003B22"/><stop offset="1" stop-color="#07874B"/></linearGradient></defs><path fill="url(#gradient_4)" d="M81.4161 180.167C88.5915 180.866 95.9407 181.797 103.166 182.018C126.428 182.729 151.595 180.655 174.592 177.298C174.481 177.4 174.375 177.508 174.259 177.604C172.323 179.207 143.242 181.634 139.185 181.564L138.734 181.866C138.327 184.914 141.22 192.069 141.221 195.71C141.221 196.631 143.38 200.324 143.647 201.49C144.798 205.239 147.38 212.067 149.236 215.485C150.667 215.054 152.638 214.178 154.032 213.623C162.611 210.208 172.158 208.024 180.85 212.56C182.737 213.545 186.92 214.126 187.73 216.861C183.123 214.119 178.579 211.549 173.157 210.797C170.323 210.412 167.446 210.463 164.627 210.948C158.707 212.003 144.228 217.673 139.39 221.293C127.206 204.439 116.44 197.003 96.0838 208.854C95.0139 209.477 90.3464 212.282 89.3662 212.482L89.3958 212.192C95.2185 208.586 101.161 205.055 107.953 203.3C108.859 203.066 111.916 202.944 112.946 202.89L112.929 202.465C111.408 200.727 112.979 201.384 109.894 199.043C108.252 197.798 104.024 191.624 102.662 189.736C102.336 189.285 100.369 183.784 100.175 183.037L100.794 182.438C98.0673 181.457 88.5116 182.242 85.126 181.322C83.5212 180.887 82.524 181.635 81.4161 180.167Z"/><path fill="#024A29" d="M202.281 242.979C208.675 257.633 204.825 264.428 199.769 278.766C199.081 280.717 198.379 282.082 197.175 283.781L195.952 285.541C196.215 286.279 196.512 286.196 197.455 286.667C192.086 286.519 182.337 282.282 177.246 280.005C187.257 273.292 197.695 264.259 200.469 251.818C201.074 249.105 200.561 245.025 202.281 242.979Z"/><path fill="#01924C" d="M335.894 220.234C337.111 219.051 341.065 218.821 342.787 218.803C346.236 218.767 350.655 220.839 353.738 222.452C354.553 222.879 357.501 224.877 358.421 225.366C358.856 224.953 359.29 224.539 359.725 224.126C360.743 224.274 362.849 224.995 363.767 224.817C363.836 224.432 363.913 224.074 364.032 223.701C365.836 222.93 368.524 224.956 369.645 226.287C370.134 228.367 368.751 230.823 368.911 232.298C370.317 232.185 376.759 226.553 378.767 225.295L379.239 225.582C377.02 227.182 369.466 232.425 368.345 234.376L368.423 234.852L368.687 235.023L368.137 235.453C359.064 225.858 349.949 217.357 335.894 220.234Z"/><defs><linearGradient id="gradient_5" gradientUnits="userSpaceOnUse" x1="202.08896" y1="42.884232" x2="242.8205" y2="219.17641"><stop offset="0" stop-color="#CFF8FA"/><stop offset="1" stop-color="#FFFFFC"/></linearGradient></defs><path fill="url(#gradient_5)" d="M273.571 25.3599C305.99 21.7941 367.373 20.9148 395.488 41.4136C398.481 43.5959 402.825 48.5679 404.062 52.1254C405.386 55.9316 406.112 61.4001 406.987 65.4742L413.36 94.5155L421.712 132.723C422.892 138.227 424.889 146.661 425.564 152.016C426.398 158.639 417.455 172.351 413.418 177.304C412.041 178.961 410.614 180.576 409.14 182.147C406.757 185.095 401.892 189.574 398.827 191.8C397.213 193.299 395.5 194.604 393.873 196.062C393.096 195.565 393.012 195.242 392.582 194.433C392.145 194.471 391.794 194.499 391.354 194.517C390.659 194.1 390.171 193.582 390.048 192.766C389.39 189.024 389.648 185.035 388.732 181.333C385.706 169.105 381.899 157.097 378.902 144.839C376.014 133.027 374.946 120.817 370.193 109.601C369.634 108.282 369.409 107.071 368.675 105.866C353.042 117.135 342.177 123.264 325.182 131.638C320.858 133.646 316.219 136.184 311.957 138.009C284.744 149.656 256.82 158.915 228.162 166.256C210.074 170.889 192.734 173.824 174.592 177.298C151.595 180.655 126.428 182.729 103.166 182.018C95.9407 181.797 88.5915 180.866 81.4161 180.167C72.4271 178.792 67.7281 177.632 59.0493 175.189C54.5894 173.928 50.207 172.406 45.9248 170.633C44.534 169.652 41.5133 168.297 39.8019 167.197C37.2569 165.562 34.675 163.68 32.0387 162.266C31.4484 161.949 31.0985 162.101 30.3739 162.16C30.279 161.429 29.2495 158.502 28.9631 157.698C26.8262 151.7 26.7527 149.235 27.9338 143.143C29.6462 143.56 33.403 143.534 35.1474 143.273C38.841 142.712 46.7774 139.719 50.7175 138.381C59.5651 135.375 71.0149 134.01 78.7866 129.243C78.5371 133.56 78.8048 135.545 81.817 138.89C84.8016 141.274 88.1437 143.172 91.7202 144.514C100.023 147.557 115.604 148.75 124.603 148.728C169.807 148.618 217.146 137.933 259.773 123.298C271.118 119.403 281.164 115.708 292.054 110.75C296.283 108.516 301.326 106.552 305.697 104.378C317.664 98.4238 326.921 93.2706 337.448 85.088C337.704 84.8111 340.378 82.6372 340.881 82.2036C345.887 77.8904 349.448 74.9188 351.616 68.5736C352.406 65.2258 352.264 63.6014 351.068 60.4911C350.943 60.2915 350.817 60.0928 350.689 59.895C345.372 51.6519 335.383 49.9074 326.43 47.9972C315.366 46.2359 307.731 46.0502 296.783 45.9359C295.079 45.7644 291.614 46.0074 290.701 45.1588C291.123 42.9583 297.378 41.0499 297.289 38.7643C294.797 36.549 296.217 34.3251 295.303 32.4201C292.661 26.9144 282.861 28.6205 277.636 25.4529C276.136 25.6384 274.728 26.0432 273.571 25.3599Z"/><defs><linearGradient id="gradient_6" gradientUnits="userSpaceOnUse" x1="179.79431" y1="179.01299" x2="154.69365" y2="109.90178"><stop offset="0" stop-color="#03FC91"/><stop offset="1" stop-color="#03D39F"/></linearGradient></defs><path fill="url(#gradient_6)" d="M81.817 138.89C84.8016 141.274 88.1437 143.172 91.7202 144.514C100.023 147.557 115.604 148.75 124.603 148.728C169.807 148.618 217.146 137.933 259.773 123.298C271.118 119.403 281.164 115.708 292.054 110.75C291.458 111.888 287.644 113.037 287.551 113.484C287.378 114.31 287.773 114.177 287.086 115.013C286.869 117.099 289.223 118.926 289.814 120.091C290.18 120.813 293.099 127.609 293.068 127.888C292.775 130.519 295.54 134.847 295.512 136.362C296.72 135.797 297.281 136.062 298.484 135.311C298.322 135.84 298.376 135.71 298.098 136.22C277.685 144.762 256.728 151.941 235.366 157.711C228.62 159.532 221.66 160.753 214.915 162.497C201.474 165.989 188.345 168.452 174.615 170.472C140.12 175.546 104.335 178.997 70.028 170.813C56.1829 167.511 45.9683 164.553 37.3093 152.538C41.4924 150.395 46.1536 148.867 50.6002 147.334C58.0931 144.687 65.6893 142.342 73.3703 140.304C75.4806 139.743 80.4485 139.388 81.817 138.89Z"/><path fill="#043D42" d="M368.675 105.866C376.211 99.9282 382.583 94.7067 389.324 87.7659C392.051 84.9576 395.061 80.7337 397.573 78.401C401.316 96.5671 405.159 114.712 409.102 132.836C411.57 143.772 414.599 154.781 416.601 165.784C417.134 168.717 407.032 181.103 404.62 183.347C405.233 183.942 405.274 184.063 406.079 184.386C407.138 184.217 408.217 182.951 409.14 182.147C406.757 185.095 401.892 189.574 398.827 191.8C397.213 193.299 395.5 194.604 393.873 196.062C393.096 195.565 393.012 195.242 392.582 194.433C392.145 194.471 391.794 194.499 391.354 194.517C390.659 194.1 390.171 193.582 390.048 192.766C389.39 189.024 389.648 185.035 388.732 181.333C385.706 169.105 381.899 157.097 378.902 144.839C376.014 133.027 374.946 120.817 370.193 109.601C369.634 108.282 369.409 107.071 368.675 105.866Z"/><path fill="#2BAF9D" d="M409.14 182.147C406.757 185.095 401.892 189.574 398.827 191.8L398.668 191.5C398.844 190.678 398.985 190.316 398.832 189.481L397.908 190.193L397.496 189.8C399.937 187.723 402.312 185.571 404.62 183.347C405.233 183.942 405.274 184.063 406.079 184.386C407.138 184.217 408.217 182.951 409.14 182.147Z"/><path fill="#209C7D" d="M397.496 189.8L397.908 190.193L398.832 189.481C398.985 190.316 398.844 190.678 398.668 191.5L398.827 191.8C397.213 193.299 395.5 194.604 393.873 196.062C393.096 195.565 393.012 195.242 392.582 194.433C393.601 193.682 395.639 191.21 397.496 189.8Z"/><path fill="#11E282" d="M337.448 85.088C336.81 87.174 329.361 91.7701 327.106 93.3741C327.127 95.0464 328.349 96.9584 329.234 98.434L329.123 98.6689C328.948 99.0525 329.01 98.9112 328.846 99.3736C330.123 100.701 331.122 100.521 331.708 102.367C333.5 102.084 332.908 102.067 334.331 103.353C336.316 102.779 336.515 102.541 338.746 102.222L338.85 101.932C338.456 101.849 338.094 101.762 337.703 101.664C337.744 100.943 338.474 100.198 338.977 99.5083C339.036 98.8719 339.056 98.7708 339.231 98.1557C339.851 98.1754 339.647 98.2168 340.229 98.0447C340.372 97.2174 340.146 96.7001 339.792 95.9472C338.113 92.3794 342.413 92.0925 340.758 88.4792C340.177 88.4272 339.82 88.3373 339.251 88.214L339.08 87.828L339.524 87.5294C341.517 88.6343 343.322 88.3631 345.401 89.0354C351.952 91.1534 358.867 92.3159 365.318 94.5918C366.188 94.8988 366.496 95.6027 366.782 96.3828C366.96 96.8689 366.431 97.4961 366.167 97.9777C355.711 106.6 342.783 114.126 331.133 121.094C327.056 123.533 322.007 125.253 317.733 127.402C311.256 130.465 304.727 133.512 298.098 136.22C298.376 135.71 298.322 135.84 298.484 135.311C297.281 136.062 296.72 135.797 295.512 136.362C295.54 134.847 292.775 130.519 293.068 127.888C293.099 127.609 290.18 120.813 289.814 120.091C289.223 118.926 286.869 117.099 287.086 115.013C287.773 114.177 287.378 114.31 287.551 113.484C287.644 113.037 291.458 111.888 292.054 110.75C296.283 108.516 301.326 106.552 305.697 104.378C317.664 98.4238 326.921 93.2706 337.448 85.088Z"/><path fill="#84F8F6" d="M394.971 63.2153C394.305 73.6091 374.741 92.5765 366.167 97.9777C366.431 97.4961 366.96 96.8689 366.782 96.3828C366.496 95.6027 366.188 94.8988 365.318 94.5918C358.867 92.3159 351.952 91.1534 345.401 89.0354C343.322 88.3631 341.517 88.6343 339.524 87.5294L339.08 87.828L339.251 88.214C339.82 88.3373 340.177 88.4272 340.758 88.4792C342.413 92.0925 338.113 92.3794 339.792 95.9472C340.146 96.7001 340.372 97.2174 340.229 98.0447C339.647 98.2168 339.851 98.1754 339.231 98.1557C339.056 98.7708 339.036 98.8719 338.977 99.5083C338.474 100.198 337.744 100.943 337.703 101.664C338.094 101.762 338.456 101.849 338.85 101.932L338.746 102.222C336.515 102.541 336.316 102.779 334.331 103.353C332.908 102.067 333.5 102.084 331.708 102.367C331.122 100.521 330.123 100.701 328.846 99.3736C329.01 98.9112 328.948 99.0525 329.123 98.6689L329.234 98.434C328.349 96.9584 327.127 95.0464 327.106 93.3741C329.361 91.7701 336.81 87.174 337.448 85.088C337.704 84.8111 340.378 82.6372 340.881 82.2036C345.887 77.8904 349.448 74.9188 351.616 68.5736C356.095 69.4768 371.477 65.8095 377.129 64.9446C383.034 63.9973 388.993 63.4197 394.971 63.2153Z"/><path fill="#84F8F6" d="M326.43 47.9972C329.518 47.2157 330.118 49.6648 331.172 46.1475L330.998 45.7044C330.184 45.6775 330.015 45.8055 329.251 46.0815L329.461 45.7722L329.661 45.9779L329.706 45.5283C334.575 41.1375 343.325 35.162 349.428 32.2101C351.085 31.4087 354.268 31.4687 356.105 31.4923C359.687 31.5383 363.197 33.1983 366.269 33.8545C376.542 36.0485 381.816 36.9083 389.001 45.2495C390.413 46.8884 391.313 48.19 392.182 50.303C380.492 52.8648 369.124 55.3955 357.801 59.2713C355.756 59.9715 352.921 59.842 351.068 60.4911C350.943 60.2915 350.817 60.0928 350.689 59.895C345.372 51.6519 335.383 49.9074 326.43 47.9972Z"/><path fill="#2AE6D8" d="M161.685 50.3842C164.264 51.3783 170.757 45.9214 176.367 47.6336L176.455 48.0244C175.371 48.8041 175.032 47.9221 173.72 48.8039L173.917 49.0928C178.647 49.5189 185.579 46.3378 190.017 45.0049C193.782 43.8745 195.607 45.7402 199.389 43.1766C201.869 41.4953 208.629 41.021 211.644 41.0643C214.562 46.6086 213.02 51.6561 215.255 55.5714C214.391 56.5639 206.148 57.4494 203.321 59.0111L203.423 59.2723L203.231 59.3466C199.747 60.6605 195.981 61.5483 192.407 62.6246C183.941 65.1738 175.42 67.6507 167.075 70.5715C143.851 78.6998 90.516 102.158 80.2533 124.755C79.6679 126.044 79.2393 127.284 78.9206 128.664L78.8346 129.025C78.8186 129.097 78.8026 129.17 78.7866 129.243C71.0149 134.01 59.5651 135.375 50.7175 138.381C46.7774 139.719 38.841 142.712 35.1474 143.273C33.403 143.534 29.6462 143.56 27.9338 143.143C29.0157 138.446 31.5802 133.69 34.123 129.646C35.7545 126.277 41.3623 119.993 44.1224 117.19C66.6391 94.3243 95.6868 78.6363 124.407 64.9597C130.408 62.1022 136.925 59.5495 143.156 57.176C148.914 54.9827 155.762 51.897 161.685 50.3842Z"/><path fill="#84F8F6" d="M34.123 129.646C34.7597 131.509 29.8119 136.5 30.4648 138.75C31.065 140.818 31.6137 139.778 31.2527 142.372C31.8449 143.135 31.4748 142.849 32.4569 143.182C33.9171 142.857 34.4092 142.026 35.328 140.824C35.2998 142.611 34.0868 142.108 35.1474 143.273C33.403 143.534 29.6462 143.56 27.9338 143.143C29.0157 138.446 31.5802 133.69 34.123 129.646Z"/><path fill="#84F8F6" d="M161.685 50.3842C168.817 47.4746 178.342 44.7828 185.825 42.6098C209.337 35.6395 233.351 30.484 257.653 27.1889C261.985 26.6194 269.37 25.5167 273.571 25.3599C274.728 26.0432 276.136 25.6384 277.636 25.4529C282.861 28.6205 292.661 26.9144 295.303 32.4201C296.217 34.3251 294.797 36.549 297.289 38.7643C297.378 41.0499 291.123 42.9583 290.701 45.1588C291.614 46.0074 295.079 45.7644 296.783 45.9359C292.73 46.191 288.636 46.2573 284.569 46.4448C256.777 47.7262 230.412 52.8384 203.423 59.2723L203.321 59.0111C206.148 57.4494 214.391 56.5639 215.255 55.5714C213.02 51.6561 214.562 46.6086 211.644 41.0643C208.629 41.021 201.869 41.4953 199.389 43.1766C195.607 45.7402 193.782 43.8745 190.017 45.0049C185.579 46.3378 178.647 49.5189 173.917 49.0928L173.72 48.8039C175.032 47.9221 175.371 48.8041 176.455 48.0244L176.367 47.6336C170.757 45.9214 164.264 51.3783 161.685 50.3842Z"/><path fill="#024A29" d="M223.73 102.912C224.331 103.232 228.825 103.674 229.995 103.936C231.606 104.296 233.74 104.468 235.398 104.825C238.773 105.496 242.091 106.412 245.425 107.27C246.367 107.512 247.941 109.828 248.713 110.481C249.966 111.54 253.223 112.57 252.845 114.614C255.92 114.585 260.912 110.756 263.902 111.183C260.96 111.822 254.747 114.614 251.64 115.596C243.145 118.28 234.49 121.002 225.894 123.315C215.754 125.617 205.772 128.33 195.548 130.165C192.564 130.7 188.497 131.629 185.553 131.924L185.484 131.71C188.965 131.5 194.327 129.751 197.997 129.262C198.357 129.214 198.87 127.874 198.935 127.557C199.475 124.914 201.075 123.949 202.452 121.895C203.935 118.349 204.327 115.421 206.757 112.267C209.801 108.315 214.049 105.332 218.712 103.593C219.214 103.414 222.828 103.054 223.73 102.912Z"/><defs><linearGradient id="gradient_7" gradientUnits="userSpaceOnUse" x1="440.17188" y1="238.36507" x2="315.27911" y2="358.47171"><stop offset="0" stop-color="#01472E"/><stop offset="1" stop-color="#02A04F"/></linearGradient></defs><path fill="url(#gradient_7)" d="M427.887 175.774C429.575 178.527 431.727 181.837 432.501 184.99C435.819 198.508 438.105 212.35 441.108 225.932L451.682 273.435C453.178 280.217 454.706 286.99 456.216 293.767C457.725 300.542 453.457 307.744 450.317 313.627C449.751 314.912 449.203 315.704 448.449 316.868C445.823 322.352 437.577 332.129 432.968 335.951C431.526 337.306 430.106 338.603 428.519 339.786C422.039 344.618 415.983 349.904 409.336 354.526C402.976 358.948 396.277 362.76 389.528 366.55C385.206 369.07 373.222 374.507 369.973 377.198C370.932 381.203 371.973 385.187 373.096 389.149L373.71 389.495C378.661 387.603 384.019 384.69 388.623 382.231C410.863 370.352 432.592 356.826 448.796 337.148C450.35 335.261 452.254 332.641 453.946 330.918L454.302 330.561C457.086 326.772 457.789 323.552 458.732 318.962C465.494 323.811 463.745 324.021 465.128 331.219L471.44 360.855C472.56 366.046 475.42 377.015 475.256 381.961C475.049 388.241 469.189 398.678 465.213 403.573C463.677 406.591 454.021 417.117 451.324 419.804C448.771 422.881 443.503 427.23 440.27 429.64C439.155 430.547 438.11 431.244 436.928 432.044C435.759 432.891 430.563 436.662 429.498 437.115C418.71 444.464 405.451 453.855 393.45 459.022C387.637 462.379 381.733 464.686 375.629 467.436C336.283 485.014 294.18 495.62 251.2 498.781C249.723 499.175 245.536 499.296 243.871 499.415C236.498 499.959 229.157 499.619 221.791 499.612C214.564 499.605 208.132 499.557 200.936 498.706L200.941 498.599C204.135 498.344 210.665 499.85 213.654 498.781C213.761 498.63 213.869 498.478 213.977 498.326C213.19 494.966 211.408 489.507 210.343 486.496C208.15 480.302 206.375 474.462 204.368 468.298C200.534 456.525 196.55 444.807 195.804 432.354C195.571 428.471 196.627 423.734 196.785 419.915C196.852 418.287 195.906 412.195 196.724 410.726C197.512 409.313 200.054 403.766 201.748 403.34C202.163 403.236 202.421 403.031 202.787 402.641C203.164 395.143 207.982 374.559 214.33 370.799C215.221 369.791 215.634 369.589 216.792 368.872C217.689 369.312 218.882 370.073 219.767 370.6C224.31 367.313 228.533 360.702 231.535 355.884C233.829 345.569 239.344 337.848 240.976 327.289C240.909 325.097 240.621 322.538 240.331 320.369L240.709 319.963C245.916 319.604 247.75 319.458 252.773 318.379C258.012 317.254 270.058 313.674 275.111 314.076C275.316 312.13 274.006 308.419 274.122 305.164C277.106 304.463 282.819 303.323 285.491 302.113C300.569 295.188 312.796 282.796 324.55 271.38C326.991 269.01 329.181 265.984 331.635 263.842C333.553 261.63 335.56 259.497 337.65 257.448C350.328 244.964 358.278 245.329 374.873 245.472C373.366 241.603 370.666 238.692 368.137 235.453L368.687 235.023L368.423 234.852L368.345 234.376C369.466 232.425 377.02 227.182 379.239 225.582L383.172 222.633C385.953 220.29 389.778 218.087 392.535 215.59C397.937 212.032 404.349 205.58 409.248 201.114C412.129 198.609 415.137 195.262 417.617 192.337C419.268 190.39 421.003 187.885 422.788 186.126C424.465 183.695 426.672 178.639 427.887 175.774Z"/><defs><linearGradient id="gradient_8" gradientUnits="userSpaceOnUse" x1="301.65894" y1="505.4296" x2="312.09232" y2="369.73227"><stop offset="0" stop-color="#00934D"/><stop offset="1" stop-color="#02B058"/></linearGradient></defs><path fill="url(#gradient_8)" d="M458.732 318.962C465.494 323.811 463.745 324.021 465.128 331.219L471.44 360.855C472.56 366.046 475.42 377.015 475.256 381.961C475.049 388.241 469.189 398.678 465.213 403.573C463.677 406.591 454.021 417.117 451.324 419.804C448.771 422.881 443.503 427.23 440.27 429.64C439.155 430.547 438.11 431.244 436.928 432.044C435.759 432.891 430.563 436.662 429.498 437.115C418.71 444.464 405.451 453.855 393.45 459.022C387.637 462.379 381.733 464.686 375.629 467.436C336.283 485.014 294.18 495.62 251.2 498.781C249.723 499.175 245.536 499.296 243.871 499.415C236.498 499.959 229.157 499.619 221.791 499.612C214.564 499.605 208.132 499.557 200.936 498.706L200.941 498.599C204.135 498.344 210.665 499.85 213.654 498.781C213.761 498.63 213.869 498.478 213.977 498.326C213.19 494.966 211.408 489.507 210.343 486.496C208.15 480.302 206.375 474.462 204.368 468.298C200.534 456.525 196.55 444.807 195.804 432.354C195.571 428.471 196.627 423.734 196.785 419.915C196.852 418.287 195.906 412.195 196.724 410.726C197.512 409.313 200.054 403.766 201.748 403.34C202.163 403.236 202.421 403.031 202.787 402.641C203.164 395.143 207.982 374.559 214.33 370.799C209.181 378.847 205.919 385.714 204.815 395.228C204.582 397.234 203.992 399.282 204.06 401.341L204.335 401.718C206.436 400.612 207.049 399.656 209.487 399.635C211.359 399.22 214.654 398.677 216.37 399.401C222.101 401.82 229.061 404.516 233.444 408.914C238.649 404.548 244.938 401.473 251.186 398.873C254.318 397.514 262.383 395.71 266.061 394.575C279.855 390.318 293.966 387.766 308.422 389.368C314.402 390.031 321.214 391.192 327.333 392.076C327.03 382.172 327.716 372.4 333.822 363.933C336.588 360.097 340.108 358.998 344.57 358.432L344.931 358.443C346.657 358.491 347.762 358.222 349.632 358.424L349.357 358.542C348.53 358.903 348.267 358.952 347.664 359.638L347.502 360.34C348.092 360.669 348.277 360.795 348.926 361.015C347.961 361.554 346.788 361.122 345.139 361.648C335.149 364.483 333.2 372.201 335.799 381.532C336.789 385.085 340.12 388.756 342.912 391.017C346.252 390.029 359.554 382.563 362.685 380.438C364.844 380.043 367.561 377.771 369.973 377.198C370.932 381.203 371.973 385.187 373.096 389.149L373.71 389.495C378.661 387.603 384.019 384.69 388.623 382.231C410.863 370.352 432.592 356.826 448.796 337.148C450.35 335.261 452.254 332.641 453.946 330.918L454.302 330.561C457.086 326.772 457.789 323.552 458.732 318.962Z"/><path fill="#043D42" d="M458.732 318.962C465.494 323.811 463.745 324.021 465.128 331.219L471.44 360.855C472.56 366.046 475.42 377.015 475.256 381.961C475.049 388.241 469.189 398.678 465.213 403.573C463.677 406.591 454.021 417.117 451.324 419.804C448.771 422.881 443.503 427.23 440.27 429.64C439.155 430.547 438.11 431.244 436.928 432.044C435.759 432.891 430.563 436.662 429.498 437.115C418.71 444.464 405.451 453.855 393.45 459.022C394.09 457.643 409.193 450.271 412.078 447.993C411.944 446.611 410.737 445.479 410.312 443.393C409.666 441.531 410.692 433.647 409.382 432.352C403.491 426.528 405.142 417.416 403.514 409.941C403.094 408.013 402.182 405.007 401.876 402.981C401.684 401.716 403.188 399.036 401.827 397.29C400.7 397.448 400.609 397.903 399.586 397.493C397.371 394.233 401.63 390.563 404.242 390.164C404.348 391.132 404.143 390.872 404.618 391.489C407.455 389.38 410.434 386.724 411.505 383.231C412.091 381.318 410.675 380.329 410.35 378.267C410.515 377.809 410.43 378.069 410.592 377.482C408.469 378.264 400.496 384.193 397.641 385.066C394.921 385.897 394.138 386.704 391.86 387.785C387.909 389.659 379.348 394.762 375.584 395.848L375.166 395.642C365.596 400.118 363.951 401.398 353.363 403.19L352.693 400.798C350.032 395.854 347.128 394.576 342.912 391.017C346.252 390.029 359.554 382.563 362.685 380.438C364.844 380.043 367.561 377.771 369.973 377.198C370.932 381.203 371.973 385.187 373.096 389.149L373.71 389.495C378.661 387.603 384.019 384.69 388.623 382.231C410.863 370.352 432.592 356.826 448.796 337.148C450.35 335.261 452.254 332.641 453.946 330.918L454.302 330.561C457.086 326.772 457.789 323.552 458.732 318.962Z"/><defs><linearGradient id="gradient_9" gradientUnits="userSpaceOnUse" x1="448.64163" y1="397.60495" x2="400.3782" y2="404.6951"><stop offset="0" stop-color="#012320"/><stop offset="1" stop-color="#017D3F"/></linearGradient></defs><path fill="url(#gradient_9)" d="M373.71 389.495C378.661 387.603 384.019 384.69 388.623 382.231C410.863 370.352 432.592 356.826 448.796 337.148C450.35 335.261 452.254 332.641 453.946 330.918L454.302 330.561C455.739 332.964 454.063 338.694 455.058 341.119L455.033 341.272C453.434 342.77 450.846 345.305 449.373 346.962C447.196 348.802 441.574 353.475 439.712 355.323L439.93 355.264C440.905 354.986 440.98 354.934 441.836 354.409L442.278 354.446C443.255 363.507 444.576 373.183 445.85 382.207L445.608 382.283C445.602 382.205 445.597 382.128 445.591 382.05L445.556 381.662C445.404 379.54 444.593 377.787 444.634 375.663L444.316 375.627C443.015 376.751 443.036 379.202 442.47 380.93C441.664 383.39 438.923 387.025 438.232 389.167C436.667 394.162 436.15 399.254 435.37 404.397C435.188 405.597 433.204 408.85 433.293 409.835C433.501 412.13 434.433 415.462 434.999 417.769C435.254 418.809 436.283 420.123 436.228 421.193C432.27 419.254 430.037 382.471 425.784 374.641C424.147 373.842 422.425 374.581 420.863 375.28C419.314 375.972 415.796 377.035 414.835 378.385C414.746 379.423 414.967 379.165 415.111 379.94C415.684 383.028 415.706 386.447 415.986 389.627C416.729 398.08 418.739 406.206 420.492 414.467C420.882 416.305 423.197 423.816 423.15 424.882C423.285 427.243 426.758 434.857 428.791 436.403C428.901 436.487 429.398 437.014 429.498 437.115C418.71 444.464 405.451 453.855 393.45 459.022C394.09 457.643 409.193 450.271 412.078 447.993C411.944 446.611 410.737 445.479 410.312 443.393C409.666 441.531 410.692 433.647 409.382 432.352C403.491 426.528 405.142 417.416 403.514 409.941C403.094 408.013 402.182 405.007 401.876 402.981C401.684 401.716 403.188 399.036 401.827 397.29C400.7 397.448 400.609 397.903 399.586 397.493C397.371 394.233 401.63 390.563 404.242 390.164C404.348 391.132 404.143 390.872 404.618 391.489C407.455 389.38 410.434 386.724 411.505 383.231C412.091 381.318 410.675 380.329 410.35 378.267C410.515 377.809 410.43 378.069 410.592 377.482C408.469 378.264 400.496 384.193 397.641 385.066C394.921 385.897 394.138 386.704 391.86 387.785C387.909 389.659 379.348 394.762 375.584 395.848L375.166 395.642C365.596 400.118 363.951 401.398 353.363 403.19L352.693 400.798C350.032 395.854 347.128 394.576 342.912 391.017C346.252 390.029 359.554 382.563 362.685 380.438C364.844 380.043 367.561 377.771 369.973 377.198C370.932 381.203 371.973 385.187 373.096 389.149L373.71 389.495Z"/><path fill="#11E282" d="M373.71 389.495C378.661 387.603 384.019 384.69 388.623 382.231C410.863 370.352 432.592 356.826 448.796 337.148C450.35 335.261 452.254 332.641 453.946 330.918L454.302 330.561C455.739 332.964 454.063 338.694 455.058 341.119L455.033 341.272C453.434 342.77 450.846 345.305 449.373 346.962C447.196 348.802 441.574 353.475 439.712 355.323C428.257 364.277 415.148 374.584 402.523 381.784C394.224 386.517 383.746 390.97 375.166 395.642C365.596 400.118 363.951 401.398 353.363 403.19L352.693 400.798C350.032 395.854 347.128 394.576 342.912 391.017C346.252 390.029 359.554 382.563 362.685 380.438C364.844 380.043 367.561 377.771 369.973 377.198C370.932 381.203 371.973 385.187 373.096 389.149L373.71 389.495Z"/><defs><linearGradient id="gradient_10" gradientUnits="userSpaceOnUse" x1="370.10544" y1="378.67438" x2="350.51633" y2="397.60568"><stop offset="0" stop-color="#007138"/><stop offset="1" stop-color="#02984E"/></linearGradient></defs><path fill="url(#gradient_10)" d="M362.685 380.438C364.844 380.043 367.561 377.771 369.973 377.198C370.932 381.203 371.973 385.187 373.096 389.149L373.71 389.495C368.68 392.255 361.623 394.143 356.433 397.215C353.527 398.934 354.23 399.813 352.693 400.798C350.032 395.854 347.128 394.576 342.912 391.017C346.252 390.029 359.554 382.563 362.685 380.438Z"/><path fill="#EE50EE" d="M458.732 318.962C465.494 323.811 463.745 324.021 465.128 331.219L471.44 360.855C472.56 366.046 475.42 377.015 475.256 381.961C475.049 388.241 469.189 398.678 465.213 403.573C463.402 404.043 461.866 408.334 459.673 408.378C456.813 406.106 459.441 404.655 459.635 402.025C460.338 399.958 464.408 394.473 464.461 392.643C464.558 389.297 463.058 383.405 462.427 380.006C460.839 371.442 458.98 363.066 457.116 354.574C456.175 350.287 455.885 345.645 455.033 341.272L455.058 341.119C454.063 338.694 455.739 332.964 454.302 330.561C457.086 326.772 457.789 323.552 458.732 318.962Z"/><path fill="#FAFAFD" d="M458.732 318.962C465.494 323.811 463.745 324.021 465.128 331.219C461.977 334.745 458.866 338.201 455.058 341.119C454.063 338.694 455.739 332.964 454.302 330.561C457.086 326.772 457.789 323.552 458.732 318.962Z"/><path fill="#940393" d="M450.96 415.05C454.583 411.519 456.799 405.679 459.635 402.025C459.441 404.655 456.813 406.106 459.673 408.378C461.866 408.334 463.402 404.043 465.213 403.573C463.677 406.591 454.021 417.117 451.324 419.804C448.771 422.881 443.503 427.23 440.27 429.64C439.208 428.492 439.537 427.787 440.458 426.655C442.51 424.134 445.163 421.616 447.448 419.33C448.861 417.817 449.71 416.716 450.96 415.05Z"/><path fill="#3C2F8C" d="M447.448 419.33C446.761 421.083 444.437 423.284 444.653 424.478C446.408 424.17 449.651 420.603 451.324 419.804C448.771 422.881 443.503 427.23 440.27 429.64C439.208 428.492 439.537 427.787 440.458 426.655C442.51 424.134 445.163 421.616 447.448 419.33Z"/><path fill="#024A29" d="M423.15 424.882L423.771 425.1C424.351 424.64 424.497 424.494 425.002 423.95C426.234 423.687 428.617 424.13 429.295 425.268C429.75 426.033 430.81 425.905 431.668 425.977C433.431 427.547 433.687 428.015 435.198 429.905C434.875 430.729 434.347 431.668 434.299 432.462L434.5 432.67C435.341 432.58 436.125 431.943 436.677 431.326C437.124 428.861 438.857 426.168 441.085 424.973C439.425 427.118 436.993 429.519 436.928 432.044C435.759 432.891 430.563 436.662 429.498 437.115C429.398 437.014 428.901 436.487 428.791 436.403C426.758 434.857 423.285 427.243 423.15 424.882Z"/><path fill="#3C2F8C" d="M455.033 341.272C455.885 345.645 456.175 350.287 457.116 354.574C458.98 363.066 460.839 371.442 462.427 380.006C463.058 383.405 464.558 389.297 464.461 392.643C464.408 394.473 460.338 399.958 459.635 402.025C456.799 405.679 454.583 411.519 450.96 415.05C452.175 411.034 453.892 410.418 454.671 408.111L454.498 407.839L453.427 407.926C453.055 406.454 456.226 405.1 456.514 402.542L456.888 402.34C456.887 403.224 456.716 403.388 457.154 403.89C457.834 403.724 457.527 403.869 458.024 403.341C458.097 401.206 462.45 395.469 463.667 393.118C464.605 391.305 457.86 359.89 456.705 355.888L456.111 355.859L455.933 355.434L456.473 354.759C456.275 353.516 454.707 343.093 454.644 343.015C453.01 343.45 452.093 346.594 449.373 346.962C450.846 345.305 453.434 342.77 455.033 341.272Z"/><path fill="#010405" d="M344.57 358.432L344.931 358.443C346.657 358.491 347.762 358.222 349.632 358.424L349.357 358.542C348.53 358.903 348.267 358.952 347.664 359.638L347.502 360.34C348.092 360.669 348.277 360.795 348.926 361.015C347.961 361.554 346.788 361.122 345.139 361.648C335.149 364.483 333.2 372.201 335.799 381.532C336.789 385.085 340.12 388.756 342.912 391.017C347.128 394.576 350.032 395.854 352.693 400.798L353.363 403.19C353.717 404.467 354.263 405.773 353.918 407.002C351.748 409.256 345.76 407.513 342.833 407.373C338.917 407.185 335.303 407.301 331.496 406.287C327.587 404.671 323.275 400.515 321.975 400.133C309.832 396.568 280.449 400.477 269.483 404.842C268.765 405.896 267.989 405.984 266.71 406.316C265.247 406.719 259.251 408.345 258.415 409.216C258.194 410.355 258.48 409.949 257.689 410.577C256.072 410.79 256.33 409.777 255.256 410.128C252.123 411.151 249.038 413.483 246.139 415.06C245.089 415.632 244.879 416.278 243.877 416.597L243.6 416.155C241.64 416.936 233.957 422.642 232.909 424.222C228.652 430.633 225.648 432.484 219.232 436.759C215.91 429.223 220.789 420.512 223.407 412.675C222.134 411.405 219.918 409.843 218.307 409.067C212.155 406.103 210.312 405.23 203.912 407.16L203.582 406.808C203.68 403.054 206.381 401.053 209.487 399.635C211.359 399.22 214.654 398.677 216.37 399.401C222.101 401.82 229.061 404.516 233.444 408.914C238.649 404.548 244.938 401.473 251.186 398.873C254.318 397.514 262.383 395.71 266.061 394.575C279.855 390.318 293.966 387.766 308.422 389.368C314.402 390.031 321.214 391.192 327.333 392.076C327.03 382.172 327.716 372.4 333.822 363.933C336.588 360.097 340.108 358.998 344.57 358.432Z"/><path fill="#11E282" d="M243.6 416.155C252.121 410.089 259.486 407.574 269.483 404.842C268.765 405.896 267.989 405.984 266.71 406.316C265.247 406.719 259.251 408.345 258.415 409.216C258.194 410.355 258.48 409.949 257.689 410.577C256.072 410.79 256.33 409.777 255.256 410.128C252.123 411.151 249.038 413.483 246.139 415.06C245.089 415.632 244.879 416.278 243.877 416.597L243.6 416.155Z"/><path fill="#024A29" d="M251.2 498.781C249.723 499.175 245.536 499.296 243.871 499.415C236.498 499.959 229.157 499.619 221.791 499.612C214.564 499.605 208.132 499.557 200.936 498.706L200.941 498.599C204.135 498.344 210.665 499.85 213.654 498.781C213.761 498.63 213.869 498.478 213.977 498.326C213.19 494.966 211.408 489.507 210.343 486.496C208.15 480.302 206.375 474.462 204.368 468.298C200.534 456.525 196.55 444.807 195.804 432.354C195.571 428.471 196.627 423.734 196.785 419.915C196.852 418.287 195.906 412.195 196.724 410.726C197.512 409.313 200.054 403.766 201.748 403.34C202.163 403.236 202.421 403.031 202.787 402.641C203.164 395.143 207.982 374.559 214.33 370.799C209.181 378.847 205.919 385.714 204.815 395.228C204.582 397.234 203.992 399.282 204.06 401.341L204.335 401.718C206.436 400.612 207.049 399.656 209.487 399.635C206.381 401.053 203.68 403.054 203.582 406.808L203.912 407.16C201.964 408.367 202.78 409.58 202.792 411.834C202.844 421.836 206.67 431.212 209.515 440.653C210.657 444.463 209.242 444.094 212.182 448.309C213.225 449.805 216.805 453.925 216.587 455.239C214.611 457.289 204.798 456.753 201.937 456.293L201.64 456.546C203.172 459.903 204.577 465.615 205.774 469.33L213.573 492.891C216.058 500.348 213.706 498.778 221.948 499.058C229.639 499.318 237.327 499.477 245.032 498.981C246.916 498.867 249.386 498.62 251.2 498.781Z"/><path fill="#11E282" d="M269.483 404.842C280.449 400.477 309.832 396.568 321.975 400.133C323.275 400.515 327.587 404.671 331.496 406.287C331.582 406.673 331.576 406.48 331.516 406.866C327.765 405.914 325.098 402.521 322.614 401.221C322.142 401.676 318.247 406.013 318.149 406.3C318.686 407.095 318.91 406.975 319.975 407.438L319.881 407.671C319.474 407.81 313.391 406.971 312.249 406.881C299.985 405.91 288.898 411.056 277.113 413.32C275.325 413.663 271.945 411.808 269.655 411.65C268.607 410.889 266.993 407.459 266.71 406.316C267.989 405.984 268.765 405.896 269.483 404.842Z"/><path fill="#01602F" d="M269.843 420.157C275.259 419.556 282.413 421.152 286.878 424.387C287.688 424.974 288.42 425.509 288.58 426.514C288.077 427.057 283.363 427.456 281.722 427.962C273.258 430.575 265.06 436.189 257.19 439.124C251.367 441.159 246.436 439.431 243.072 434.266C242.436 433.29 242.029 432 241.244 431.179C240.551 431.264 240.235 431.281 239.536 431.284C241.025 430.831 245.743 428.646 247.293 427.94C254.663 424.587 261.744 421.398 269.843 420.157Z"/><path fill="#01924C" d="M345.601 413.164C348.349 413.465 352.754 415.308 355.108 416.744C353.47 418.187 352.128 418.861 350.211 419.817C340.806 421.957 336.783 414.138 345.601 413.164Z"/><path fill="#11E282" d="M370.287 291.035C377.412 292.194 370.7 297.134 368.467 299.96C365.237 303.492 362.384 306.62 359.361 310.336C359.499 310.341 359.637 310.344 359.774 310.353C360.296 310.387 360.682 310.561 361.158 310.758C362.964 311.506 374.57 311.015 377.217 310.753C378.308 310.77 378.598 310.679 379.466 311.243C380.67 312.854 380.251 314.632 378.694 315.84C377.448 315.941 374.604 313.925 373.085 314.455C369.527 315.696 365.798 318.627 362.179 320.17C361.125 320.619 359.377 320.872 359.088 321.47C358.387 322.919 357.644 324.275 356.667 325.571C351.8 332.031 349.021 335.306 347.979 343.735C347.643 346.457 347.644 351.515 347.201 353.776C347.506 354.568 347.878 355.023 347.637 355.597L347.045 356.072C347.094 357.026 346.956 356.596 347.499 357.404C348.237 357.832 348.478 357.755 349.324 357.729L349.311 357.876C348.278 357.889 345.305 357.804 344.57 358.432C340.108 358.998 336.588 360.097 333.822 363.933C327.716 372.4 327.03 382.172 327.333 392.076C321.214 391.192 314.402 390.031 308.422 389.368C293.966 387.766 279.855 390.318 266.061 394.575C262.383 395.71 254.318 397.514 251.186 398.873C244.938 401.473 238.649 404.548 233.444 408.914C229.061 404.516 222.101 401.82 216.37 399.401C214.654 398.677 211.359 399.22 209.487 399.635C207.049 399.656 206.436 400.612 204.335 401.718L204.06 401.341C203.992 399.282 204.582 397.234 204.815 395.228C205.919 385.714 209.181 378.847 214.33 370.799C215.221 369.791 215.634 369.589 216.792 368.872C217.689 369.312 218.882 370.073 219.767 370.6C224.31 367.313 228.533 360.702 231.535 355.884C233.829 345.569 239.344 337.848 240.976 327.289C240.909 325.097 240.621 322.538 240.331 320.369L240.709 319.963C245.916 319.604 247.75 319.458 252.773 318.379C258.012 317.254 270.058 313.674 275.111 314.076L275.151 314.31C275.592 316.75 276.549 317.957 275.817 320.331C279.494 317.748 291.213 320.416 295.526 320.225C297.592 320.374 299.563 320.513 301.638 320.457C305.528 320.514 310.467 320.314 314.25 319.461C323.251 317.432 334.715 311.474 342.341 306.177C352.705 298.976 357.753 294.849 370.287 291.035Z"/><path fill="#01924C" d="M231.535 355.884C232.818 355.082 234.01 354.152 235.221 353.244C234.982 358.878 236.879 363.616 237.77 369.406C239.219 370.818 240.943 372.384 242.12 374.011C247.865 381.955 244.602 392.085 251.186 398.873C244.938 401.473 238.649 404.548 233.444 408.914C229.061 404.516 222.101 401.82 216.37 399.401C214.654 398.677 211.359 399.22 209.487 399.635C207.049 399.656 206.436 400.612 204.335 401.718L204.06 401.341C203.992 399.282 204.582 397.234 204.815 395.228C205.919 385.714 209.181 378.847 214.33 370.799C215.221 369.791 215.634 369.589 216.792 368.872C217.689 369.312 218.882 370.073 219.767 370.6C224.31 367.313 228.533 360.702 231.535 355.884Z"/><path fill="#010405" d="M370.287 291.035C377.412 292.194 370.7 297.134 368.467 299.96C365.237 303.492 362.384 306.62 359.361 310.336C355.947 313.561 352.131 314.595 348.559 317.027C340.042 322.829 331.845 326.333 322.585 330.245C308.067 336.378 302.667 333.254 288.099 332.103C287.139 333.867 286.608 334.858 286.461 336.945C284.75 337.04 283.038 337.103 281.325 337.136C281.473 334.22 281.59 331.296 281.876 328.391C276.606 326.21 274.825 326.407 275.817 320.331C279.494 317.748 291.213 320.416 295.526 320.225C297.592 320.374 299.563 320.513 301.638 320.457C305.528 320.514 310.467 320.314 314.25 319.461C323.251 317.432 334.715 311.474 342.341 306.177C352.705 298.976 357.753 294.849 370.287 291.035Z"/><path fill="#01602F" d="M240.976 327.289L241.829 328.536C243.672 331.238 243.958 337.328 243.27 340.53C242.379 344.678 238.173 350.269 235.221 353.244C234.01 354.152 232.818 355.082 231.535 355.884C233.829 345.569 239.344 337.848 240.976 327.289Z"/><defs><linearGradient id="gradient_11" gradientUnits="userSpaceOnUse" x1="307.90143" y1="327.12921" x2="328.00354" y2="349.31442"><stop offset="0" stop-color="#005B11"/><stop offset="1" stop-color="#008038"/></linearGradient></defs><path fill="url(#gradient_11)" d="M295.177 337.176C299.619 337.653 304.014 339.527 308.989 339.991C316.822 340.723 322.064 339.085 329.437 338.262C333.935 337.76 337.728 337.791 342.497 337.127C340.969 338.334 339.779 339.022 338.098 340.025C335.777 341.228 333.382 342.282 330.928 343.182C323.136 346.03 316.643 347.441 308.458 345.341C305.689 344.63 292.947 341.827 295.177 337.176Z"/><defs><linearGradient id="gradient_12" gradientUnits="userSpaceOnUse" x1="414.88257" y1="269.73447" x2="443.89719" y2="259.91214"><stop offset="0" stop-color="#014572"/><stop offset="1" stop-color="#3F62BE"/></linearGradient></defs><path fill="url(#gradient_12)" d="M427.887 175.774C429.575 178.527 431.727 181.837 432.501 184.99C435.819 198.508 438.105 212.35 441.108 225.932L451.682 273.435C453.178 280.217 454.706 286.99 456.216 293.767C457.725 300.542 453.457 307.744 450.317 313.627C449.751 314.912 449.203 315.704 448.449 316.868C445.823 322.352 437.577 332.129 432.968 335.951C433.038 335.697 433.116 335.445 433.174 335.188C433.546 333.534 434.338 332.015 434.746 330.368C435.476 327.426 432.812 314.763 432.147 311.291C431.139 306.034 429.236 301.014 428.161 295.772C426.627 288.282 425.3 280.749 423.749 273.262C422.686 268.132 421.411 263.052 420.413 257.906C419.232 251.817 418.39 245.663 417.311 239.556C416.571 235.369 415.583 231.233 414.806 227.055C414.119 223.357 413.25 208.96 412.273 207.34L412.614 206.971L411.936 206.685C410.173 204.497 410.065 203.764 409.248 201.114C412.129 198.609 415.137 195.262 417.617 192.337C419.268 190.39 421.003 187.885 422.788 186.126C424.465 183.695 426.672 178.639 427.887 175.774Z"/><path fill="#FAFAFD" d="M427.887 175.774C429.575 178.527 431.727 181.837 432.501 184.99C435.819 198.508 438.105 212.35 441.108 225.932L451.682 273.435C453.178 280.217 454.706 286.99 456.216 293.767C457.725 300.542 453.457 307.744 450.317 313.627C449.751 314.912 449.203 315.704 448.449 316.868C448.127 316.903 448.34 316.898 447.817 316.775C448.106 317.279 444.876 305.762 444.832 305.584C444.816 304.839 444.424 303.376 444.392 302.424C444.289 299.259 444.187 295.855 444.342 292.704C443.386 287.824 442.259 282.98 440.963 278.18C440.875 276.96 439.827 272.432 439.51 271.014C438.358 266.03 437.24 261.038 436.155 256.039C434.944 250.226 433.992 244.338 432.773 238.532C429.782 224.52 426.633 210.542 423.328 196.601C422.285 192.372 424.256 189.155 422.788 186.126C424.465 183.695 426.672 178.639 427.887 175.774Z"/><path fill="#940393" d="M444.342 292.704C446.052 299.166 448.121 305.429 448.839 312.086C448.923 312.863 449.572 313.393 450.317 313.627C449.751 314.912 449.203 315.704 448.449 316.868C448.127 316.903 448.34 316.898 447.817 316.775C448.106 317.279 444.876 305.762 444.832 305.584C444.816 304.839 444.424 303.376 444.392 302.424C444.289 299.259 444.187 295.855 444.342 292.704Z"/><path fill="#2AE6D8" d="M422.788 186.126C424.256 189.155 422.285 192.372 423.328 196.601C419.609 199.706 417.974 203.367 412.614 206.971L411.936 206.685C410.173 204.497 410.065 203.764 409.248 201.114C412.129 198.609 415.137 195.262 417.617 192.337C419.268 190.39 421.003 187.885 422.788 186.126Z"/><path fill="#3C2F8C" d="M440.963 278.18C442.259 282.98 443.386 287.824 444.342 292.704C444.187 295.855 444.289 299.259 444.392 302.424C444.424 303.376 444.816 304.839 444.832 305.584C443.977 304.72 441.122 293.818 440.616 291.943C440.299 290.768 440.075 287.845 440.059 286.505C440.048 285.627 441.203 283.738 441.278 282.761C441.137 280.934 440.694 280.049 440.963 278.18Z"/><defs><linearGradient id="gradient_13" gradientUnits="userSpaceOnUse" x1="356.54602" y1="312.58206" x2="311.74506" y2="287.58252"><stop offset="0" stop-color="#029E53"/><stop offset="1" stop-color="#02C465"/></linearGradient></defs><path fill="url(#gradient_13)" d="M301.638 320.457C300.498 319.924 297.94 319.446 296.729 319.712C297.651 318.311 297.869 316.442 298.398 314.861C299.566 311.374 300.751 307.657 302.665 304.498C307.691 296.205 325.902 275.652 334.442 271.424C339.727 268.808 348.206 268.264 353.752 270.232C360.101 272.484 364.369 277.395 367.162 283.358C367.829 284.783 368.054 286.342 368.743 287.755C369.316 288.93 369.957 289.519 370.597 290.624L371.832 290.865C371.151 290.85 370.965 290.909 370.287 291.035C357.753 294.849 352.705 298.976 342.341 306.177C334.715 311.474 323.251 317.432 314.25 319.461C310.467 320.314 305.528 320.514 301.638 320.457Z"/><path fill="#03C767" d="M342.912 391.017C340.12 388.756 336.789 385.085 335.799 381.532C333.2 372.201 335.149 364.483 345.139 361.648C348.667 361.775 360.531 362.356 362.622 364.863L362.528 365.113C359.304 363.688 357.081 362.973 353.534 362.539C354.212 365.324 353.769 367.377 354.116 370.068C354.685 374.48 355.897 378.536 358.466 382.151C359.418 382.133 361.449 380.758 362.445 380.173L362.685 380.438C359.554 382.563 346.252 390.029 342.912 391.017Z"/><path fill="#11E282" d="M392.535 215.59C397.937 212.032 404.349 205.58 409.248 201.114C410.065 203.764 410.173 204.497 411.936 206.685L412.614 206.971L412.273 207.34C405.49 211.802 400.14 217.421 393.646 221.987C387.496 226.312 376.158 234.797 368.687 235.023L368.423 234.852L368.345 234.376C369.466 232.425 377.02 227.182 379.239 225.582L383.172 222.633C385.953 220.29 389.778 218.087 392.535 215.59Z"/><path fill="#03C767" d="M368.467 299.96C372.51 303.385 379.49 298.567 382.69 301.009C382.87 301.653 382.929 301.724 382.45 302.478C379.289 307.456 369.437 306.047 365.863 309.748L365.935 310.15C368.114 311.114 374.522 310.3 377.217 310.753C374.57 311.015 362.964 311.506 361.158 310.758C360.682 310.561 360.296 310.387 359.774 310.353C359.637 310.344 359.499 310.341 359.361 310.336C362.384 306.62 365.237 303.492 368.467 299.96Z"/><path fill="#024A29" d="M274.122 305.164C277.106 304.463 282.819 303.323 285.491 302.113C300.569 295.188 312.796 282.796 324.55 271.38C326.991 269.01 329.181 265.984 331.635 263.842C330.522 266.688 326.06 270.862 323.727 273.201C312.964 283.989 301.313 294.617 287.888 301.986C285.237 303.441 280.257 303.836 277.637 305.374C276.879 306.153 278.477 312.038 277.093 313.382C276.067 312.233 277.087 309.172 276.584 307.754C276.357 307.709 276.13 307.663 275.904 307.617C273.591 308.617 276.534 318.43 277.449 318.949C281.525 318.367 291.544 318.526 295.11 320.05L295.526 320.225C291.213 320.416 279.494 317.748 275.817 320.331C276.549 317.957 275.592 316.75 275.151 314.31L275.111 314.076C275.316 312.13 274.006 308.419 274.122 305.164Z"/><defs><linearGradient id="gradient_14" gradientUnits="userSpaceOnUse" x1="50.438831" y1="463.27933" x2="177.55792" y2="228.38814"><stop offset="0" stop-color="#B700A7"/><stop offset="1" stop-color="#FF10E0"/></linearGradient></defs><path fill="url(#gradient_14)" d="M108.674 214.103C114.881 212.079 119.896 215.378 124.139 219.706C126.27 222.209 127.433 223.973 129.16 226.77C121.586 232.317 110.638 241.223 104.041 247.62L103.838 247.929C100.176 253.45 91.7789 262.397 89.428 268.201C84.4588 280.47 81.7077 294.39 77.2988 306.928C74.5264 314.813 74.6943 317.193 67.5074 322.375L65.5137 324.912C67.5172 324.661 72.4421 323.84 74.0489 323.899L74.3158 324.156C73.7909 325.847 71.6374 329.007 70.5631 330.637C66.6244 336.616 63.1812 343.652 64.806 350.997C65.1381 352.499 65.9673 354.252 66.5855 355.7C66.85 355.745 67.0173 355.713 67.2918 355.699C67.7201 355.084 67.559 354.003 67.5329 353.186C66.6335 346.465 67.2114 340.756 70.4444 334.752C72.3423 331.295 74.5614 328.662 77.1276 325.735C78.3754 323.692 80.1247 322.1 81.1432 319.873C83.3297 315.091 84.4104 309.575 85.922 304.533C88.8901 294.634 97.3007 268.853 103.328 261.455C105.449 258.852 108.07 256.566 110.453 254.2C123.072 241.672 133.901 234.209 149.847 226.276C155.06 223.682 160.721 220.763 166.589 220.185C172.284 219.625 176.36 222.232 180.586 225.691C184.59 227.301 187.184 230.741 188.892 234.674C198.545 256.904 173.165 268.048 158.999 278.972C155.513 281.66 150.634 284.52 147.674 287.655C146.36 289.048 144.698 295.672 143.959 297.89L138.772 313.095C137.698 316.211 136.174 320.894 134.757 323.795C133.975 325.391 133.031 326.903 131.94 328.307C130.305 330.419 121.226 340.035 121.789 341.955L122.359 342.029C121.906 342.441 121.918 342.403 121.326 342.589C121.863 344.263 122.344 344.805 121.395 346.381C115.751 349.852 113.323 352.361 110.745 358.719C109.253 362.398 108.58 372.076 110.121 375.262C110.591 374.92 110.666 374.368 110.696 373.746C110.916 369.254 110.803 363.549 112.659 359.328C116.024 351.673 122.282 349.647 128.224 344.978C129.5 343.976 133.285 338.674 134.931 336.8C149.505 320.946 156.333 310.117 178.754 306.73C191.036 304.875 203.556 302.655 216.154 303.835C217.821 303.991 220.833 305.893 222.223 306.807C227.152 310.354 229.959 315.239 229.507 321.448C232.071 341.969 218.454 345.255 202.032 349.033C196.501 350.305 193.048 352.172 187.193 351.464C182.781 357.795 177.693 364.905 173.78 371.469C171.101 375.962 169.786 381.213 166.447 385.905C165.994 388.221 166.894 389.082 166.882 390.598C167.1 393.826 167.619 397.71 168.097 400.886C171.816 425.603 171.797 452.472 154.802 472.614C152.964 474.791 150.639 476.868 148.79 479.063C146.304 481.888 143.659 486.678 140.029 487.89C141.137 488.568 143.584 488.411 144.99 488.412C147.874 487.942 148.993 487.442 151.667 486.255C153.655 484.887 156.784 481.914 158.483 485.428C161.499 491.664 157.985 498.556 156.762 504.802C156.283 507.162 155.694 511.011 155.064 512.958C152.964 514.979 151.515 515.687 148.9 516.984C146.341 518.757 140.236 520.011 137.14 520.64C113.542 525.441 87.1061 520.883 65.6 510.428C55.0717 505.309 34.9943 491.434 29.2921 481.354C24.7926 473.351 22.528 471.994 26.4496 463.087C28.0086 458.03 31.7788 452.1 35.3018 448.192C35.7875 449.363 36.3034 450.975 36.7325 452.205C38.073 453.611 39.4414 454.927 41.0631 456.017C43.1698 457.753 51.8513 464.897 53.9778 465.546C55.756 465.84 59.4552 467.652 61.8932 468.114C61.6731 467.289 59.9344 466.816 59.4206 465.347C55.5609 462.876 51.6911 460.373 47.8827 457.828C43.0675 454.61 41.3958 452.917 40.6229 447.08C40.3436 446.354 39.7589 441.388 39.6755 440.396C39.0211 432.618 36.6586 424.093 36.2701 416.396C35.6004 409.668 35.0947 402.924 34.7535 396.171C33.8926 378.328 33.5045 360.192 34.7325 342.33C35.3382 333.519 39.6599 324.829 41.6445 316.306C42.51 312.496 42.7501 308.802 43.4813 304.945C46.3487 289.822 47.9572 272.657 54.6197 258.683C56.8743 253.954 63.5862 247.631 67.4124 243.922C77.9782 233.681 94.2483 218.099 108.674 214.103Z"/><defs><linearGradient id="gradient_15" gradientUnits="userSpaceOnUse" x1="194.37128" y1="455.10938" x2="94.804001" y2="378.27832"><stop offset="0" stop-color="#69046C"/><stop offset="1" stop-color="#A7019B"/></linearGradient></defs><path fill="url(#gradient_15)" d="M142.49 391.824C152.665 385.992 157.783 373.146 164.611 364.28C167.51 360.516 179.717 343.274 182.927 341.81C196.394 335.669 223.189 338.761 229.507 321.448C232.071 341.969 218.454 345.255 202.032 349.033C196.501 350.305 193.048 352.172 187.193 351.464C182.781 357.795 177.693 364.905 173.78 371.469C171.101 375.962 169.786 381.213 166.447 385.905C165.994 388.221 166.894 389.082 166.882 390.598C167.1 393.826 167.619 397.71 168.097 400.886C171.816 425.603 171.797 452.472 154.802 472.614C152.964 474.791 150.639 476.868 148.79 479.063C146.304 481.888 143.659 486.678 140.029 487.89C141.137 488.568 143.584 488.411 144.99 488.412C147.874 487.942 148.993 487.442 151.667 486.255C153.655 484.887 156.784 481.914 158.483 485.428C161.499 491.664 157.985 498.556 156.762 504.802C156.283 507.162 155.694 511.011 155.064 512.958C152.964 514.979 151.515 515.687 148.9 516.984C146.341 518.757 140.236 520.011 137.14 520.64C113.542 525.441 87.1061 520.883 65.6 510.428C55.0717 505.309 34.9943 491.434 29.2921 481.354C24.7926 473.351 22.528 471.994 26.4496 463.087C28.0086 458.03 31.7788 452.1 35.3018 448.192C35.7875 449.363 36.3034 450.975 36.7325 452.205C38.073 453.611 39.4414 454.927 41.0631 456.017C43.1698 457.753 51.8513 464.897 53.9778 465.546C55.756 465.84 59.4552 467.652 61.8932 468.114C61.6731 467.289 59.9344 466.816 59.4206 465.347C55.5609 462.876 51.6911 460.373 47.8827 457.828C43.0675 454.61 41.3958 452.917 40.6229 447.08C41.6948 448.398 43.1869 456.179 46.1085 454.786C46.2958 454.933 46.1862 454.864 46.446 454.979L45.9578 454.565C45.6813 453.597 45.6447 454.032 45.8554 453.197C48.4281 452.476 46.6787 450.847 46.9396 448.501C47.1594 446.226 46.2597 440.655 48.1133 438.992C51.4491 435.999 52.1916 443.569 53.8199 445.161C55.0117 446.325 55.8822 447.597 57.9973 447.066C59.1568 446.776 60.8756 449.04 61.6848 449.791C62.3378 449.839 62.6138 449.788 63.2603 449.72C67.6847 452.092 73.4458 457.644 71.6544 463.648C70.7493 466.681 72.4466 466.87 73.409 469.537C74.3363 472.106 71.2808 472.628 72.2346 475.237C73.2205 475.791 76.8172 475.376 77.5439 475.209C80.7298 474.474 84.9549 473.64 84.9236 469.703C84.9214 469.423 87.1291 468.587 87.4728 468.147C88.0613 467.392 88.2162 466.075 88.8021 465.297C92.0176 463.039 98.5358 464.851 101.934 464.281C107.002 463.43 109.855 463.95 114.349 464.255C118.021 464.505 124.045 462.589 128.174 463.385C128.569 463.461 128.551 464.095 129.614 464.049C145.218 455.128 151.381 431.921 150.761 415.125C150.385 404.919 151.546 398.367 142.49 391.824Z"/><path fill="#EE50EE" d="M26.4496 463.087C28.0086 458.03 31.7788 452.1 35.3018 448.192C35.7875 449.363 36.3034 450.975 36.7325 452.205C38.073 453.611 39.4414 454.927 41.0631 456.017C41.1835 456.531 41.2338 457.451 40.8484 457.84C38.724 459.989 37.5038 462.261 35.8916 464.678C34.1855 469.008 30.1474 476.408 30.1683 480.702C29.7435 481.358 30.0303 481.153 29.2921 481.354C24.7926 473.351 22.528 471.994 26.4496 463.087Z"/><path fill="#CF89EE" d="M26.4496 463.087C28.0086 458.03 31.7788 452.1 35.3018 448.192C35.7875 449.363 36.3034 450.975 36.7325 452.205L36.7107 452.844C34.8644 454.518 33.4372 460.135 29.8543 462.749C29.3165 462.329 29.4767 462.603 29.3752 461.926C29.8583 461.473 30.3027 461.195 30.4967 460.633L28.3524 460.653C27.9907 461.736 27.7695 462.124 27.1169 463.064C26.5877 463.174 26.8075 463.209 26.4496 463.087Z"/><path fill="#CE39BE" d="M36.7325 452.205C38.073 453.611 39.4414 454.927 41.0631 456.017C41.1835 456.531 41.2338 457.451 40.8484 457.84C38.724 459.989 37.5038 462.261 35.8916 464.678C36.6694 460.712 37.5456 456.789 36.7107 452.844L36.7325 452.205Z"/><path fill="#940393" d="M151.667 486.255C153.655 484.887 156.784 481.914 158.483 485.428C161.499 491.664 157.985 498.556 156.762 504.802C156.283 507.162 155.694 511.011 155.064 512.958C152.964 514.979 151.515 515.687 148.9 516.984L148.136 516.742C147.416 515.428 151.105 489.26 151.667 486.255Z"/><path fill="#0F0020" d="M166.447 385.905C165.994 388.221 166.894 389.082 166.882 390.598C165.407 390.915 163 393.921 159.831 394.575L159.511 394.342C160.05 392.691 164.658 388.353 166.217 386.224L166.447 385.905Z"/><path fill="#0F0020" d="M59.4206 465.347C62.2824 467.156 64.4835 468.773 67.0194 471.02C63.5178 469.807 56.6968 467.66 53.9778 465.546C55.756 465.84 59.4552 467.652 61.8932 468.114C61.6731 467.289 59.9344 466.816 59.4206 465.347Z"/><path fill="#570060" d="M133.943 488.583C135.423 488.267 138.661 487.58 140.029 487.89C141.137 488.568 143.584 488.411 144.99 488.412C144.096 489.069 135.466 488.633 133.943 488.583Z"/><path fill="#940393" d="M180.586 225.691C184.59 227.301 187.184 230.741 188.892 234.674C198.545 256.904 173.165 268.048 158.999 278.972C155.513 281.66 150.634 284.52 147.674 287.655C146.36 289.048 144.698 295.672 143.959 297.89L138.772 313.095C137.698 316.211 136.174 320.894 134.757 323.795C133.975 325.391 133.031 326.903 131.94 328.307C130.305 330.419 121.226 340.035 121.789 341.955L122.359 342.029C121.906 342.441 121.918 342.403 121.326 342.589C117.797 340.997 118.225 340.395 114.166 340.053C119.144 333.306 119.913 329.216 122.318 321.307C125.287 311.768 129.492 301.763 132.981 292.528C136.528 283.137 135.226 279.791 144.775 274.71C147.407 273.309 154.938 267.186 157.627 264.968C165.806 258.22 178.488 251.575 182.388 241.395C183.174 239.146 182.551 229.943 181.389 228.251C180.841 227.387 180.797 226.718 180.586 225.691Z"/><defs><linearGradient id="gradient_16" gradientUnits="userSpaceOnUse" x1="81.519737" y1="309.43555" x2="41.722744" y2="295.59882"><stop offset="0" stop-color="#F7C6F6"/><stop offset="1" stop-color="#F7F3FA"/></linearGradient></defs><path fill="url(#gradient_16)" d="M108.674 214.103C110.545 214.364 111.911 213.709 113.558 213.921C113.986 214.47 114.275 214.711 114.318 215.4C113.244 216.721 110.709 215.923 108.826 216.807C108.676 217.112 108.533 217.372 108.415 217.689C96.1982 222.689 62.469 250.068 57.541 261.766C55.9191 265.616 54.9487 269.886 53.8956 273.921C50.0458 288.671 48.013 303.702 44.9525 318.599C43.4972 325.683 40.5771 333.831 39.6648 340.805L40.0426 340.433C40.5528 341.307 40.9023 346.158 41.0473 347.486C40.1938 349.492 40.3874 350.338 39.9694 352.364L39.6745 352.26C39.725 355.13 40.0293 357.793 40.1353 360.596C40.0981 365.013 39.8807 368.914 39.6422 373.311C39.6267 373.391 39.6098 373.471 39.5956 373.552C38.7143 378.571 40.7994 397.165 37.7168 399.547C37.2717 399.891 36.9416 399.963 36.4072 400.08C34.7582 399.596 35.2847 397.728 34.7535 396.171C33.8926 378.328 33.5045 360.192 34.7325 342.33C35.3382 333.519 39.6599 324.829 41.6445 316.306C42.51 312.496 42.7501 308.802 43.4813 304.945C46.3487 289.822 47.9572 272.657 54.6197 258.683C56.8743 253.954 63.5862 247.631 67.4124 243.922C77.9782 233.681 94.2483 218.099 108.674 214.103Z"/><path fill="#570060" d="M39.6648 340.805L40.0426 340.433C40.5528 341.307 40.9023 346.158 41.0473 347.486C40.1938 349.492 40.3874 350.338 39.9694 352.364L39.6745 352.26C39.2858 348.301 39.3439 344.744 39.6648 340.805Z"/><defs><linearGradient id="gradient_17" gradientUnits="userSpaceOnUse" x1="134.49207" y1="288.86993" x2="108.78497" y2="253.36255"><stop offset="0" stop-color="#F289F1"/><stop offset="1" stop-color="#FAF8FC"/></linearGradient></defs><path fill="url(#gradient_17)" d="M77.1276 325.735C78.3754 323.692 80.1247 322.1 81.1432 319.873C83.3297 315.091 84.4104 309.575 85.922 304.533C88.8901 294.634 97.3007 268.853 103.328 261.455C105.449 258.852 108.07 256.566 110.453 254.2C123.072 241.672 133.901 234.209 149.847 226.276C155.06 223.682 160.721 220.763 166.589 220.185C172.284 219.625 176.36 222.232 180.586 225.691C180.797 226.718 180.841 227.387 181.389 228.251C181.336 229.511 181.382 229.636 180.804 230.71C180.473 230.93 180.223 231.212 179.908 231.099C177.051 229.976 175.423 226.922 172.692 225.273C170.795 224.127 169.969 223.555 167.563 223.846C164.288 224.243 161.363 225.626 158.351 226.999C151.864 229.957 145.26 232.866 139.145 236.577C130.871 241.597 123.946 248.578 116.757 254.979C112.979 258.272 107.585 261.951 104.933 265.902C102.639 269.319 100.267 275.544 98.755 279.437C95.6998 287.302 92.5471 295.213 89.7347 303.157C87.867 308.433 86.6998 314.238 84.484 319.433C83.5639 321.59 80.5463 327.524 78.7209 328.842C77.4299 329.559 75.8292 331.59 75.1787 331.646C74.096 329.634 76.7772 327.935 77.1276 325.735Z"/><path fill="#940393" d="M100.597 248.23C102.561 248.848 102.38 248.629 104.041 247.62L103.838 247.929C100.176 253.45 91.7789 262.397 89.428 268.201C84.4588 280.47 81.7077 294.39 77.2988 306.928C74.5264 314.813 74.6943 317.193 67.5074 322.375C68.3493 320.511 68.5526 315.496 69.3418 312.95C74.0625 297.722 78.1865 282.044 81.6489 266.569C82.4118 263.16 96.8976 251.193 100.597 248.23Z"/><defs><linearGradient id="gradient_18" gradientUnits="userSpaceOnUse" x1="180.53035" y1="325.09225" x2="171.75101" y2="307.27441"><stop offset="0" stop-color="#F2A4E5"/><stop offset="1" stop-color="#FBD4FF"/></linearGradient></defs><path fill="url(#gradient_18)" d="M134.931 336.8C149.505 320.946 156.333 310.117 178.754 306.73C191.036 304.875 203.556 302.655 216.154 303.835C217.821 303.991 220.833 305.893 222.223 306.807C221.858 307.258 221.405 307.956 220.765 307.833C217.25 307.149 214.5 306.702 210.848 306.911C193.067 307.928 176.542 309.085 160.114 316.597C153.387 319.673 139.602 337.789 135.972 338.294C135.333 337.653 135.338 337.577 134.931 336.8Z"/><path fill="#CF89EE" d="M39.6422 373.311C39.7535 384.463 39.2272 395.537 40.2092 406.658C40.3508 408.262 40.8831 412.747 40.276 414.06L39.9682 414.057L40.0835 412.622L39.5399 412.819C39.5713 412.042 39.6903 411.558 39.8435 410.808C38.5245 412.115 38.239 412.425 36.6165 413.384C36.4148 414.589 37.4016 415.178 37.1117 416.781L36.7809 417.004L36.2701 416.396C35.6004 409.668 35.0947 402.924 34.7535 396.171C35.2847 397.728 34.7582 399.596 36.4072 400.08C36.9416 399.963 37.2717 399.891 37.7168 399.547C40.7994 397.165 38.7143 378.571 39.5956 373.552C39.6098 373.471 39.6267 373.391 39.6422 373.311Z"/><path fill="#CF89EE" d="M108.674 214.103C114.881 212.079 119.896 215.378 124.139 219.706C123.129 220.629 122.716 221.21 121.422 220.39C116.796 217.457 113.945 216.428 108.415 217.689C108.533 217.372 108.676 217.112 108.826 216.807C110.709 215.923 113.244 216.721 114.318 215.4C114.275 214.711 113.986 214.47 113.558 213.921C111.911 213.709 110.545 214.364 108.674 214.103Z"/><path fill="#CF89EE" d="M77.1276 325.735C76.7772 327.935 74.096 329.634 75.1787 331.646C75.8292 331.59 77.4299 329.559 78.7209 328.842C77.4623 330.552 73.4285 336.384 71.779 336.841C70.716 336.388 70.6805 335.833 70.4444 334.752C72.3423 331.295 74.5614 328.662 77.1276 325.735Z"/><path fill="#5E0080" d="M41.0473 347.486C41.7529 351.579 42.4113 355.203 42.1936 359.404C41.7041 359.949 41.0925 360.813 40.4996 361.006L40.1353 360.596C40.0293 357.793 39.725 355.13 39.6745 352.26L39.9694 352.364C40.3874 350.338 40.1938 349.492 41.0473 347.486Z"/><path fill="#570060" d="M67.5329 353.186C68.3637 356.642 68.9909 360.842 69.5909 364.396C68.162 361.507 67.47 358.794 66.5855 355.7C66.85 355.745 67.0173 355.713 67.2918 355.699C67.7201 355.084 67.559 354.003 67.5329 353.186Z"/><defs><linearGradient id="gradient_19" gradientUnits="userSpaceOnUse" x1="69.232956" y1="200.58781" x2="51.654724" y2="216.20906"><stop offset="0" stop-color="#003822"/><stop offset="1" stop-color="#079162"/></linearGradient></defs><path fill="url(#gradient_19)" d="M30.3739 162.16C31.0985 162.101 31.4484 161.949 32.0387 162.266C34.675 163.68 37.2569 165.562 39.8019 167.197C41.5133 168.297 44.534 169.652 45.9248 170.633C50.207 172.406 54.5894 173.928 59.0493 175.189C56.9498 175.874 50.0462 172.929 47.6866 172.035C47.0006 173.493 50.3842 185.811 50.9987 188.246C52.0099 192.252 59.8253 188.104 63.0975 193.865L63.426 193.714C63.3974 193.646 63.3687 193.578 63.3401 193.51C62.4778 189.349 58.5272 182.498 58.1058 178.562L58.5007 178.189L58.9338 178.43C59.3514 182.126 61.4263 186.375 62.6464 189.945C65.6725 198.8 69.6382 207.173 71.8242 216.326C72.4131 218.792 73.3004 221.242 73.7382 223.766C72.8298 224.857 65.5762 231.129 64.3527 231.887L62.2491 234.096C59.2809 237.034 56.9854 239.747 54.329 242.941C51.7147 236.476 50.247 229.446 48.2023 222.815C45.4189 213.787 42.6992 204.889 40.1242 195.795L37.0612 185.687C34.398 177.157 32.4714 170.819 30.3739 162.16Z"/><path fill="#CF89EE" d="M37.0612 185.687C39.9457 185.248 45.7334 186.91 45.6101 190.3L45.6031 190.645C46.1712 190.693 46.3094 190.699 46.775 191.031L45.4573 191.252C46.2741 191.927 49.6499 191.684 50.3854 192.356C51.8656 193.707 52.2472 197.546 52.9342 199.42L53.6924 199.5L60.0031 220.436C60.0048 222.863 59.9538 225.494 60.0324 227.903C61.1335 230.15 61.439 231.865 62.2491 234.096C59.2809 237.034 56.9854 239.747 54.329 242.941C51.7147 236.476 50.247 229.446 48.2023 222.815C45.4189 213.787 42.6992 204.889 40.1242 195.795L37.0612 185.687Z"/><path fill="#B68EEA" d="M52.9342 199.42L53.6924 199.5L60.0031 220.436C60.0048 222.863 59.9538 225.494 60.0324 227.903L59.9176 227.638C59.0642 225.706 59.3709 223.812 58.6748 222.18C57.5326 219.501 51.4467 205.369 51.5757 203.493C53.0848 204.198 54.2808 208.963 55.2668 210.309C55.9515 208.186 53.3059 201.669 52.9342 199.42Z"/><path fill="#82BAF0" d="M37.0612 185.687C39.9457 185.248 45.7334 186.91 45.6101 190.3C43.2035 190.348 41.5486 186.928 39.0014 188.436C38.1017 190.458 40.9663 192.673 40.1242 195.795L37.0612 185.687Z"/><defs><linearGradient id="gradient_20" gradientUnits="userSpaceOnUse" x1="45.169449" y1="167.67239" x2="37.805408" y2="187.73622"><stop offset="0" stop-color="#4BD4ED"/><stop offset="1" stop-color="#6BC3EF"/></linearGradient></defs><path fill="url(#gradient_20)" d="M30.3739 162.16C31.0985 162.101 31.4484 161.949 32.0387 162.266C34.675 163.68 37.2569 165.562 39.8019 167.197C41.5133 168.297 44.534 169.652 45.9248 170.633C46.3142 172.247 46.9557 173.784 47.2281 175.46C48.5457 183.564 51.9732 191.628 53.6924 199.5L52.9342 199.42C52.2472 197.546 51.8656 193.707 50.3854 192.356C49.6499 191.684 46.2741 191.927 45.4573 191.252L46.775 191.031C46.3094 190.699 46.1712 190.693 45.6031 190.645L45.6101 190.3C45.7334 186.91 39.9457 185.248 37.0612 185.687C34.398 177.157 32.4714 170.819 30.3739 162.16Z"/><path fill="#A2A5E9" d="M60.0031 220.436C61.0601 223.711 62.6004 229.069 64.3527 231.887L62.2491 234.096C61.439 231.865 61.1335 230.15 60.0324 227.903C59.9538 225.494 60.0048 222.863 60.0031 220.436Z"/><path fill="#01602F" d="M252.873 294.34L253.038 294.554C254.012 295.833 254.72 297.286 255.677 298.49C260.599 304.685 266.349 307.018 274.122 305.164C274.006 308.419 275.316 312.13 275.111 314.076C270.058 313.674 258.012 317.254 252.773 318.379C247.75 319.458 245.916 319.604 240.709 319.963L240.331 320.369C239.919 319.632 238.98 312.985 238.73 311.604C241.044 311.874 244.36 311.506 246.603 310.888C244.059 310.455 241.113 312.249 238.942 310.904C238.675 310.276 238.69 310.246 238.594 309.562C239.779 309.681 245.714 310.376 246.352 310.045L246.292 309.851C245.556 309.374 243.305 309.572 242.283 309.608C239.032 309.723 236.067 307.162 233.939 304.873C232.379 303.194 228.925 300.311 228.922 298.06C230.717 297.817 232.272 296.38 234.723 296.192C240.416 295.756 246.107 295.227 251.813 294.965C252.538 294.931 252.505 294.827 252.873 294.34Z"/><path fill="#043D42" d="M218.182 355.407C218.75 355.383 218.903 355.419 219.47 355.504L219.611 355.948C217.429 359.906 207.827 362.699 203.329 362.645C202.321 362.215 201.606 362.095 201.49 360.93C201.943 360.473 215.82 356.23 218.182 355.407Z"/><path fill="#CE39BE" d="M122.359 342.029C123.614 341.296 124.763 340.592 126.279 340.653L126.726 340.968C126.954 343.141 123.063 345.475 121.395 346.381C122.344 344.805 121.863 344.263 121.326 342.589C121.918 342.403 121.906 342.441 122.359 342.029Z"/></svg>